{
.appVersion = "3108";
.formatVersion = 3;
axes = (
{
name = Weight;
tag = wght;
}
);
customParameters = (
{
name = "Variable Font Origin";
value = m01;
}
);
date = "2022-02-27 10:52:09 +0000";
familyName = "NSW ACT Print";
featurePrefixes = (
{
automatic = 1;
code = "languagesystem DFLT dflt;
";
name = Languagesystems;
}
);
features = (
{
automatic = 1;
code = "feature c2sc;
feature smcp;
";
tag = aalt;
},
{
automatic = 1;
code = "sub A by a.sc;
sub B by b.sc;
sub C by c.sc;
sub D by d.sc;
sub E by e.sc;
sub F by f.sc;
sub G by g.sc;
sub H by h.sc;
sub I by i.sc;
sub J by j.sc;
sub K by k.sc;
sub L by l.sc;
sub M by m.sc;
sub N by n.sc;
sub O by o.sc;
sub P by p.sc;
sub Q by q.sc;
sub R by r.sc;
sub S by s.sc;
sub T by t.sc;
sub U by u.sc;
sub V by v.sc;
sub W by w.sc;
sub X by x.sc;
sub Y by y.sc;
sub Z by z.sc;
sub zero by zero.c2sc;
sub one by one.c2sc;
sub two by two.c2sc;
sub three by three.c2sc;
sub four by four.c2sc;
sub five by five.c2sc;
sub six by six.c2sc;
sub seven by seven.c2sc;
sub eight by eight.c2sc;
sub nine by nine.c2sc;
";
tag = c2sc;
},
{
automatic = 1;
code = "sub a by a.sc;
sub b by b.sc;
sub c by c.sc;
sub d by d.sc;
sub e by e.sc;
sub f by f.sc;
sub g by g.sc;
sub h by h.sc;
sub i by i.sc;
sub j by j.sc;
sub k by k.sc;
sub l by l.sc;
sub m by m.sc;
sub n by n.sc;
sub o by o.sc;
sub p by p.sc;
sub q by q.sc;
sub r by r.sc;
sub s by s.sc;
sub t by t.sc;
sub u by u.sc;
sub v by v.sc;
sub w by w.sc;
sub x by x.sc;
sub y by y.sc;
sub z by z.sc;
";
tag = smcp;
}
);
fontMaster = (
{
axesValues = (
300
);
guides = (
{
pos = (180,650);
},
{
angle = 180;
pos = (266,350);
}
);
iconName = SemiLight;
id = m01;
metricValues = (
{
over = 4;
pos = 700;
},
{
over = -4;
},
{
over = -4;
pos = -300;
},
{
over = 4;
pos = 650;
},
{
over = 4;
pos = 350;
},
{
pos = 10;
},
{
over = -4;
pos = 396;
}
);
name = "NSW ACT Print Regular";
stemValues = (
50,
50
);
userData = {
GSOffsetHorizontal = 10;
GSOffsetVertical = 11;
};
visible = 1;
},
{
axesValues = (
800
);

glyphs = (
{
glyphname = A;
lastChange = "2022-02-28 10:53:59 +0000";
layers = (
{
layerId = m01;
name = "QBeginners Light";
shapes = (
{
closed = 1;
nodes = (
(383,625,ls),
(387,636,o),
(379,650,o),
(360,650,cs),
(338,650,o),
(337,639,o),
(330,625,cs),
(21,32,ls),
(11,12,o),
(23,0,o),
(38,0,cs),
(58,0,o),
(63,7,o),
(72,25,cs),
(381,619,l)
);
},
{
closed = 1;
nodes = (
(376,327,l),
(371,372,l),
(239,372,l),
(217,327,l)
);
},
{
closed = 1;
nodes = (
(341,563,l),
(387,19,ls),
(388,9,o),
(391,0,o),
(413,0,c),
(431,0,o),
(437,11,o),
(436,26,cs),
(384,635,l)
);
}
);
width = 508;
},
{
associatedMasterId = m002;
attr = {
axisRules = (
{
max = 800;
min = 600;
}
);
};
layerId = "2BD1AC13-F975-43DE-9324-FFA3EF678F39";
name = "28 Feb 22, 07:34";
shapes = (
{
closed = 1;
nodes = (
(430,602,l),
(437,629,o),
(417,650,o),
(384,650,cs),
(350,650,o),
(342,636,o),
(333,616,c),
(43,60,ls),
(24,24,o),
(50,0,o),
(80,0,cs),
(107,0,o),
(122,8,o),
(135,33,cs),
(416,591,l)
);
},
{
closed = 1;
nodes = (
(433,270,l),
(425,350,l),
(227,350,l),
(184,270,l)
);
},
{
closed = 1;
nodes = (
(350,584,l),
(386,40,ls),
(388,16,o),
(404,0,o),
(435,0,cs),
(463,0,o),
(483,15,o),
(480,46,cs),
(431,620,l)
);
}
);
width = 564;
},
{
layerId = m002;
name = "NSW ACT Print ExtraBold";
shapes = (
{
closed = 1;
nodes = (
(431,604,l),
(436,630,o),
(415,650,o),
(384,650,cs),
(350,650,o),
(342,636,o),
(333,616,c),
(43,60,ls),
(24,24,o),
(50,0,o),
(80,0,cs),
(107,0,o),
(123,8,o),
(135,33,cs),
(359,492,l)
);
},
{
closed = 1;
nodes = (
(378,292,l),
(370,372,l),
(287,372,l),
(247,292,l)
);
},
{
closed = 1;
nodes = (
(354,506,l),
(386,40,ls),
(388,16,o),
(404,0,o),
(435,0,cs),
(463,0,o),
(483,15,o),
(480,46,cs),
(431,619,l)
);
}
);
width = 564;
},
{
associatedMasterId = m01;
attr = {
axisRules = (
{
max = 800;
min = 600;
}
);
};
layerId = "F26795CF-3851-46EB-8335-361574138B0A";
name = "28 Feb 22, 07:35";
shapes = (
{
closed = 1;
nodes = (
(383,625,ls),
(387,636,o),
(379,650,o),
(360,650,cs),
(338,650,o),
(337,639,o),
(330,625,cs),
(21,32,ls),
(11,12,o),
(23,0,o),
(38,0,cs),
(58,0,o),
(63,7,o),
(72,25,cs),
(381,619,l)
);
},
{
closed = 1;
nodes = (
(376,327,l),
(371,372,l),
(239,372,l),
(217,327,l)
);
},
{
closed = 1;
nodes = (
(341,563,l),
(387,19,ls),
(388,9,o),
(391,0,o),
(413,0,c),
(431,0,o),
(437,11,o),
(436,26,cs),
(384,635,l)
);
}
);
visible = 1;
width = 508;
}
);
metricLeft = N;
metricRight = N;
unicode = 65;
},
{
glyphname = B;
lastChange = "2022-03-01 17:26:50 +0000";
layers = (
{
layerId = m01;
shapes = (
{
closed = 1;
nodes = (
(413,300,o),
(441,367,o),
(460,475,cs),
(481,593,o),
(378,650,o),
(153,650,c),
(144,605,l),
(330,605,o),
(426,565,o),
(410,477,cs),
(397,405,o),
(385,350,o),
(118,350,c),
(110,300,l)
);
},
{
closed = 1;
nodes = (
(330,0,o),
(407,31,o),
(427,144,cs),
(449,270,o),
(324,350,o),
(114,350,c),
(107,300,l),
(297,300,o),
(393,239,o),
(378,151,cs),
(363,66,o),
(256,45,o),
(46,45,c),
(39,0,l)
);
},
{
closed = 1;
nodes = (
(178,641,o),
(172,650,o),
(153,650,cs),
(136,650,o),
(128,643,o),
(124,623,cs),
(20,31,ls),
(17,14,o),
(27,0,o),
(44,0,cs),
(58,0,o),
(66,9,o),
(70,29,cs),
(174,619,ls)
);
}
);
width = 463;
},
{
layerId = m002;
shapes = (
{
closed = 1;
nodes = (
(466,282,o),
(482,384,o),
(496,462,cs),
(511,548,o),
(393,650,o),
(186,650,c),
(169,559,l),
(350,559,o),
(400,494,o),
(396,467,cs),
(391,435,o),
(379,358,o),
(179,358,c),
(166,282,l)
);
},
{
closed = 1;
nodes = (
(375,0,o),
(472,35,o),
(493,151,cs),
(517,285,o),
(361,358,o),
(174,358,c),
(160,282,l),
(337,282,o),
(406,241,o),
(394,168,cs),
(385,113,o),
(315,96,o),
(97,96,c),
(82,0,l)
);
},
{
closed = 1;
nodes = (
(245,643,o),
(212,650,o),
(188,650,cs),
(164,650,o),
(143,642,o),
(137,609,cs),
(39,53,ls),
(34,23,o),
(56,0,o),
(86,0,cs),
(109,0,o),
(133,11,o),
(139,44,cs),
(237,599,ls)
);
}
);
width = 547;
}
);
metricLeft = N;
metricRight = O;
unicode = 66;
},
{
glyphname = C;
lastChange = "2022-03-01 16:47:17 +0000";
layers = (
{
layerId = m01;
shapes = (
{
closed = 1;
nodes = (
(412,599,o),
(441,583,o),
(448,546,cs),
(451,533,o),
(470,530,o),
(482,533,cs),
(497,537,o),
(497,551,o),
(495,561,cs),
(485,619,o),
(431,649,o),
(342,649,cs),
(187,649,o),
(101,510,o),
(72,338,cs),
(69,318,o),
(51,218,o),
(51,172,cs),
(51,85,o),
(78,-4,o),
(184,-4,cs),
(294,-4,o),
(378,60,o),
(411,119,cs),
(429,152,o),
(432,164,o),
(416,173,cs),
(396,183,o),
(383,171,o),
(370,148,cs),
(341,98,o),
(275,46,o),
(183,46,cs),
(112,46,o),
(101,114,o),
(101,171,cs),
(101,225,o),
(118,310,o),
(125,349,cs),
(148,484,o),
(223,599,o),
(342,599,cs)
);
}
);
width = 461;
},
{
layerId = m002;
shapes = (
{
closed = 1;
nodes = (
(437,550,o),
(458,536,o),
(461,519,cs),
(467,487,o),
(503,480,o),
(527,486,cs),
(555,494,o),
(564,521,o),
(558,546,cs),
(543,606,o),
(483,650,o),
(392,650,cs),
(192,650,o),
(117,497,o),
(91,348,cs),
(86,327,o),
(68,219,o),
(68,168,cs),
(68,104,o),
(102,-4,o),
(250,-4,cs),
(359,-4,o),
(451,58,o),
(482,127,cs),
(507,188,o),
(512,220,o),
(464,232,cs),
(422,242,o),
(412,214,o),
(395,176,cs),
(375,131,o),
(320,96,o),
(251,96,cs),
(190,96,o),
(168,120,o),
(168,167,cs),
(168,220,o),
(185,310,o),
(193,347,cs),
(212,451,o),
(258,550,o),
(392,550,cs)
);
}
);
width = 548;
}
);
metricLeft = O;
metricRight = O;
unicode = 67;
},
{
glyphname = D;
lastChange = "2022-03-01 16:48:41 +0000";
layers = (
{
layerId = m01;
shapes = (
{
closed = 1;
nodes = (
(106,0,ls),
(298,0,o),
(424,128,o),
(463,351,cs),
(493,521,o),
(378,650,o),
(189,650,cs),
(153,650,l),
(148,600,l),
(193,600,ls),
(352,600,o),
(437,489,o),
(413,350,cs),
(379,155,o),
(268,50,o),
(106,50,cs),
(53,50,l),
(43,0,l)
);
},
{
closed = 1;
nodes = (
(177,637,o),
(175,650,o),
(154,650,cs),
(132,650,o),
(127,639,o),
(124,623,cs),
(19,27,ls),
(16,12,o),
(24,0,o),
(42,0,cs),
(64,0,o),
(68,15,o),
(70,25,cs),
(174,619,ls)
);
}
);
width = 463;
},
{
layerId = m002;
shapes = (
{
closed = 1;
nodes = (
(161,0,ls),
(354,0,o),
(489,129,o),
(528,351,cs),
(558,523,o),
(430,650,o),
(238,650,cs),
(188,650,l),
(180,562,l),
(243,562,ls),
(381,562,o),
(453,473,o),
(431,350,cs),
(400,177,o),
(304,89,o),
(161,89,cs),
(101,89,l),
(83,0,l)
);
},
{
closed = 1;
nodes = (
(244,641,o),
(217,650,o),
(189,650,cs),
(157,650,o),
(142,636,o),
(137,609,cs),
(38,49,ls),
(33,21,o),
(53,0,o),
(85,0,cs),
(112,0,o),
(133,15,o),
(138,41,cs),
(237,600,ls)
);
}
);
width = 547;
}
);
metricLeft = N;
metricRight = O;
unicode = 68;
},
{
glyphname = E;
lastChange = "2022-03-01 16:50:27 +0000";
layers = (
{
layerId = m01;
shapes = (
{
closed = 1;
nodes = (
(132,637,o),
(130,650,o),
(109,650,cs),
(87,650,o),
(82,639,o),
(79,623,c),
(-26,27,l),
(-29,12,o),
(-21,0,o),
(-3,0,cs),
(19,0,o),
(23,15,o),
(25,25,c),
(129,619,l)
);
},
{
closed = 1;
nodes = (
(334,0,ls),
(354,0,o),
(360,14,o),
(360,26,cs),
(360,38,o),
(354,50,o),
(334,50,cs),
(6,50,l),
(-2,0,l)
);
},
{
closed = 1;
nodes = (
(368,328,ls),
(388,328,o),
(394,338,o),
(394,350,cs),
(394,362,o),
(388,373,o),
(368,373,cs),
(64,373,l),
(56,328,l)
);
},
{
closed = 1;
nodes = (
(440,600,ls),
(460,600,o),
(466,613,o),
(466,625,cs),
(466,637,o),
(460,650,o),
(440,650,cs),
(113,650,l),
(104,600,l)
);
}
);
width = 387;
},
{
layerId = m002;
shapes = (
{
closed = 1;
nodes = (
(184,638,o),
(158,650,o),
(130,650,cs),
(99,650,o),
(82,639,o),
(77,611,cs),
(-22,50,ls),
(-27,22,o),
(-15,0,o),
(15,0,cs),
(47,0,o),
(75,18,o),
(79,40,cs),
(177,597,ls)
);
},
{
closed = 1;
nodes = (
(363,0,ls),
(393,0,o),
(413,16,o),
(413,42,cs),
(413,66,o),
(397,80,o),
(365,80,cs),
(36,80,l),
(22,0,l)
);
},
{
closed = 1;
nodes = (
(386,290,ls),
(418,290,o),
(440,309,o),
(440,333,cs),
(440,359,o),
(421,375,o),
(391,375,cs),
(90,375,l),
(74,290,l)
);
},
{
closed = 1;
nodes = (
(461,555,ls),
(491,555,o),
(512,580,o),
(512,606,cs),
(512,631,o),
(494,650,o),
(463,650,cs),
(137,650,l),
(121,555,l)
);
}
);
width = 437;
}
);
unicode = 69;
},
{
glyphname = F;
lastChange = "2022-03-01 16:52:39 +0000";
layers = (
{
layerId = m01;
shapes = (
{
closed = 1;
nodes = (
(177,637,o),
(175,650,o),
(154,650,cs),
(132,650,o),
(127,639,o),
(124,623,cs),
(19,27,ls),
(16,12,o),
(24,0,o),
(42,0,cs),
(64,0,o),
(68,15,o),
(70,25,cs),
(174,619,ls)
);
},
{
closed = 1;
nodes = (
(404,328,ls),
(424,328,o),
(430,338,o),
(430,350,cs),
(430,362,o),
(424,373,o),
(404,373,cs),
(108,373,l),
(101,328,l)
);
},
{
closed = 1;
nodes = (
(485,600,ls),
(505,600,o),
(511,613,o),
(511,625,cs),
(511,637,o),
(505,650,o),
(485,650,cs),
(155,650,l),
(148,600,l)
);
}
);
width = 477;
},
{
layerId = m002;
shapes = (
{
closed = 1;
nodes = (
(242,638,o),
(216,650,o),
(188,650,cs),
(157,650,o),
(142,638,o),
(137,610,cs),
(39,54,ls),
(34,27,o),
(46,0,o),
(74,0,cs),
(115,0,o),
(134,21,o),
(139,51,cs),
(235,597,ls)
);
},
{
closed = 1;
nodes = (
(445,290,ls),
(477,290,o),
(494,309,o),
(494,333,cs),
(494,359,o),
(476,375,o),
(446,375,cs),
(140,375,l),
(125,290,l)
);
},
{
closed = 1;
nodes = (
(518,555,ls),
(548,555,o),
(572,575,o),
(572,604,cs),
(572,632,o),
(554,650,o),
(523,650,cs),
(191,650,l),
(172,555,l)
);
}
);
width = 556;
}
);
metricLeft = N;
metricRight = N;
unicode = 70;
},
{
glyphname = G;
lastChange = "2022-02-27 14:33:11 +0000";
layers = (
{
layerId = m01;
shapes = (
{
closed = 1;
nodes = (
(414,350,o),
(410,343,o),
(352,255,cs),
(315,199,o),
(212,46,o),
(157,46,cs),
(107,46,o),
(98,89,o),
(98,135,cs),
(98,200,o),
(118,310,o),
(128,364,cs),
(145,457,o),
(187,600,o),
(375,600,cs),
(417,600,o),
(441,581,o),
(448,544,cs),
(451,531,o),
(470,528,o),
(482,531,cs),
(497,535,o),
(497,549,o),
(495,559,cs),
(485,617,o),
(435,650,o),
(372,650,cs),
(151,650,o),
(97,483,o),
(72,338,cs),
(69,318,o),
(48,203,o),
(48,140,cs),
(48,70,o),
(73,-4,o),
(154,-4,cs),
(234,-4,o),
(333,134,o),
(425,275,c),
(438,350,l)
);
},
{
closed = 1;
nodes = (
(459,340,o),
(454,350,o),
(437,350,cs),
(417,350,o),
(408,342,o),
(405,323,cs),
(353,27,ls),
(351,15,o),
(354,1,o),
(374,0,cs),
(397,-1,o),
(402,16,o),
(404,27,cs),
(456,323,ls)
);
}
);
width = 475;
},
{
layerId = m002;
shapes = (
{
closed = 1;
nodes = (
(424,370,o),
(418,361,o),
(360,271,cs),
(325,217,o),
(238,85,o),
(199,85,cs),
(171,85,o),
(165,114,o),
(165,155,cs),
(165,214,o),
(183,304,o),
(192,354,cs),
(208,445,o),
(231,550,o),
(396,550,cs),
(419,550,o),
(440,536,o),
(443,519,cs),
(449,487,o),
(485,480,o),
(509,486,cs),
(537,494,o),
(545,521,o),
(540,546,cs),
(527,617,o),
(464,650,o),
(396,650,cs),
(161,650,o),
(115,487,o),
(89,341,cs),
(85,321,o),
(67,212,o),
(67,151,cs),
(67,79,o),
(91,-4,o),
(187,-4,cs),
(282,-4,o),
(381,153,o),
(452,265,c),
(462,370,l)
);
},
{
closed = 1;
nodes = (
(508,351,o),
(492,370,o),
(461,370,cs),
(422,370,o),
(409,343,o),
(406,327,cs),
(357,49,ls),
(352,18,o),
(372,0,o),
(406,0,cs),
(441,0,o),
(450,18,o),
(454,42,cs),
(503,320,ls)
);
}
);
width = 538;
}
);
metricLeft = O;
metricRight = N;
unicode = 71;
},
{
glyphname = H;
lastChange = "2022-03-01 16:55:38 +0000";
layers = (
{
layerId = m01;
shapes = (
{
closed = 1;
nodes = (
(177,637,o),
(171,650,o),
(154,650,cs),
(135,650,o),
(127,639,o),
(124,623,cs),
(19,27,ls),
(16,12,o),
(24,0,o),
(42,0,cs),
(64,0,o),
(68,15,o),
(70,25,cs),
(174,619,ls)
);
},
{
closed = 1;
nodes = (
(420,328,l),
(428,373,l),
(119,373,l),
(111,328,l)
);
},
{
closed = 1;
nodes = (
(513,638,o),
(507,650,o),
(487,650,cs),
(469,650,o),
(462,638,o),
(460,628,cs),
(355,27,ls),
(353,15,o),
(355,0,o),
(378,0,cs),
(397,0,o),
(403,13,o),
(405,22,cs),
(510,621,ls)
);
}
);
width = 477;
},
{
layerId = m002;
shapes = (
{
closed = 1;
nodes = (
(242,632,o),
(224,650,o),
(195,650,cs),
(168,650,o),
(142,637,o),
(137,609,cs),
(39,49,ls),
(34,21,o),
(54,0,o),
(86,0,cs),
(120,0,o),
(136,20,o),
(139,40,cs),
(236,597,ls)
);
},
{
closed = 1;
nodes = (
(436,292,l),
(450,372,l),
(176,372,l),
(162,292,l)
);
},
{
closed = 1;
nodes = (
(577,631,o),
(556,650,o),
(525,650,cs),
(497,650,o),
(476,635,o),
(472,613,cs),
(374,49,ls),
(369,20,o),
(386,0,o),
(419,0,cs),
(448,0,o),
(469,17,o),
(473,37,cs),
(571,599,ls)
);
}
);
width = 556;
}
);
metricLeft = N;
metricRight = N;
unicode = 72;
},
{
glyphname = I;
lastChange = "2022-02-27 14:51:15 +0000";
layers = (
{
layerId = m01;
shapes = (
{
closed = 1;
nodes = (
(177,637,o),
(174,650,o),
(154,650,cs),
(134,650,o),
(127,639,o),
(124,623,cs),
(19,27,ls),
(16,12,o),
(24,0,o),
(42,0,cs),
(64,0,o),
(67,15,o),
(69,25,cs),
(174,619,ls)
);
}
);
width = 141;
},
{
layerId = m002;
shapes = (
{
closed = 1;
nodes = (
(241,639,o),
(217,650,o),
(192,650,cs),
(163,650,o),
(142,637,o),
(137,609,cs),
(38,49,ls),
(33,21,o),
(48,0,o),
(78,0,cs),
(112,0,o),
(131,18,o),
(135,39,cs),
(234,597,ls)
);
}
);
width = 219;
}
);
metricLeft = N;
metricRight = N;
unicode = 73;
},
{
glyphname = J;
lastChange = "2022-03-01 16:56:46 +0000";
layers = (
{
layerId = m01;
shapes = (
{
closed = 1;
nodes = (
(285,205,ls),
(277,157,o),
(265,105,o),
(233,76,cs),
(214,57,o),
(184,50,o),
(150,50,cs),
(124,50,o),
(101,64,o),
(84,88,cs),
(72,105,o),
(52,113,o),
(40,103,cs),
(24,90,o),
(28,77,o),
(46,55,cs),
(69,26,o),
(103,0,o),
(150,0,cs),
(201,0,o),
(238,13,o),
(265,37,cs),
(304,72,o),
(323,131,o),
(336,205,cs),
(409,623,ls),
(412,641,o),
(409,654,o),
(389,654,cs),
(369,654,o),
(362,643,o),
(359,627,cs)
);
}
);
width = 376;
},
{
layerId = m002;
shapes = (
{
closed = 1;
nodes = (
(316,276,ls),
(305,213,o),
(302,152,o),
(271,122,cs),
(252,103,o),
(220,94,o),
(199,94,cs),
(163,94,o),
(139,118,o),
(130,127,cs),
(111,146,o),
(74,147,o),
(54,119,cs),
(43,105,o),
(45,78,o),
(58,63,cs),
(75,44,o),
(111,-4,o),
(201,-4,cs),
(256,-4,o),
(307,20,o),
(346,59,cs),
(394,107,o),
(399,184,o),
(414,268,cs),
(472,597,ls),
(479,639,o),
(455,650,o),
(430,650,cs),
(401,650,o),
(380,637,o),
(375,609,cs)
);
}
);
width = 457;
}
);
metricLeft = N;
metricRight = N;
unicode = 74;
},
{
glyphname = K;
lastChange = "2022-03-01 16:58:39 +0000";
layers = (
{
layerId = m01;
shapes = (
{
closed = 1;
nodes = (
(493,599,ls),
(505,609,o),
(510,619,o),
(512,628,cs),
(513,640,o),
(505,650,o),
(492,650,cs),
(484,651,o),
(473,647,o),
(461,637,cs),
(124,360,l),
(124,348,l),
(182,343,l)
);
},
{
closed = 1;
nodes = (
(124,356,l),
(124,345,l),
(351,19,ls),
(358,9,o),
(368,0,o),
(381,0,cs),
(391,0,o),
(401,6,o),
(404,17,cs),
(406,24,o),
(405,32,o),
(398,42,cs),
(182,354,l)
);
},
{
closed = 1;
nodes = (
(178,637,o),
(174,650,o),
(155,650,cs),
(135,650,o),
(128,639,o),
(125,623,cs),
(20,32,ls),
(17,17,o),
(25,0,o),
(43,0,cs),
(64,0,o),
(69,18,o),
(71,31,cs),
(175,619,ls)
);
}
);
width = 477;
},
{
layerId = m002;
shapes = (
{
closed = 1;
nodes = (
(546,560,ls),
(560,572,o),
(570,587,o),
(572,602,cs),
(575,625,o),
(557,650,o),
(528,650,cs),
(512,650,o),
(492,644,o),
(476,631,cs),
(155,368,l),
(155,326,l),
(250,318,l)
);
},
{
closed = 1;
nodes = (
(155,382,l),
(155,338,l),
(373,25,ls),
(384,9,o),
(402,0,o),
(421,0,cs),
(441,0,o),
(464,10,o),
(468,31,cs),
(471,44,o),
(470,60,o),
(460,74,cs),
(255,368,l)
);
},
{
closed = 1;
nodes = (
(244,636,o),
(217,650,o),
(193,650,cs),
(167,650,o),
(143,637,o),
(138,609,cs),
(39,54,ls),
(34,24,o),
(55,0,o),
(87,0,cs),
(118,0,o),
(134,19,o),
(139,45,cs),
(237,597,ls)
);
}
);
width = 556;
}
);
metricLeft = N;
metricRight = N;
unicode = 75;
},
{
glyphname = L;
lastChange = "2022-03-01 16:59:46 +0000";
layers = (
{
layerId = m01;
shapes = (
{
closed = 1;
nodes = (
(177,637,o),
(174,650,o),
(154,650,cs),
(134,650,o),
(127,639,o),
(124,623,cs),
(19,27,ls),
(16,12,o),
(24,0,o),
(42,0,cs),
(64,0,o),
(67,15,o),
(69,25,cs),
(174,619,ls)
);
},
{
closed = 1;
nodes = (
(379,0,ls),
(397,0,o),
(405,14,o),
(405,26,cs),
(405,38,o),
(397,50,o),
(379,50,cs),
(47,50,l),
(47,0,l)
);
}
);
width = 477;
},
{
layerId = m002;
shapes = (
{
closed = 1;
nodes = (
(241,639,o),
(217,650,o),
(192,650,cs),
(163,650,o),
(142,637,o),
(137,609,cs),
(38,49,ls),
(33,21,o),
(48,0,o),
(78,0,cs),
(112,0,o),
(131,18,o),
(135,39,cs),
(234,597,ls)
);
},
{
closed = 1;
nodes = (
(424,0,ls),
(454,0,o),
(474,22,o),
(474,46,cs),
(474,70,o),
(454,91,o),
(424,91,cs),
(95,91,l),
(79,0,l)
);
}
);
width = 556;
}
);
metricLeft = N;
metricRight = N;
unicode = 76;
},
{
glyphname = M;
lastChange = "2022-02-27 15:20:00 +0000";
layers = (
{
layerId = m01;
shapes = (
{
closed = 1;
nodes = (
(186,630,ls),
(183,639,o),
(174,650,o),
(153,650,c),
(146,589,l),
(310,18,ls),
(313,8,o),
(323,0,o),
(337,0,c),
(348,67,l)
);
},
{
closed = 1;
nodes = (
(154,650,l),
(132,650,o),
(127,639,o),
(124,623,cs),
(19,27,ls),
(16,12,o),
(24,0,o),
(42,0,cs),
(64,0,o),
(68,16,o),
(70,28,cs),
(173,612,l)
);
},
{
closed = 1;
nodes = (
(652,0,o),
(656,15,o),
(658,25,cs),
(762,619,ls),
(765,637,o),
(762,650,o),
(743,650,c),
(703,569,l),
(607,27,ls),
(605,15,o),
(611,0,o),
(630,0,c)
);
},
{
closed = 1;
nodes = (
(336,0,l),
(350,0,o),
(356,8,o),
(363,18,cs),
(735,573,l),
(742,650,l),
(724,650,o),
(722,643,o),
(716,634,cs),
(333,62,l)
);
}
);
width = 729;
},
{
layerId = m002;
shapes = (
{
closed = 1;
nodes = (
(246,620,ls),
(240,641,o),
(214,650,o),
(188,650,c),
(181,491,l),
(317,35,ls),
(324,13,o),
(352,0,o),
(388,0,c),
(400,100,l)
);
},
{
closed = 1;
nodes = (
(191,650,l),
(159,650,o),
(142,636,o),
(137,609,cs),
(39,49,ls),
(34,21,o),
(53,0,o),
(82,0,cs),
(115,0,o),
(135,19,o),
(139,42,cs),
(219,498,l)
);
},
{
closed = 1;
nodes = (
(715,0,o),
(725,19,o),
(729,40,cs),
(826,597,ls),
(832,629,o),
(816,650,o),
(783,650,c),
(702,464,l),
(628,45,ls),
(623,19,o),
(651,0,o),
(681,0,c)
);
},
{
closed = 1;
nodes = (
(382,0,l),
(418,0,o),
(442,13,o),
(456,35,cs),
(735,462,l),
(785,650,l),
(749,650,o),
(735,641,o),
(721,620,cs),
(382,103,l)
);
}
);
width = 812;
}
);
metricLeft = N;
metricRight = N;
unicode = 77;
},
{
glyphname = N;
lastChange = "2022-02-27 11:52:55 +0000";
layers = (
{
layerId = m01;
shapes = (
{
closed = 1;
nodes = (
(184,630,ls),
(180,639,o),
(171,650,o),
(153,650,c),
(146,589,l),
(421,18,ls),
(426,8,o),
(434,0,o),
(448,0,c),
(454,67,l)
);
},
{
closed = 1;
nodes = (
(154,650,l),
(132,650,o),
(127,639,o),
(124,623,cs),
(19,27,ls),
(16,12,o),
(24,0,o),
(42,0,cs),
(64,0,o),
(68,16,o),
(70,28,cs),
(173,612,l)
);
},
{
closed = 1;
nodes = (
(469,0,o),
(471,15,o),
(473,25,cs),
(577,619,ls),
(580,637,o),
(577,650,o),
(558,650,cs),
(538,650,o),
(531,639,o),
(528,623,cs),
(426,48,l),
(447,0,l)
);
}
);
width = 544;
},
{
layerId = m002;
shapes = (
{
closed = 1;
nodes = (
(241,620,ls),
(231,641,o),
(214,650,o),
(188,650,c),
(158,569,l),
(420,28,ls),
(429,10,o),
(443,0,o),
(469,0,c),
(480,126,l)
);
},
{
closed = 1;
nodes = (
(191,650,l),
(159,650,o),
(142,636,o),
(137,609,cs),
(39,49,ls),
(34,21,o),
(53,0,o),
(82,0,cs),
(115,0,o),
(135,19,o),
(139,42,cs),
(236,592,l)
);
},
{
closed = 1;
nodes = (
(502,0,o),
(512,19,o),
(516,40,cs),
(613,597,ls),
(619,629,o),
(603,653,o),
(570,653,cs),
(542,653,o),
(519,637,o),
(514,609,cs),
(426,105,l),
(468,0,l)
);
}
);
width = 599;
}
);
unicode = 78;
},
{
glyphname = O;
lastChange = "2022-03-01 18:37:36 +0000";
layers = (
{
layerId = m01;
shapes = (
{
closed = 1;
nodes = (
(322,-4,o),
(442,250,o),
(476,438,cs),
(496,551,o),
(440,650,o),
(312,650,cs),
(189,650,o),
(130,557,o),
(88,409,cs),
(77,369,o),
(68,322,o),
(64,278,cs),
(52,143,o),
(74,-4,o),
(161,-4,cs)
);
},
{
closed = 1;
nodes = (
(113,46,o),
(106,178,o),
(113,268,cs),
(117,310,o),
(125,355,o),
(134,388,cs),
(172,526,o),
(218,600,o),
(305,600,cs),
(426,600,o),
(439,518,o),
(424,432,cs),
(396,270,o),
(281,46,o),
(160,46,cs)
);
}
);
width = 461;
},
{
layerId = m002;
shapes = (
{
closed = 1;
nodes = (
(368,-4,o),
(510,242,o),
(542,429,cs),
(562,548,o),
(481,652,o),
(353,652,cs),
(225,652,o),
(147,555,o),
(105,410,cs),
(94,370,o),
(85,325,o),
(82,283,cs),
(70,150,o),
(78,-4,o),
(198,-4,cs)
);
},
{
closed = 1;
nodes = (
(172,86,o),
(174,187,o),
(181,269,cs),
(184,308,o),
(192,348,o),
(200,378,cs),
(235,505,o),
(271,562,o),
(348,562,cs),
(452,562,o),
(450,484,o),
(440,427,cs),
(414,281,o),
(291,86,o),
(214,86,cs)
);
}
);
width = 547;
}
);
unicode = 79;
},
{
glyphname = P;
lastChange = "2022-03-01 17:27:28 +0000";
layers = (
{
layerId = m01;
shapes = (
{
closed = 1;
nodes = (
(285,300,o),
(440,321,o),
(467,476,cs),
(488,597,o),
(354,650,o),
(158,650,c),
(158,600,l),
(339,600,o),
(431,561,o),
(417,481,cs),
(397,367,o),
(264,350,o),
(120,350,c),
(113,300,l)
);
},
{
closed = 1;
nodes = (
(177,637,o),
(175,650,o),
(154,650,cs),
(132,650,o),
(127,639,o),
(124,623,cs),
(19,27,ls),
(16,12,o),
(24,-4,o),
(42,-4,cs),
(64,-4,o),
(68,15,o),
(70,25,cs),
(174,619,ls)
);
}
);
width = 445;
},
{
layerId = m002;
shapes = (
{
closed = 1;
nodes = (
(290,283,o),
(478,289,o),
(510,467,cs),
(534,602,o),
(397,656,o),
(186,652,c),
(186,561,l),
(368,564,o),
(424,535,o),
(413,472,cs),
(397,382,o),
(263,359,o),
(170,358,c),
(156,282,l)
);
},
{
closed = 1;
nodes = (
(241,639,o),
(215,652,o),
(190,652,cs),
(160,652,o),
(142,637,o),
(137,609,cs),
(38,48,ls),
(33,21,o),
(52,-6,o),
(85,-6,cs),
(119,-6,o),
(132,17,o),
(136,39,cs),
(234,597,ls)
);
}
);
width = 509;
}
);
metricLeft = N;
metricRight = O;
unicode = 80;
},
{
glyphname = Q;
lastChange = "2022-03-01 17:16:11 +0000";
layers = (
{
layerId = m01;
shapes = (
{
closed = 1;
nodes = (
(201,130,o),
(182,133,o),
(170,119,cs),
(161,109,o),
(165,97,o),
(178,83,cs),
(307,-48,ls),
(320,-61,o),
(337,-67,o),
(348,-57,cs),
(360,-48,o),
(357,-29,o),
(347,-18,cs),
(213,118,ls)
);
},
{
closed = 1;
nodes = (
(322,-4,o),
(442,250,o),
(476,438,cs),
(496,551,o),
(440,650,o),
(312,650,cs),
(189,650,o),
(130,557,o),
(88,409,cs),
(77,369,o),
(68,322,o),
(64,278,cs),
(52,143,o),
(74,-4,o),
(161,-4,cs)
);
},
{
closed = 1;
nodes = (
(113,46,o),
(106,178,o),
(113,268,cs),
(117,310,o),
(125,355,o),
(134,388,cs),
(172,526,o),
(218,600,o),
(305,600,cs),
(426,600,o),
(439,518,o),
(424,432,cs),
(396,270,o),
(281,46,o),
(160,46,cs)
);
}
);
width = 461;
},
{
layerId = m002;
shapes = (
{
closed = 1;
nodes = (
(278,180,o),
(243,179,o),
(228,161,cs),
(212,143,o),
(210,118,o),
(233,94,cs),
(354,-30,ls),
(376,-52,o),
(409,-54,o),
(428,-38,cs),
(451,-20,o),
(448,9,o),
(428,30,cs),
(304,158,l)
);
},
{
closed = 1;
nodes = (
(368,-4,o),
(510,242,o),
(542,429,cs),
(562,548,o),
(481,652,o),
(353,652,cs),
(225,652,o),
(147,555,o),
(105,410,cs),
(94,370,o),
(85,325,o),
(82,283,cs),
(70,150,o),
(78,-4,o),
(198,-4,cs)
);
},
{
closed = 1;
nodes = (
(172,86,o),
(174,187,o),
(181,269,cs),
(184,308,o),
(192,348,o),
(200,378,cs),
(235,505,o),
(271,562,o),
(348,562,cs),
(452,562,o),
(450,484,o),
(440,427,cs),
(414,281,o),
(291,86,o),
(214,86,cs)
);
}
);
width = 547;
}
);
metricLeft = O;
metricRight = O;
unicode = 81;
},
{
glyphname = R;
lastChange = "2022-03-01 18:37:43 +0000";
layers = (
{
layerId = m01;
shapes = (
{
closed = 1;
nodes = (
(295,303,o),
(458,321,o),
(485,476,cs),
(506,597,o),
(375,650,o),
(158,650,c),
(158,600,l),
(351,600,o),
(449,560,o),
(435,481,cs),
(415,368,o),
(273,350,o),
(112,350,c),
(105,303,l)
);
},
{
closed = 1;
nodes = (
(105,319,l),
(354,19,ls),
(364,6,o),
(372,0,o),
(380,0,cs),
(390,0,o),
(400,7,o),
(403,15,cs),
(406,23,o),
(406,34,o),
(400,42,cs),
(170,319,l)
);
},
{
closed = 1;
nodes = (
(177,637,o),
(175,650,o),
(154,650,cs),
(132,650,o),
(127,639,o),
(124,623,cs),
(20,33,ls),
(17,16,o),
(24,0,o),
(42,0,cs),
(64,0,o),
(67,16,o),
(70,31,cs),
(174,619,ls)
);
}
);
width = 463;
},
{
layerId = m002;
shapes = (
{
closed = 1;
nodes = (
(327,274,o),
(516,289,o),
(548,467,cs),
(572,602,o),
(435,650,o),
(188,650,c),
(188,559,l),
(404,562,o),
(462,533,o),
(451,470,cs),
(436,382,o),
(303,359,o),
(176,359,c),
(161,274,l)
);
},
{
closed = 1;
nodes = (
(165,285,l),
(381,23,ls),
(398,3,o),
(413,0,o),
(426,0,cs),
(445,0,o),
(466,11,o),
(471,29,cs),
(475,42,o),
(477,57,o),
(467,69,cs),
(286,289,l)
);
},
{
closed = 1;
nodes = (
(243,638,o),
(220,650,o),
(192,650,cs),
(161,650,o),
(142,637,o),
(137,609,cs),
(39,54,ls),
(34,24,o),
(46,0,o),
(78,0,cs),
(117,0,o),
(135,23,o),
(140,53,cs),
(236,597,ls)
);
}
);
width = 547;
}
);
metricLeft = N;
metricRight = O;
unicode = 82;
},
{
glyphname = S;
lastChange = "2022-03-01 18:37:49 +0000";
layers = (
{
layerId = m01;
shapes = (
{
closed = 1;
nodes = (
(116,50,o),
(85,66,o),
(78,103,cs),
(75,116,o),
(56,119,o),
(44,116,cs),
(29,112,o),
(29,98,o),
(31,88,cs),
(41,30,o),
(95,0,o),
(161,0,cs),
(305,0,o),
(407,50,o),
(429,172,cs),
(444,258,o),
(363,318,o),
(292,368,cs),
(218,419,o),
(145,452,o),
(153,497,cs),
(163,555,o),
(261,600,o),
(337,600,cs),
(426,600,o),
(442,584,o),
(448,547,cs),
(450,534,o),
(470,531,o),
(482,534,cs),
(497,538,o),
(497,552,o),
(495,562,cs),
(483,626,o),
(443,650,o),
(338,650,cs),
(210,650,o),
(116,576,o),
(104,505,cs),
(90,422,o),
(180,385,o),
(251,334,cs),
(330,278,o),
(389,236,o),
(379,177,cs),
(364,88,o),
(280,50,o),
(161,50,cs)
);
}
);
width = 461;
},
{
layerId = m002;
shapes = (
{
closed = 1;
nodes = (
(179,94,o),
(147,103,o),
(143,124,cs),
(137,153,o),
(103,160,o),
(82,154,cs),
(56,148,o),
(46,126,o),
(51,102,cs),
(63,34,o),
(123,0,o),
(197,0,cs),
(334,0,o),
(475,51,o),
(497,174,cs),
(516,285,o),
(405,341,o),
(343,385,cs),
(292,421,o),
(213,456,o),
(213,484,cs),
(213,522,o),
(293,556,o),
(371,556,cs),
(441,556,o),
(461,549,o),
(465,526,cs),
(470,496,o),
(507,489,o),
(529,495,cs),
(554,503,o),
(563,524,o),
(559,548,cs),
(545,621,o),
(492,650,o),
(386,650,cs),
(229,650,o),
(116,573,o),
(116,480,cs),
(116,392,o),
(222,352,o),
(276,313,cs),
(340,266,o),
(409,227,o),
(402,184,cs),
(392,122,o),
(312,94,o),
(241,94,cs)
);
}
);
width = 547;
}
);
metricLeft = O;
metricRight = O;
unicode = 83;
},
{
glyphname = T;
lastChange = "2022-03-01 18:37:53 +0000";
layers = (
{
layerId = m01;
shapes = (
{
closed = 1;
nodes = (
(290,611,l),
(187,27,ls),
(184,12,o),
(192,0,o),
(210,0,cs),
(232,0,o),
(236,18,o),
(238,28,cs),
(341,611,l)
);
},
{
closed = 1;
nodes = (
(505,600,o),
(511,613,o),
(511,625,cs),
(511,637,o),
(505,650,o),
(485,650,cs),
(151,650,ls),
(131,650,o),
(125,637,o),
(125,625,cs),
(125,613,o),
(131,600,o),
(151,600,cs),
(485,600,ls)
);
}
);
width = 477;
},
{
layerId = m002;
shapes = (
{
closed = 1;
nodes = (
(299,576,l),
(206,49,ls),
(201,21,o),
(221,-2,o),
(252,-2,cs),
(285,-2,o),
(299,22,o),
(303,43,cs),
(397,576,l)
);
},
{
closed = 1;
nodes = (
(554,563,o),
(572,583,o),
(572,607,cs),
(572,633,o),
(552,653,o),
(522,653,cs),
(187,653,ls),
(157,653,o),
(137,633,o),
(137,607,cs),
(137,583,o),
(155,563,o),
(187,563,cs),
(522,563,ls)
);
}
);
width = 556;
}
);
metricLeft = N;
metricRight = N;
unicode = 84;
},
{
glyphname = U;
lastChange = "2022-03-01 18:37:57 +0000";
layers = (
{
layerId = m01;
shapes = (
{
closed = 1;
nodes = (
(463,520,l),
(453,520,l),
(450,509,l),
(435,467,o),
(378,351,o),
(362,320,cs),
(294,192,o),
(169,45,o),
(119,45,cs),
(72,45,o),
(84,116,o),
(96,180,cs),
(176,622,ls),
(179,636,o),
(170,649,o),
(155,650,cs),
(139,650,o),
(128,636,o),
(125,620,cs),
(46,183,ls),
(22,52,o),
(54,-4,o),
(113,-4,cs),
(190,-4,o),
(307,118,o),
(396,283,c),
(422,327,l)
);
},
{
closed = 1;
nodes = (
(514,639,o),
(507,650,o),
(487,650,cs),
(469,650,o),
(463,638,o),
(461,626,cs),
(355,27,ls),
(352,8,o),
(364,-1,o),
(378,-1,cs),
(390,-1,o),
(402,7,o),
(405,22,cs),
(511,624,ls)
);
}
);
width = 477;
},
{
layerId = m002;
shapes = (
{
closed = 1;
nodes = (
(483,543,l),
(464,543,l),
(456,510,ls),
(435,423,o),
(400,364,o),
(382,337,cs),
(334,265,o),
(217,86,o),
(170,86,cs),
(151,86,o),
(153,125,o),
(164,185,cs),
(238,600,ls),
(243,629,o),
(222,650,o),
(193,650,cs),
(161,651,o),
(141,624,o),
(138,606,cs),
(64,195,ls),
(39,57,o),
(81,-4,o),
(154,-4,cs),
(239,-4,o),
(327,76,o),
(421,215,c),
(449,385,l)
);
},
{
closed = 1;
nodes = (
(577,630,o),
(559,650,o),
(525,650,cs),
(497,650,o),
(476,635,o),
(472,612,cs),
(374,49,ls),
(368,16,o),
(392,0,o),
(420,0,cs),
(443,0,o),
(469,12,o),
(473,37,cs),
(572,602,ls)
);
}
);
width = 556;
}
);
metricLeft = N;
metricRight = N;
unicode = 85;
},
{
glyphname = V;
lastChange = "2022-03-01 18:38:01 +0000";
layers = (
{
layerId = m01;
shapes = (
{
closed = 1;
nodes = (
(220,0,o),
(224,11,o),
(231,25,cs),
(509,618,ls),
(518,638,o),
(507,650,o),
(492,650,cs),
(473,650,o),
(464,642,o),
(456,625,cs),
(182,39,l),
(201,0,l)
);
},
{
closed = 1;
nodes = (
(175,626,ls),
(174,636,o),
(170,650,o),
(148,650,c),
(130,650,o),
(124,639,o),
(125,624,cs),
(174,28,ls),
(175,15,o),
(183,0,o),
(202,0,c),
(223,37,l)
);
}
);
width = 477;
},
{
layerId = m002;
shapes = (
{
closed = 1;
nodes = (
(266,-2,o),
(279,15,o),
(289,34,cs),
(568,591,ls),
(585,625,o),
(564,650,o),
(532,650,cs),
(503,650,o),
(483,638,o),
(473,618,cs),
(213,98,l),
(237,-2,l)
);
},
{
closed = 1;
nodes = (
(235,610,ls),
(233,633,o),
(216,650,o),
(184,650,cs),
(155,650,o),
(135,634,o),
(138,604,cs),
(188,44,ls),
(190,19,o),
(209,-1,o),
(239,-2,c),
(280,98,l)
);
}
);
width = 556;
}
);
metricLeft = N;
metricRight = N;
unicode = 86;
},
{
glyphname = W;
lastChange = "2022-03-01 18:04:26 +0000";
layers = (
{
layerId = m01;
shapes = (
{
closed = 1;
nodes = (
(558,0,o),
(563,11,o),
(570,25,cs),
(849,618,ls),
(853,627,o),
(854,635,o),
(851,640,cs),
(847,647,o),
(839,650,o),
(832,650,cs),
(824,650,o),
(818,649,o),
(814,646,cs),
(804,640,o),
(800,632,o),
(797,625,cs),
(546,92,l),
(539,0,l)
);
},
{
closed = 1;
nodes = (
(175,626,ls),
(174,636,o),
(170,650,o),
(148,650,c),
(130,650,o),
(124,639,o),
(125,624,cs),
(174,28,ls),
(175,12,o),
(186,0,o),
(201,0,c),
(220,87,l)
);
},
{
closed = 1;
nodes = (
(220,0,o),
(227,15,o),
(232,26,cs),
(485,570,l),
(486,650,l),
(470,650,o),
(459,633,o),
(456,626,cs),
(206,89,l),
(200,0,l)
);
},
{
closed = 1;
nodes = (
(515,626,ls),
(514,636,o),
(510,650,o),
(485,650,c),
(469,575,l),
(514,19,ls),
(514,13,o),
(522,0,o),
(540,0,c),
(559,89,l)
);
}
);
width = 817;
},
{
layerId = m002;
shapes = (
{
closed = 1;
nodes = (
(612,0,o),
(621,12,o),
(632,33,cs),
(911,591,ls),
(918,604,o),
(917,616,o),
(911,628,cs),
(905,644,o),
(887,650,o),
(872,650,cs),
(858,650,o),
(845,646,o),
(837,640,cs),
(827,633,o),
(820,626,o),
(815,616,cs),
(592,171,l),
(581,0,l)
);
},
{
closed = 1;
nodes = (
(235,610,ls),
(233,633,o),
(217,650,o),
(185,650,cs),
(156,650,o),
(135,634,o),
(138,604,cs),
(188,44,ls),
(191,15,o),
(209,0,o),
(243,0,c),
(277,139,l)
);
},
{
closed = 1;
nodes = (
(273,0,o),
(280,14,o),
(290,34,cs),
(515,479,l),
(525,650,l),
(491,650,o),
(482,631,o),
(476,619,cs),
(238,147,l),
(242,0,l)
);
},
{
closed = 1;
nodes = (
(576,610,ls),
(574,635,o),
(559,650,o),
(524,650,c),
(491,483,l),
(533,32,ls),
(535,15,o),
(553,0,o),
(580,0,c),
(618,171,l)
);
}
);
width = 899;
}
);
metricLeft = N;
metricRight = N;
unicode = 87;
},
{
glyphname = X;
lastChange = "2022-03-01 21:31:12 +0000";
layers = (
{
layerId = m01;
shapes = (
{
closed = 1;
nodes = (
(515,624,o),
(513,638,o),
(504,645,cs),
(494,653,o),
(474,652,o),
(463,637,cs),
(24,38,ls),
(15,26,o),
(17,13,o),
(26,6,cs),
(37,-3,o),
(56,-4,o),
(67,11,cs),
(504,609,ls)
);
},
{
closed = 1;
nodes = (
(170,650,o),
(151,654,o),
(139,649,cs),
(127,645,o),
(123,632,o),
(130,614,cs),
(354,20,ls),
(361,1,o),
(379,-3,o),
(392,3,cs),
(402,8,o),
(408,20,o),
(402,35,cs),
(177,631,ls)
);
}
);
width = 477;
},
{
layerId = m002;
shapes = (
{
closed = 1;
nodes = (
(501,602,o),
(496,623,o),
(478,639,cs),
(460,655,o),
(421,656,o),
(402,631,cs),
(-12,69,ls),
(-28,48,o),
(-25,29,o),
(-7,13,cs),
(12,-3,o),
(51,-8,o),
(69,16,cs),
(483,578,ls)
);
},
{
closed = 1;
nodes = (
(168,651,o),
(135,654,o),
(112,647,cs),
(86,637,o),
(77,617,o),
(89,586,cs),
(299,28,ls),
(310,-1,o),
(348,-6,o),
(371,6,cs),
(392,17,o),
(399,36,o),
(390,61,cs),
(179,623,ls)
);
}
);
width = 419;
}
);
metricLeft = N;
metricRight = N;
unicode = 88;
},
{
glyphname = Y;
lastChange = "2022-03-01 18:38:11 +0000";
layers = (
{
layerId = m01;
shapes = (
{
closed = 1;
nodes = (
(276,358,l),
(177,630,ls),
(174,638,o),
(167,645,o),
(160,648,cs),
(155,651,o),
(148,651,o),
(140,648,cs),
(132,645,o),
(127,640,o),
(126,634,cs),
(125,628,o),
(127,621,o),
(130,613,cs),
(241,307,l)
);
},
{
closed = 1;
nodes = (
(515,624,o),
(513,638,o),
(504,645,cs),
(494,653,o),
(474,652,o),
(463,637,cs),
(25,38,ls),
(16,26,o),
(18,13,o),
(27,6,cs),
(38,-3,o),
(56,-4,o),
(67,11,cs),
(504,609,ls)
);
}
);
width = 477;
},
{
layerId = m002;
shapes = (
{
closed = 1;
nodes = (
(315,407,l),
(240,621,ls),
(236,632,o),
(225,642,o),
(212,648,cs),
(203,653,o),
(185,654,o),
(172,649,cs),
(157,643,o),
(146,632,o),
(143,619,cs),
(141,609,o),
(145,599,o),
(149,588,cs),
(246,310,l)
);
},
{
closed = 1;
nodes = (
(559,602,o),
(553,623,o),
(535,639,cs),
(517,655,o),
(479,656,o),
(460,631,cs),
(48,69,ls),
(32,48,o),
(34,29,o),
(52,13,cs),
(71,-3,o),
(111,-8,o),
(129,16,cs),
(541,578,ls)
);
}
);
width = 535;
}
);
metricLeft = N;
metricRight = N;
unicode = 89;
},
{
glyphname = Z;
lastChange = "2022-03-01 18:37:17 +0000";
layers = (
{
layerId = m01;
shapes = (
{
closed = 1;
nodes = (
(512,619,o),
(513,630,o),
(509,638,cs),
(504,645,o),
(493,650,o),
(482,650,cs),
(475,650,o),
(469,644,o),
(464,638,cs),
(24,39,ls),
(19,32,o),
(16,22,o),
(21,13,cs),
(25,6,o),
(35,0,o),
(52,0,cs),
(58,0,o),
(63,7,o),
(66,11,cs),
(504,608,ls)
);
},
{
closed = 1;
nodes = (
(379,0,ls),
(399,0,o),
(405,13,o),
(405,25,cs),
(405,37,o),
(399,50,o),
(379,50,cs),
(86,50,l),
(45,0,l)
);
},
{
closed = 1;
nodes = (
(486,650,l),
(151,650,ls),
(131,650,o),
(125,637,o),
(125,625,cs),
(125,613,o),
(131,600,o),
(151,600,cs),
(443,600,l)
);
}
);
width = 477;
},
{
layerId = m002;
shapes = (
{
closed = 1;
nodes = (
(558,595,o),
(561,614,o),
(553,629,cs),
(545,644,o),
(528,653,o),
(504,653,cs),
(490,653,o),
(474,644,o),
(466,633,cs),
(48,70,ls),
(38,57,o),
(33,39,o),
(41,23,cs),
(47,11,o),
(65,0,o),
(94,0,cs),
(110,0,o),
(125,10,o),
(130,17,cs),
(544,577,ls)
);
},
{
closed = 1;
nodes = (
(406,0,ls),
(438,0,o),
(456,19,o),
(456,43,cs),
(456,69,o),
(436,90,o),
(406,90,cs),
(170,90,l),
(91,0,l)
);
},
{
closed = 1;
nodes = (
(506,653,l),
(188,653,ls),
(158,653,o),
(138,633,o),
(138,607,cs),
(138,583,o),
(156,563,o),
(188,563,cs),
(426,563,l)
);
}
);
width = 540;
}
);
metricLeft = N;
metricRight = N;
unicode = 90;
},
{
glyphname = a;
lastChange = "2022-03-01 21:13:55 +0000";
layers = (
{
layerId = m01;
shapes = (
{
closed = 1;
nodes = (
(310,301,l),
(282,254,o),
(249,205,o),
(208,153,cs),
(147,77,o),
(110,47,o),
(91,47,cs),
(77,47,o),
(77,62,o),
(77,78,cs),
(77,116,o),
(96,206,o),
(121,245,cs),
(150,291,o),
(202,300,o),
(236,300,cs),
(243,300,o),
(311,300,o),
(330,300,c),
(330,350,l),
(318,350,o),
(256,350,o),
(236,350,cs),
(179,350,o),
(120,333,o),
(82,276,cs),
(50,228,o),
(27,131,o),
(27,73,cs),
(27,22,o),
(47,-4,o),
(80,-4,cs),
(138,-4,o),
(190,50,o),
(250,126,cs),
(280,163,o),
(336,236,o),
(352,291,cs),
(355,301,l)
);
},
{
closed = 1;
nodes = (
(378,329,o),
(378,337,o),
(375,342,cs),
(372,347,o),
(368,350,o),
(361,350,cs),
(315,350,l),
(315,261,l),
(273,23,ls),
(272,15,o),
(273,0,o),
(295,0,cs),
(321,0,o),
(323,18,o),
(324,23,cs),
(376,316,ls)
);
}
);
width = 395;
},
{
layerId = m002;
shapes = (
{
closed = 1;
nodes = (
(308,308,l),
(282,262,o),
(255,215,o),
(217,167,cs),
(164,101,o),
(138,84,o),
(133,84,cs),
(128,84,o),
(127,97,o),
(127,102,cs),
(127,134,o),
(142,194,o),
(161,224,cs),
(183,257,o),
(216,263,o),
(242,263,cs),
(252,263,o),
(289,263,o),
(328,263,c),
(328,350,l),
(297,350,o),
(259,350,o),
(242,350,cs),
(186,350,o),
(124,333,o),
(85,276,cs),
(54,228,o),
(33,139,o),
(33,85,cs),
(33,22,o),
(51,-4,o),
(90,-4,cs),
(154,-4,o),
(220,51,o),
(274,118,cs),
(301,152,o),
(362,257,o),
(368,272,c),
(376,308,l)
);
},
{
closed = 1;
nodes = (
(388,310,o),
(387,320,o),
(384,329,cs),
(378,342,o),
(363,350,o),
(347,350,cs),
(282,350,l),
(282,252,l),
(245,44,ls),
(241,21,o),
(257,0,o),
(289,0,cs),
(325,0,o),
(337,22,o),
(340,37,cs),
(385,295,ls)
);
}
);
width = 418;
}
);
metricLeft = o;
metricRight = n;
unicode = 97;
},
{
glyphname = b;
lastChange = "2022-03-01 20:42:03 +0000";
layers = (
{
layerId = m01;
shapes = (
{
closed = 1;
nodes = (
(78,0,o),
(140,0,o),
(160,0,cs),
(217,0,o),
(276,17,o),
(314,74,cs),
(346,122,o),
(369,219,o),
(369,277,cs),
(369,328,o),
(349,354,o),
(316,354,cs),
(258,354,o),
(204,300,o),
(167,253,cs),
(128,204,o),
(91,152,o),
(66,106,c),
(66,49,l),
(86,49,l),
(114,96,o),
(147,145,o),
(202,214,cs),
(249,273,o),
(286,303,o),
(301,303,cs),
(319,303,o),
(320,289,o),
(320,273,cs),
(320,243,o),
(301,144,o),
(275,105,cs),
(245,60,o),
(199,50,o),
(160,50,cs),
(153,50,o),
(85,50,o),
(77,50,c),
(66,50,l),
(66,0,l)
);
},
{
closed = 1;
nodes = (
(80,89,l),
(174,621,ls),
(177,640,o),
(167,650,o),
(155,650,cs),
(142,650,o),
(128,641,o),
(124,621,cs),
(18,22,ls),
(16,10,o),
(22,0,o),
(34,0,c),
(80,0,l)
);
}
);
width = 398;
},
{
layerId = m002;
shapes = (
{
closed = 1;
nodes = (
(122,0,o),
(176,0,o),
(194,0,cs),
(249,0,o),
(313,16,o),
(350,74,cs),
(381,122,o),
(403,211,o),
(403,265,cs),
(403,331,o),
(375,354,o),
(334,354,cs),
(273,354,o),
(211,291,o),
(180,254,cs),
(142,208,o),
(108,153,o),
(86,112,c),
(86,42,l),
(127,42,l),
(153,88,o),
(189,148,o),
(236,203,cs),
(276,250,o),
(296,266,o),
(303,266,cs),
(308,266,o),
(309,255,o),
(309,246,cs),
(309,222,o),
(296,155,o),
(274,125,cs),
(251,94,o),
(225,87,o),
(194,87,cs),
(188,87,o),
(128,87,o),
(121,87,cs),
(86,87,l),
(86,0,l)
);
},
{
closed = 1;
nodes = (
(142,101,l),
(230,599,ls),
(236,632,o),
(211,650,o),
(184,650,cs),
(164,650,o),
(136,640,o),
(130,607,cs),
(31,44,ls),
(26,18,o),
(44,0,o),
(71,0,cs),
(139,0,l)
);
}
);
width = 432;
}
);
metricLeft = n;
metricRight = o;
unicode = 98;
},
{
glyphname = c;
lastChange = "2022-03-01 18:53:31 +0000";
layers = (
{
layerId = m01;
shapes = (
{
closed = 1;
nodes = (
(120,-4,o),
(173,32,o),
(216,84,cs),
(228,99,o),
(242,117,o),
(253,132,cs),
(259,141,o),
(261,149,o),
(261,155,cs),
(261,168,o),
(249,175,o),
(240,175,cs),
(231,175,o),
(221,171,o),
(213,161,cs),
(204,150,o),
(192,134,o),
(182,121,cs),
(147,77,o),
(114,47,o),
(94,47,cs),
(83,47,o),
(77,59,o),
(77,78,cs),
(77,116,o),
(95,206,o),
(121,245,cs),
(151,290,o),
(202,300,o),
(271,300,cs),
(284,300,o),
(293,314,o),
(293,326,cs),
(293,337,o),
(284,350,o),
(271,350,cs),
(179,350,o),
(120,333,o),
(82,276,cs),
(50,228,o),
(27,131,o),
(27,73,cs),
(27,22,o),
(50,-4,o),
(82,-4,cs)
);
}
);
width = 309;
},
{
layerId = m002;
shapes = (
{
closed = 1;
nodes = (
(150,-4,o),
(203,32,o),
(243,81,cs),
(256,96,o),
(269,114,o),
(278,126,cs),
(285,137,o),
(289,148,o),
(289,157,cs),
(289,182,o),
(266,197,o),
(245,197,cs),
(232,197,o),
(216,189,o),
(204,173,cs),
(195,162,o),
(186,150,o),
(178,139,cs),
(149,102,o),
(137,85,o),
(127,85,cs),
(119,85,o),
(119,99,o),
(119,104,cs),
(119,136,o),
(136,197,o),
(156,227,cs),
(177,260,o),
(215,265,o),
(273,265,cs),
(298,265,o),
(317,285,o),
(317,308,cs),
(317,329,o),
(298,350,o),
(273,350,cs),
(187,350,o),
(124,334,o),
(85,276,cs),
(54,228,o),
(33,139,o),
(33,85,cs),
(33,23,o),
(68,-4,o),
(106,-4,cs)
);
}
);
width = 335;
}
);
metricLeft = o;
metricRight = o;
unicode = 99;
},
{
glyphname = d;
lastChange = "2022-03-01 20:42:03 +0000";
layers = (
{
layerId = m01;
shapes = (
{
closed = 1;
nodes = (
(310,300,l),
(281,253,o),
(248,204,o),
(210,156,cs),
(148,76,o),
(110,46,o),
(91,46,cs),
(77,46,o),
(77,61,o),
(77,77,cs),
(77,115,o),
(95,205,o),
(121,244,cs),
(151,289,o),
(202,299,o),
(236,299,cs),
(243,299,o),
(311,299,o),
(319,299,c),
(330,299,l),
(330,349,l),
(318,349,o),
(256,349,o),
(236,349,cs),
(179,349,o),
(120,332,o),
(82,275,cs),
(50,227,o),
(27,130,o),
(27,72,cs),
(27,21,o),
(47,-4,o),
(80,-4,cs),
(138,-4,o),
(190,49,o),
(238,109,cs),
(280,162,o),
(331,235,o),
(351,289,cs),
(355,300,l)
);
},
{
closed = 1;
nodes = (
(433,640,o),
(420,650,o),
(406,650,cs),
(395,650,o),
(384,644,o),
(381,629,cs),
(275,27,ls),
(272,9,o),
(285,0,o),
(299,0,cs),
(310,0,o),
(321,7,o),
(324,22,cs),
(430,624,ls)
);
}
);
width = 395;
},
{
layerId = m002;
shapes = (
{
closed = 1;
nodes = (
(308,307,l),
(280,261,o),
(248,205,o),
(213,162,cs),
(170,109,o),
(141,84,o),
(133,84,cs),
(127,84,o),
(127,101,o),
(127,106,cs),
(127,132,o),
(142,197,o),
(162,226,cs),
(184,258,o),
(218,263,o),
(250,263,cs),
(256,263,o),
(316,263,o),
(323,263,cs),
(357,263,l),
(358,350,l),
(335,350,o),
(270,350,o),
(251,350,cs),
(186,350,o),
(125,334,o),
(86,277,cs),
(55,229,o),
(32,138,o),
(32,84,cs),
(32,21,o),
(57,-4,o),
(96,-4,cs),
(159,-4,o),
(218,49,o),
(268,110,cs),
(306,156,o),
(367,239,o),
(376,269,cs),
(387,307,l)
);
},
{
closed = 1;
nodes = (
(462,631,o),
(435,650,o),
(407,650,cs),
(385,650,o),
(363,640,o),
(358,612,cs),
(259,50,ls),
(253,15,o),
(282,0,o),
(305,0,cs),
(327,0,o),
(353,15,o),
(358,44,cs),
(456,599,ls)
);
}
);
width = 435;
}
);
metricLeft = o;
metricRight = n;
unicode = 100;
},
{
glyphname = e;
lastChange = "2022-03-01 19:55:01 +0000";
layers = (
{
layerId = m01;
shapes = (
{
closed = 1;
nodes = (
(160,142,o),
(285,222,o),
(296,287,cs),
(303,328,o),
(261,350,o),
(210,350,cs),
(94,350,o),
(42,225,o),
(29,107,cs),
(19,19,o),
(47,-4,o),
(85,-4,cs),
(138,-4,o),
(194,53,o),
(216,84,cs),
(237,113,o),
(240,130,o),
(230,137,cs),
(219,145,o),
(201,146,o),
(182,121,cs),
(171,108,o),
(124,48,o),
(91,48,cs),
(78,48,o),
(74,64,o),
(79,98,cs),
(92,193,o),
(120,300,o),
(216,300,cs),
(234,300,o),
(246,292,o),
(245,284,cs),
(242,267,o),
(144,194,o),
(80,194,c),
(68,142,l)
);
}
);
width = 318;
},
{
layerId = m002;
shapes = (
{
closed = 1;
nodes = (
(194,136,o),
(287,180,o),
(321,251,cs),
(345,303,o),
(317,350,o),
(234,351,cs),
(104,352,o),
(47,247,o),
(36,117,cs),
(28,19,o),
(73,-4,o),
(116,-4,cs),
(205,-4,o),
(250,45,o),
(271,71,cs),
(296,102,o),
(284,130,o),
(270,141,cs),
(250,155,o),
(228,145,o),
(207,120,cs),
(195,106,o),
(171,85,o),
(133,85,cs),
(120,85,o),
(120,102,o),
(122,118,cs),
(129,177,o),
(161,280,o),
(216,280,cs),
(230,280,o),
(244,278,o),
(241,270,cs),
(228,235,o),
(136,210,o),
(101,210,c),
(88,136,l)
);
}
);
width = 352;
}
);
metricLeft = o;
metricRight = o;
unicode = 101;
},
{
glyphname = f;
lastChange = "2022-03-01 20:42:03 +0000";
layers = (
{
layerId = m01;
shapes = (
{
closed = 1;
nodes = (
(259,558,o),
(288,600,o),
(321,600,cs),
(363,600,o),
(394,584,o),
(401,547,cs),
(404,534,o),
(423,531,o),
(435,534,cs),
(450,538,o),
(450,552,o),
(448,562,cs),
(438,620,o),
(384,650,o),
(321,650,cs),
(271,650,o),
(219,616,o),
(203,527,cs),
(115,28,ls),
(113,16,o),
(122,0,o),
(140,0,cs),
(157,0,o),
(164,15,o),
(166,27,cs),
(252,518,ls)
);
},
{
closed = 1;
nodes = (
(312,305,o),
(318,316,o),
(318,328,cs),
(318,340,o),
(312,350,o),
(292,350,cs),
(98,350,ls),
(78,350,o),
(72,340,o),
(72,328,cs),
(72,316,o),
(78,305,o),
(98,305,cs),
(292,305,ls)
);
}
);
width = 337;
},
{
layerId = m002;
shapes = (
{
closed = 1;
nodes = (
(307,534,o),
(323,560,o),
(348,560,cs),
(369,560,o),
(401,557,o),
(413,529,cs),
(423,506,o),
(439,504,o),
(455,507,cs),
(489,512,o),
(508,541,o),
(487,585,cs),
(460,643,o),
(398,650,o),
(340,650,cs),
(282,650,o),
(220,614,o),
(203,519,cs),
(120,49,ls),
(116,26,o),
(136,-2,o),
(170,-2,cs),
(197,-2,o),
(216,18,o),
(220,42,cs),
(301,502,ls)
);
},
{
closed = 1;
nodes = (
(340,265,o),
(359,281,o),
(359,307,cs),
(359,331,o),
(342,350,o),
(310,350,cs),
(127,350,ls),
(96,350,o),
(78,331,o),
(78,307,cs),
(78,283,o),
(96,265,o),
(127,265,cs),
(310,265,ls)
);
}
);
width = 365;
}
);
metricLeft = n;
unicode = 102;
},
{
glyphname = g;
lastChange = "2022-03-01 20:42:03 +0000";
layers = (
{
layerId = m01;
shapes = (
{
closed = 1;
nodes = (
(361,343,o),
(350,350,o),
(333,350,c),
(308,350,l),
(284,198,l),
(233,-95,ls),
(225,-143,o),
(213,-195,o),
(181,-224,cs),
(162,-243,o),
(132,-250,o),
(98,-250,cs),
(72,-250,o),
(49,-236,o),
(32,-212,cs),
(20,-195,o),
(0,-187,o),
(-12,-197,cs),
(-28,-210,o),
(-24,-223,o),
(-6,-245,cs),
(17,-274,o),
(51,-300,o),
(98,-300,cs),
(149,-300,o),
(186,-287,o),
(213,-263,cs),
(252,-228,o),
(271,-169,o),
(284,-95,cs),
(358,326,ls)
);
},
{
closed = 1;
nodes = (
(295,301,l),
(266,254,o),
(233,205,o),
(195,157,cs),
(133,77,o),
(95,47,o),
(76,47,cs),
(62,47,o),
(62,62,o),
(62,78,cs),
(62,116,o),
(80,206,o),
(106,245,cs),
(136,290,o),
(187,300,o),
(221,300,cs),
(228,300,o),
(296,300,o),
(304,300,c),
(315,300,l),
(315,302,o),
(315,347,o),
(315,350,c),
(303,350,o),
(241,350,o),
(221,350,cs),
(164,350,o),
(105,333,o),
(67,276,cs),
(35,228,o),
(12,131,o),
(12,73,cs),
(12,22,o),
(32,-4,o),
(65,-4,cs),
(127,-4,o),
(175,50,o),
(209,93,cs),
(265,163,o),
(313,240,o),
(336,292,cs),
(340,301,l)
);
}
);
width = 376;
},
{
layerId = m002;
shapes = (
{
closed = 1;
nodes = (
(399,335,o),
(373,350,o),
(346,350,cs),
(301,350,l),
(275,192,l),
(237,-20,ls),
(226,-83,o),
(223,-144,o),
(192,-174,cs),
(173,-193,o),
(141,-202,o),
(120,-202,cs),
(84,-202,o),
(60,-178,o),
(51,-169,cs),
(32,-150,o),
(-5,-149,o),
(-25,-177,cs),
(-36,-191,o),
(-34,-218,o),
(-21,-233,cs),
(-4,-252,o),
(32,-300,o),
(122,-300,cs),
(177,-300,o),
(228,-276,o),
(267,-237,cs),
(315,-189,o),
(320,-112,o),
(335,-28,cs),
(395,305,l)
);
},
{
closed = 1;
nodes = (
(295,308,l),
(267,262,o),
(241,217,o),
(207,173,cs),
(171,127,o),
(128,84,o),
(118,84,cs),
(113,84,o),
(112,99,o),
(112,108,cs),
(112,123,o),
(127,197,o),
(149,228,cs),
(171,260,o),
(203,263,o),
(240,263,cs),
(246,263,o),
(306,263,o),
(313,263,cs),
(347,263,l),
(347,288,o),
(347,328,o),
(347,350,c),
(324,350,o),
(259,350,o),
(240,350,cs),
(184,350,o),
(112,336,o),
(73,279,cs),
(42,231,o),
(18,151,o),
(18,85,cs),
(18,22,o),
(51,-4,o),
(90,-4,cs),
(158,-4,o),
(210,54,o),
(240,92,cs),
(291,156,o),
(329,228,o),
(356,271,cs),
(379,308,l)
);
}
);
width = 426;
}
);
metricLeft = "=o-15";
metricRight = n;
unicode = 103;
},
{
glyphname = h;
lastChange = "2022-03-01 20:42:03 +0000";
layers = (
{
layerId = m01;
shapes = (
{
closed = 1;
nodes = (
(178,641,o),
(167,650,o),
(154,650,cs),
(141,650,o),
(127,641,o),
(124,623,cs),
(18,23,ls),
(15,8,o),
(26,0,o),
(39,0,cs),
(52,0,o),
(66,7,o),
(69,23,cs),
(175,623,ls)
);
},
{
closed = 1;
nodes = (
(377,291,o),
(367,354,o),
(310,354,cs),
(216,354,o),
(124,247,o),
(66,160,c),
(65,75,l),
(134,190,o),
(251,305,o),
(302,305,cs),
(327,305,o),
(320,261,o),
(315,234,cs),
(276,23,ls),
(275,15,o),
(276,0,o),
(298,0,c),
(324,0,o),
(326,18,o),
(327,23,cs),
(366,234,ls)
);
}
);
width = 400;
},
{
layerId = m002;
shapes = (
{
closed = 1;
nodes = (
(237,633,o),
(212,653,o),
(185,653,cs),
(161,653,o),
(136,637,o),
(131,609,cs),
(32,45,ls),
(27,17,o),
(49,-2,o),
(76,-2,cs),
(100,-2,o),
(127,11,o),
(132,37,cs),
(231,601,ls)
);
},
{
closed = 1;
nodes = (
(421,287,o),
(397,355,o),
(329,355,cs),
(225,355,o),
(156,279,o),
(107,207,c),
(120,75,l),
(176,183,o),
(284,271,o),
(306,271,cs),
(318,271,o),
(314,256,o),
(309,231,cs),
(275,45,ls),
(271,21,o),
(287,-1,o),
(319,-1,cs),
(355,-1,o),
(372,22,o),
(375,37,cs),
(409,223,ls)
);
}
);
width = 455;
}
);
metricLeft = n;
metricRight = n;
unicode = 104;
},
{
glyphname = i;
lastChange = "2022-03-01 20:42:03 +0000";
layers = (
{
layerId = m01;
shapes = (
{
closed = 1;
nodes = (
(128,340,o),
(116,350,o),
(104,350,cs),
(91,350,o),
(76,341,o),
(73,323,cs),
(21,28,ls),
(18,9,o),
(29,0,o),
(42,0,cs),
(54,0,o),
(69,10,o),
(72,28,cs),
(124,320,ls)
);
},
{
closed = 1;
nodes = (
(139,441,o),
(152,454,o),
(152,468,cs),
(152,483,o),
(138,494,o),
(124,494,cs),
(108,494,o),
(97,481,o),
(97,468,cs),
(97,454,o),
(109,441,o),
(124,441,cs)
);
}
);
width = 145;
},
{
layerId = m002;
shapes = (
{
closed = 1;
nodes = (
(183,327,o),
(156,350,o),
(131,350,cs),
(107,350,o),
(82,332,o),
(77,305,cs),
(32,49,ls),
(27,19,o),
(50,0,o),
(76,0,cs),
(98,0,o),
(127,10,o),
(132,37,cs),
(177,294,ls)
);
},
{
closed = 1;
nodes = (
(186,417,o),
(209,439,o),
(209,466,cs),
(209,495,o),
(185,515,o),
(159,515,cs),
(132,515,o),
(111,493,o),
(111,466,cs),
(111,439,o),
(133,417,o),
(159,417,cs)
);
}
);
width = 212;
}
);
metricLeft = n;
metricRight = n;
unicode = 105;
},
{
glyphname = j;
lastChange = "2022-03-01 20:42:03 +0000";
layers = (
{
layerId = m01;
shapes = (
{
closed = 1;
nodes = (
(127,344,o),
(116,351,o),
(99,351,cs),
(88,351,o),
(74,340,o),
(72,329,cs),
(-1,-94,ls),
(-9,-142,o),
(-21,-194,o),
(-53,-223,cs),
(-72,-242,o),
(-102,-249,o),
(-136,-249,cs),
(-162,-249,o),
(-185,-235,o),
(-202,-211,cs),
(-214,-194,o),
(-234,-186,o),
(-246,-196,cs),
(-262,-209,o),
(-258,-222,o),
(-240,-244,cs),
(-217,-273,o),
(-183,-299,o),
(-136,-299,cs),
(-85,-299,o),
(-48,-286,o),
(-21,-262,cs),
(18,-227,o),
(37,-168,o),
(50,-94,cs),
(124,327,ls)
);
},
{
closed = 1;
nodes = (
(138,440,o),
(151,453,o),
(151,468,cs),
(151,484,o),
(138,495,o),
(123,495,cs),
(108,495,o),
(96,484,o),
(96,468,cs),
(96,453,o),
(108,440,o),
(123,440,cs)
);
}
);
width = 144;
},
{
layerId = m002;
shapes = (
{
closed = 1;
nodes = (
(169,335,o),
(145,350,o),
(115,350,cs),
(87,350,o),
(68,335,o),
(63,306,cs),
(6,-20,ls),
(-5,-83,o),
(-8,-144,o),
(-39,-174,cs),
(-58,-193,o),
(-90,-202,o),
(-111,-202,cs),
(-147,-202,o),
(-171,-178,o),
(-180,-169,cs),
(-199,-150,o),
(-236,-149,o),
(-256,-177,cs),
(-267,-191,o),
(-265,-218,o),
(-252,-233,cs),
(-235,-252,o),
(-199,-300,o),
(-109,-300,cs),
(-54,-300,o),
(-3,-276,o),
(36,-237,cs),
(84,-189,o),
(89,-112,o),
(104,-28,cs),
(164,305,ls)
);
},
{
closed = 1;
nodes = (
(162,417,o),
(186,439,o),
(186,467,cs),
(186,496,o),
(162,516,o),
(136,516,cs),
(110,516,o),
(87,496,o),
(87,467,cs),
(87,439,o),
(110,417,o),
(136,417,cs)
);
}
);
width = 195;
}
);
metricRight = n;
unicode = 106;
},
{
glyphname = k;
lastChange = "2022-03-01 20:42:03 +0000";
layers = (
{
layerId = m01;
shapes = (
{
closed = 1;
nodes = (
(179,642,o),
(167,650,o),
(151,650,cs),
(136,650,o),
(127,639,o),
(124,622,cs),
(19,26,ls),
(16,10,o),
(26,0,o),
(39,0,cs),
(55,0,o),
(67,7,o),
(70,26,cs),
(175,621,ls)
);
},
{
closed = 1;
nodes = (
(165,174,l),
(274,18,ls),
(281,8,o),
(291,-1,o),
(304,-1,cs),
(314,-1,o),
(324,5,o),
(327,16,cs),
(329,23,o),
(328,31,o),
(321,41,cs),
(229,174,l)
);
},
{
closed = 1;
nodes = (
(97,127,o),
(128,169,o),
(162,205,cs),
(179,223,o),
(215,256,o),
(233,271,cs),
(253,287,o),
(282,305,o),
(302,305,cs),
(316,305,o),
(322,287,o),
(320,274,cs),
(315,248,o),
(291,236,o),
(261,219,cs),
(240,207,o),
(194,184,o),
(165,174,c),
(222,146,l),
(235,150,o),
(263,162,o),
(282,172,cs),
(315,190,o),
(361,219,o),
(367,254,cs),
(373,288,o),
(367,354,o),
(310,354,cs),
(267,354,o),
(232,334,o),
(201,311,cs),
(163,282,o),
(128,245,o),
(88,193,c),
(66,80,l)
);
}
);
width = 381;
},
{
layerId = m002;
shapes = (
{
closed = 1;
nodes = (
(234,633,o),
(211,653,o),
(181,653,cs),
(158,653,o),
(135,638,o),
(130,608,cs),
(32,48,ls),
(27,19,o),
(48,-2,o),
(75,-2,cs),
(102,-2,o),
(125,11,o),
(130,40,cs),
(228,599,ls)
);
},
{
closed = 1;
nodes = (
(193,151,l),
(279,25,ls),
(290,9,o),
(308,-2,o),
(326,-2,cs),
(346,-2,o),
(368,11,o),
(373,31,cs),
(376,43,o),
(375,55,o),
(365,69,cs),
(301,162,l)
);
},
{
closed = 1;
nodes = (
(140,116,o),
(168,148,o),
(195,181,cs),
(212,201,o),
(248,235,o),
(262,246,cs),
(279,261,o),
(298,272,o),
(309,270,cs),
(316,269,o),
(315,255,o),
(314,249,cs),
(312,239,o),
(299,216,o),
(274,200,cs),
(257,189,o),
(228,168,o),
(193,151,c),
(314,134,l),
(336,144,o),
(360,165,o),
(377,187,cs),
(395,210,o),
(407,236,o),
(412,260,cs),
(420,309,o),
(379,354,o),
(332,354,cs),
(274,354,o),
(231,334,o),
(201,311,cs),
(170,287,o),
(130,244,o),
(107,207,c),
(130,98,l)
);
}
);
width = 416;
}
);
metricLeft = n;
unicode = 107;
},
{
glyphname = l;
lastChange = "2022-03-01 20:42:03 +0000";
layers = (
{
layerId = m01;
shapes = (
{
closed = 1;
nodes = (
(177,640,o),
(164,650,o),
(150,650,cs),
(139,650,o),
(128,644,o),
(125,629,cs),
(19,27,ls),
(16,9,o),
(29,0,o),
(43,0,cs),
(54,0,o),
(65,7,o),
(68,22,cs),
(174,624,ls)
);
}
);
width = 139;
},
{
layerId = m002;
shapes = (
{
closed = 1;
nodes = (
(235,631,o),
(208,650,o),
(180,650,cs),
(158,650,o),
(136,640,o),
(131,612,cs),
(32,50,ls),
(26,15,o),
(55,0,o),
(78,0,cs),
(100,0,o),
(126,15,o),
(131,44,cs),
(229,599,ls)
);
}
);
width = 208;
}
);
metricLeft = n;
metricRight = n;
unicode = 108;
},
{
glyphname = m;
lastChange = "2022-03-01 20:42:03 +0000";
layers = (
{
layerId = m01;
shapes = (
{
closed = 1;
nodes = (
(125,340,o),
(121,350,o),
(104,350,c),
(85,350,o),
(74,342,o),
(71,323,cs),
(18,23,ls),
(17,15,o),
(18,0,o),
(40,0,cs),
(66,0,o),
(68,18,o),
(69,23,cs),
(122,323,ls)
);
},
{
closed = 1;
nodes = (
(71,112,l),
(140,213,o),
(235,305,o),
(281,305,cs),
(306,305,o),
(300,261,o),
(295,234,cs),
(256,23,ls),
(255,15,o),
(256,0,o),
(278,0,c),
(304,0,o),
(306,18,o),
(307,23,cs),
(346,234,ls),
(357,291,o),
(346,354,o),
(289,354,cs),
(212,354,o),
(139,282,o),
(84,209,c)
);
},
{
closed = 1;
nodes = (
(312,112,l),
(381,213,o),
(476,305,o),
(522,305,cs),
(547,305,o),
(541,261,o),
(536,234,cs),
(497,23,ls),
(496,15,o),
(497,0,o),
(519,0,c),
(545,0,o),
(547,18,o),
(548,23,cs),
(587,234,ls),
(598,291,o),
(587,354,o),
(530,354,cs),
(453,354,o),
(380,282,o),
(325,209,c)
);
}
);
width = 621;
},
{
layerId = m002;
shapes = (
{
closed = 1;
nodes = (
(183,331,o),
(166,350,o),
(137,350,cs),
(108,350,o),
(86,337,o),
(78,309,c),
(31,43,ls),
(26,15,o),
(44,0,o),
(73,0,cs),
(110,0,o),
(128,23,o),
(131,37,cs),
(178,302,ls)
);
},
{
closed = 1;
nodes = (
(132,110,l),
(191,201,o),
(278,271,o),
(298,271,cs),
(310,271,o),
(306,256,o),
(301,231,cs),
(267,45,ls),
(263,21,o),
(279,-1,o),
(311,-1,cs),
(347,-1,o),
(364,22,o),
(367,37,cs),
(401,223,ls),
(413,287,o),
(389,355,o),
(321,355,cs),
(253,355,o),
(200,322,o),
(157,279,c)
);
},
{
closed = 1;
nodes = (
(373,111,l),
(432,202,o),
(519,272,o),
(539,272,cs),
(551,272,o),
(547,257,o),
(542,232,cs),
(508,46,ls),
(504,22,o),
(520,0,o),
(552,0,cs),
(588,0,o),
(605,23,o),
(608,38,cs),
(642,224,ls),
(654,288,o),
(630,356,o),
(562,356,cs),
(494,356,o),
(441,323,o),
(398,280,c)
);
}
);
width = 687;
}
);
metricLeft = n;
metricRight = n;
unicode = 109;
},
{
glyphname = n;
lastChange = "2022-03-01 20:41:34 +0000";
layers = (
{
layerId = m01;
shapes = (
{
closed = 1;
nodes = (
(138,190,o),
(251,305,o),
(302,305,cs),
(327,305,o),
(321,261,o),
(316,234,cs),
(277,23,ls),
(276,15,o),
(277,0,o),
(299,0,c),
(325,0,o),
(327,18,o),
(328,23,cs),
(367,234,ls),
(378,291,o),
(367,354,o),
(310,354,cs),
(216,354,o),
(128,247,o),
(70,160,c),
(69,75,l)
);
},
{
closed = 1;
nodes = (
(125,340,o),
(121,350,o),
(104,350,cs),
(84,350,o),
(75,341,o),
(71,323,cs),
(18,23,ls),
(17,15,o),
(18,0,o),
(40,0,cs),
(66,0,o),
(68,18,o),
(69,23,cs),
(122,323,ls)
);
}
);
width = 401;
},
{
layerId = m002;
shapes = (
{
closed = 1;
nodes = (
(195,201,o),
(267,271,o),
(284,271,cs),
(296,271,o),
(292,256,o),
(287,231,cs),
(253,45,ls),
(249,21,o),
(265,-1,o),
(297,-1,cs),
(333,-1,o),
(350,22,o),
(353,37,cs),
(387,223,ls),
(399,287,o),
(375,355,o),
(307,355,cs),
(250,355,o),
(203,318,o),
(165,285,c),
(138,124,l)
);
},
{
closed = 1;
nodes = (
(183,332,o),
(167,350,o),
(135,350,cs),
(93,350,o),
(80,320,o),
(78,308,cs),
(31,44,ls),
(27,20,o),
(38,0,o),
(72,0,cs),
(109,0,o),
(128,22,o),
(131,37,cs),
(178,302,ls)
);
}
);
width = 433;
}
);
unicode = 110;
},
{
glyphname = o;
lastChange = "2022-03-01 20:42:45 +0000";
layers = (
{
layerId = m01;
shapes = (
{
closed = 1;
nodes = (
(171,-4,o),
(289,157,o),
(305,248,cs),
(316,308,o),
(269,350,o),
(199,350,cs),
(140,350,o),
(100,311,o),
(78,271,cs),
(59,237,o),
(34,170,o),
(28,95,cs),
(22,20,o),
(51,-4,o),
(82,-4,cs)
);
},
{
closed = 1;
nodes = (
(76,46,o),
(76,77,o),
(79,105,cs),
(84,152,o),
(96,201,o),
(124,250,cs),
(141,280,o),
(173,300,o),
(196,300,cs),
(236,300,o),
(261,287,o),
(254,247,cs),
(240,169,o),
(123,46,o),
(94,46,cs)
);
}
);
width = 334;
},
{
layerId = m002;
shapes = (
{
closed = 1;
nodes = (
(232,-4,o),
(333,152,o),
(350,250,cs),
(361,314,o),
(303,350,o),
(227,350,cs),
(162,350,o),
(108,315,o),
(85,273,cs),
(68,241,o),
(42,174,o),
(32,104,cs),
(21,24,o),
(74,-4,o),
(118,-4,cs)
);
},
{
closed = 1;
nodes = (
(125,83,o),
(120,98,o),
(125,117,cs),
(135,155,o),
(145,189,o),
(163,230,cs),
(175,258,o),
(198,264,o),
(214,264,cs),
(234,264,o),
(256,255,o),
(253,236,cs),
(244,185,o),
(167,83,o),
(134,83,cs)
);
}
);
width = 378;
}
);
unicode = 111;
},
{
glyphname = p;
lastChange = "2022-03-01 20:44:32 +0000";
layers = (
{
layerId = m01;
shapes = (
{
closed = 1;
nodes = (
(126,342,o),
(114,350,o),
(101,350,cs),
(89,350,o),
(75,342,o),
(72,327,cs),
(-35,-276,ls),
(-38,-292,o),
(-26,-300,o),
(-13,-300,cs),
(-1,-300,o),
(13,-292,o),
(16,-277,cs),
(123,327,ls)
);
},
{
closed = 1;
nodes = (
(85,49,l),
(113,96,o),
(146,145,o),
(201,214,cs),
(248,273,o),
(285,303,o),
(300,303,cs),
(318,303,o),
(318,288,o),
(318,272,cs),
(318,235,o),
(300,144,o),
(274,105,cs),
(244,60,o),
(193,50,o),
(159,50,cs),
(152,50,o),
(84,50,o),
(76,50,c),
(65,50,l),
(65,48,o),
(65,3,o),
(65,0,c),
(77,0,o),
(139,0,o),
(159,0,cs),
(216,0,o),
(275,17,o),
(313,74,cs),
(345,122,o),
(368,219,o),
(368,277,cs),
(368,328,o),
(348,354,o),
(315,354,cs),
(257,354,o),
(205,300,o),
(168,253,cs),
(115,187,o),
(64,114,o),
(44,60,cs),
(40,49,l)
);
}
);
width = 397;
},
{
layerId = m002;
shapes = (
{
closed = 1;
nodes = (
(183,327,o),
(160,350,o),
(133,350,cs),
(110,350,o),
(82,335,o),
(78,310,cs),
(-21,-254,ls),
(-26,-283,o),
(-1,-303,o),
(26,-303,cs),
(49,-303,o),
(75,-288,o),
(79,-263,cs),
(178,299,ls)
);
},
{
closed = 1;
nodes = (
(128,42,l),
(160,96,o),
(189,147,o),
(233,201,cs),
(272,249,o),
(299,266,o),
(303,266,cs),
(308,266,o),
(309,256,o),
(309,251,cs),
(309,220,o),
(296,158,o),
(277,129,cs),
(254,95,o),
(224,87,o),
(200,87,cs),
(194,87,o),
(134,87,o),
(127,87,cs),
(93,87,l),
(93,62,o),
(93,22,o),
(93,0,c),
(116,0,o),
(181,0,o),
(200,0,cs),
(247,0,o),
(312,16,o),
(351,73,cs),
(382,121,o),
(404,211,o),
(404,265,cs),
(404,332,o),
(383,354,o),
(340,354,cs),
(281,354,o),
(207,290,o),
(172,243,cs),
(122,176,o),
(77,114,o),
(68,80,cs),
(58,42,l)
);
}
);
width = 433;
}
);
metricLeft = n;
metricRight = o;
unicode = 112;
},
{
glyphname = q;
lastChange = "2022-03-01 20:50:19 +0000";
layers = (
{
layerId = m01;
shapes = (
{
closed = 1;
nodes = (
(310,301,l),
(282,254,o),
(249,205,o),
(208,153,cs),
(147,77,o),
(110,47,o),
(91,47,cs),
(77,47,o),
(77,62,o),
(77,78,cs),
(77,116,o),
(95,206,o),
(121,245,cs),
(151,290,o),
(202,300,o),
(236,300,cs),
(243,300,o),
(311,300,o),
(319,300,c),
(330,300,l),
(330,302,o),
(330,347,o),
(330,350,c),
(318,350,o),
(256,350,o),
(236,350,cs),
(179,350,o),
(120,333,o),
(82,276,cs),
(50,228,o),
(27,131,o),
(27,73,cs),
(27,22,o),
(47,-4,o),
(80,-4,cs),
(138,-4,o),
(190,50,o),
(231,101,cs),
(280,163,o),
(328,240,o),
(351,292,cs),
(355,301,l)
);
},
{
closed = 1;
nodes = (
(242,-154,ls),
(230,-223,o),
(230,-300,o),
(300,-300,cs),
(351,-300,o),
(389,-218,o),
(389,-206,cs),
(389,-191,o),
(377,-184,o),
(366,-184,cs),
(354,-184,o),
(346,-192,o),
(343,-196,cs),
(314,-241,o),
(306,-252,o),
(299,-252,cs),
(279,-252,o),
(284,-203,o),
(290,-168,cs),
(377,327,ls),
(378,335,o),
(377,350,o),
(355,350,cs),
(330,350,l)
);
}
);
width = 395;
},
{
layerId = m002;
shapes = (
{
closed = 1;
nodes = (
(307,306,l),
(281,261,o),
(255,215,o),
(217,167,cs),
(164,101,o),
(141,85,o),
(134,85,cs),
(127,85,o),
(127,101,o),
(127,106,cs),
(127,138,o),
(141,194,o),
(161,224,cs),
(182,256,o),
(213,263,o),
(241,263,cs),
(247,263,o),
(307,263,o),
(314,263,cs),
(349,263,l),
(349,288,o),
(349,328,o),
(349,350,c),
(326,350,o),
(261,350,o),
(241,350,cs),
(186,350,o),
(123,332,o),
(85,275,cs),
(53,228,o),
(33,139,o),
(33,85,cs),
(33,22,o),
(51,-4,o),
(90,-4,cs),
(153,-4,o),
(220,51,o),
(274,118,cs),
(320,176,o),
(352,223,o),
(365,269,cs),
(376,307,l)
);
},
{
closed = 1;
nodes = (
(247,-62,ls),
(225,-188,o),
(208,-300,o),
(327,-300,cs),
(381,-300,o),
(444,-242,o),
(444,-187,cs),
(444,-160,o),
(424,-147,o),
(402,-147,cs),
(390,-147,o),
(378,-158,o),
(369,-171,cs),
(351,-196,o),
(344,-201,o),
(336,-201,cs),
(328,-201,o),
(323,-187,o),
(329,-154,cs),
(410,306,ls),
(414,328,o),
(398,350,o),
(365,350,cs),
(320,350,l)
);
}
);
width = 417;
}
);
metricLeft = o;
unicode = 113;
},
{
glyphname = r;
lastChange = "2022-03-01 21:02:55 +0000";
layers = (
{
layerId = m01;
shapes = (
{
closed = 1;
nodes = (
(125,160,o),
(152,191,o),
(183,224,cs),
(201,244,o),
(236,273,o),
(257,287,cs),
(273,298,o),
(289,305,o),
(305,305,cs),
(317,305,o),
(321,285,o),
(321,272,cs),
(321,253,o),
(335,245,o),
(350,245,cs),
(369,245,o),
(371,257,o),
(371,269,cs),
(372,297,o),
(365,322,o),
(351,338,cs),
(345,344,o),
(328,354,o),
(307,354,cs),
(278,354,o),
(248,342,o),
(226,328,cs),
(209,317,o),
(174,290,o),
(147,261,cs),
(131,244,o),
(100,206,o),
(91,189,c),
(76,87,l)
);
},
{
closed = 1;
nodes = (
(124,340,o),
(113,350,o),
(100,350,cs),
(88,350,o),
(74,341,o),
(71,323,cs),
(19,27,ls),
(16,9,o),
(27,0,o),
(40,0,cs),
(53,0,o),
(67,9,o),
(70,27,cs),
(121,320,ls)
);
}
);
width = 375;
},
{
layerId = m002;
shapes = (
{
closed = 1;
nodes = (
(159,147,o),
(200,193,o),
(214,208,cs),
(229,224,o),
(248,242,o),
(260,252,cs),
(270,260,o),
(288,271,o),
(294,271,cs),
(305,271,o),
(306,253,o),
(306,242,cs),
(306,227,o),
(321,214,o),
(354,214,cs),
(379,214,o),
(400,231,o),
(400,259,cs),
(400,293,o),
(387,318,o),
(372,333,cs),
(358,347,o),
(342,355,o),
(314,355,cs),
(292,355,o),
(261,345,o),
(242,334,cs),
(224,324,o),
(204,310,o),
(180,289,cs),
(161,273,o),
(154,266,o),
(148,260,c),
(138,117,l)
);
},
{
closed = 1;
nodes = (
(183,329,o),
(157,351,o),
(131,351,cs),
(109,351,o),
(83,336,o),
(78,309,cs),
(32,48,ls),
(27,18,o),
(52,-1,o),
(78,-1,cs),
(101,-1,o),
(127,14,o),
(132,41,cs),
(177,297,ls)
);
}
);
width = 409;
}
);
metricLeft = n;
unicode = 114;
},
{
glyphname = s;
lastChange = "2022-03-01 21:13:05 +0000";
layers = (
{
layerId = m01;
shapes = (
{
closed = 1;
nodes = (
(113,46,o),
(82,65,o),
(66,77,cs),
(52,87,o),
(31,85,o),
(24,73,cs),
(14,56,o),
(28,45,o),
(45,32,cs),
(79,7,o),
(118,-4,o),
(145,-4,cs),
(193,-4,o),
(243,22,o),
(253,80,cs),
(259,117,o),
(244,145,o),
(226,161,cs),
(208,177,o),
(177,196,o),
(150,215,cs),
(128,230,o),
(104,241,o),
(108,265,cs),
(112,287,o),
(141,300,o),
(173,300,cs),
(205,300,o),
(234,290,o),
(246,280,cs),
(258,270,o),
(280,272,o),
(287,284,cs),
(297,301,o),
(285,315,o),
(267,325,cs),
(231,346,o),
(200,350,o),
(173,350,cs),
(113,350,o),
(66,319,o),
(56,265,cs),
(49,226,o),
(89,194,o),
(118,176,cs),
(145,159,o),
(169,145,o),
(183,134,cs),
(196,123,o),
(206,107,o),
(203,88,cs),
(198,60,o),
(172,48,o),
(145,46,cs)
);
}
);
width = 312;
},
{
layerId = m002;
shapes = (
{
closed = 1;
nodes = (
(137,82,o),
(114,103,o),
(105,108,cs),
(81,120,o),
(46,117,o),
(33,94,cs),
(19,68,o),
(32,42,o),
(73,20,cs),
(99,6,o),
(132,-4,o),
(159,-4,cs),
(209,-4,o),
(270,21,o),
(281,87,cs),
(288,128,o),
(268,159,o),
(249,177,cs),
(238,188,o),
(213,203,o),
(193,216,cs),
(173,229,o),
(151,239,o),
(151,252,cs),
(151,262,o),
(168,264,o),
(186,264,cs),
(205,264,o),
(229,255,o),
(239,249,cs),
(264,237,o),
(297,236,o),
(309,258,cs),
(325,288,o),
(308,314,o),
(271,333,cs),
(245,344,o),
(213,350,o),
(186,350,cs),
(122,350,o),
(69,319,o),
(59,259,cs),
(51,213,o),
(95,173,o),
(124,156,cs),
(146,142,o),
(166,129,o),
(179,120,cs),
(187,113,o),
(188,110,o),
(187,102,cs),
(185,92,o),
(180,84,o),
(160,82,cs)
);
}
);
width = 338;
}
);
metricLeft = o;
metricRight = o;
unicode = 115;
},
{
glyphname = t;
lastChange = "2022-03-01 20:42:03 +0000";
layers = (
{
layerId = m01;
shapes = (
{
closed = 1;
nodes = (
(291,640,o),
(277,650,o),
(263,650,cs),
(252,650,o),
(240,643,o),
(238,629,cs),
(131,24,ls),
(128,8,o),
(141,0,o),
(154,0,cs),
(167,0,o),
(179,7,o),
(182,23,cs),
(288,622,ls)
);
},
{
closed = 1;
nodes = (
(342,305,o),
(348,316,o),
(348,328,cs),
(348,340,o),
(342,350,o),
(322,350,cs),
(98,350,ls),
(78,350,o),
(72,340,o),
(72,328,cs),
(72,316,o),
(78,305,o),
(98,305,cs),
(322,305,ls)
);
}
);
width = 366;
},
{
layerId = m002;
shapes = (
{
closed = 1;
nodes = (
(350,689,o),
(321,700,o),
(294,700,cs),
(272,700,o),
(249,687,o),
(245,664,cs),
(138,44,ls),
(132,12,o),
(159,0,o),
(185,0,cs),
(210,0,o),
(232,9,o),
(237,35,cs),
(344,655,ls)
);
},
{
closed = 1;
nodes = (
(370,265,o),
(388,283,o),
(388,307,cs),
(388,332,o),
(370,350,o),
(338,350,cs),
(128,350,ls),
(96,350,o),
(78,332,o),
(78,307,cs),
(78,283,o),
(96,265,o),
(128,265,cs),
(338,265,ls)
);
}
);
width = 419;
}
);
metricLeft = n;
metricRight = n;
unicode = 116;
},
{
glyphname = u;
lastChange = "2022-03-01 21:16:47 +0000";
layers = (
{
layerId = m01;
shapes = (
{
closed = 1;
nodes = (
(326,264,l),
(257,153,o),
(149,45,o),
(100,45,cs),
(75,45,o),
(81,89,o),
(86,116,cs),
(125,327,ls),
(126,335,o),
(125,350,o),
(103,350,c),
(77,350,o),
(75,332,o),
(74,327,cs),
(35,116,ls),
(24,59,o),
(35,-4,o),
(92,-4,cs),
(175,-4,o),
(253,79,o),
(310,158,c)
);
},
{
closed = 1;
nodes = (
(276,10,o),
(280,0,o),
(297,0,c),
(317,0,o),
(327,9,o),
(330,27,cs),
(383,327,ls),
(384,335,o),
(383,350,o),
(361,350,cs),
(335,350,o),
(333,332,o),
(332,327,cs),
(279,27,ls)
);
}
);
width = 400;
},
{
layerId = m002;
shapes = (
{
closed = 1;
nodes = (
(330,267,l),
(273,162,o),
(170,79,o),
(149,79,cs),
(137,79,o),
(141,94,o),
(146,119,cs),
(180,305,ls),
(184,329,o),
(168,351,o),
(136,351,cs),
(100,351,o),
(83,328,o),
(80,313,cs),
(46,127,ls),
(34,63,o),
(58,-5,o),
(126,-5,cs),
(204,-5,o),
(262,37,o),
(307,89,c)
);
},
{
closed = 1;
nodes = (
(282,18,o),
(298,0,o),
(330,0,cs),
(372,0,o),
(385,30,o),
(387,42,cs),
(434,306,ls),
(438,330,o),
(427,350,o),
(393,350,cs),
(356,350,o),
(337,328,o),
(334,313,cs),
(287,48,ls)
);
}
);
width = 465;
}
);
metricLeft = n;
metricRight = n;
unicode = 117;
},
{
glyphname = v;
lastChange = "2022-03-01 20:42:03 +0000";
layers = (
{
layerId = m01;
shapes = (
{
closed = 1;
nodes = (
(126,340,o),
(114,350,o),
(101,350,cs),
(89,350,o),
(74,341,o),
(71,323,cs),
(32,102,ls),
(27,76,o),
(26,49,o),
(33,28,cs),
(40,9,o),
(54,-4,o),
(80,-4,cs),
(104,-4,o),
(130,7,o),
(155,25,cs),
(193,53,o),
(233,100,o),
(259,138,cs),
(293,186,o),
(339,269,o),
(349,288,cs),
(372,333,o),
(362,350,o),
(342,350,cs),
(324,350,o),
(318,337,o),
(306,315,cs),
(288,280,o),
(259,229,o),
(228,183,cs),
(195,133,o),
(160,89,o),
(126,63,cs),
(112,52,o),
(103,47,o),
(94,47,cs),
(86,47,o),
(79,51,o),
(78,60,cs),
(76,69,o),
(80,86,o),
(83,102,cs),
(122,320,ls)
);
}
);
width = 380;
},
{
layerId = m002;
shapes = (
{
closed = 1;
nodes = (
(183,331,o),
(160,351,o),
(133,351,cs),
(111,351,o),
(82,335,o),
(77,308,cs),
(43,115,ls),
(39,90,o),
(41,62,o),
(48,39,cs),
(59,12,o),
(80,-4,o),
(113,-4,cs),
(141,-4,o),
(180,4,o),
(214,27,cs),
(254,54,o),
(290,97,o),
(312,129,cs),
(344,173,o),
(391,248,o),
(399,264,cs),
(436,336,o),
(393,351,o),
(371,351,cs),
(344,351,o),
(331,338,o),
(315,308,cs),
(307,293,o),
(289,262,o),
(263,223,cs),
(234,179,o),
(226,168,o),
(208,143,cs),
(195,126,o),
(179,106,o),
(169,96,cs),
(161,88,o),
(149,78,o),
(145,78,cs),
(139,78,o),
(142,107,o),
(151,157,cs),
(177,298,ls)
);
}
);
width = 444;
}
);
metricLeft = n;
metricRight = n;
unicode = 118;
},
{
glyphname = w;
lastChange = "2022-03-01 20:42:03 +0000";
layers = (
{
layerId = m01;
shapes = (
{
closed = 1;
nodes = (
(368,340,o),
(356,350,o),
(343,350,c),
(305,270,l),
(274,102,ls),
(269,76,o),
(268,49,o),
(275,28,cs),
(282,9,o),
(296,-4,o),
(322,-4,cs),
(346,-4,o),
(372,7,o),
(397,25,cs),
(435,53,o),
(475,100,o),
(501,138,cs),
(535,186,o),
(581,269,o),
(591,288,cs),
(614,333,o),
(604,350,o),
(584,350,cs),
(566,350,o),
(560,337,o),
(548,315,cs),
(530,280,o),
(501,229,o),
(470,183,cs),
(437,133,o),
(402,89,o),
(368,63,cs),
(354,52,o),
(345,47,o),
(336,47,cs),
(328,47,o),
(321,51,o),
(320,60,cs),
(318,69,o),
(322,86,o),
(325,102,cs),
(364,320,ls)
);
},
{
closed = 1;
nodes = (
(325,350,o),
(318,337,o),
(306,315,cs),
(288,280,o),
(259,229,o),
(228,183,cs),
(195,133,o),
(160,89,o),
(126,63,cs),
(112,52,o),
(103,47,o),
(94,47,cs),
(86,47,o),
(79,51,o),
(78,60,cs),
(76,69,o),
(80,86,o),
(83,102,cs),
(122,320,ls),
(126,340,o),
(114,350,o),
(101,350,cs),
(89,350,o),
(74,341,o),
(71,323,cs),
(32,102,ls),
(27,76,o),
(26,49,o),
(33,28,cs),
(40,9,o),
(54,-4,o),
(80,-4,cs),
(104,-4,o),
(130,7,o),
(155,25,cs),
(193,53,o),
(233,100,o),
(259,138,cs),
(294,189,o),
(322,248,o),
(332,267,c),
(343,350,l)
);
}
);
width = 622;
},
{
layerId = m002;
shapes = (
{
closed = 1;
nodes = (
(422,335,o),
(393,350,o),
(371,350,c),
(312,264,l),
(282,115,ls),
(277,90,o),
(279,62,o),
(286,39,cs),
(295,12,o),
(319,-5,o),
(351,-5,cs),
(384,-5,o),
(422,6,o),
(448,24,cs),
(486,50,o),
(520,86,o),
(542,118,cs),
(574,162,o),
(629,244,o),
(637,260,cs),
(673,331,o),
(634,350,o),
(612,350,cs),
(584,350,o),
(572,343,o),
(557,314,cs),
(544,289,o),
(528,263,o),
(502,224,cs),
(473,180,o),
(460,161,o),
(450,147,cs),
(441,135,o),
(418,106,o),
(412,100,cs),
(403,91,o),
(389,77,o),
(383,77,cs),
(378,77,o),
(380,102,o),
(383,117,cs),
(415,298,ls)
);
},
{
closed = 1;
nodes = (
(347,350,o),
(335,344,o),
(314,307,cs),
(304,289,o),
(292,267,o),
(268,230,cs),
(248,199,o),
(232,177,o),
(219,158,cs),
(210,145,o),
(195,126,o),
(177,105,cs),
(164,90,o),
(149,78,o),
(145,78,cs),
(140,78,o),
(143,109,o),
(146,125,cs),
(177,298,ls),
(183,332,o),
(160,350,o),
(134,350,cs),
(107,350,o),
(83,336,o),
(77,304,cs),
(43,113,ls),
(39,88,o),
(41,60,o),
(49,37,cs),
(58,10,o),
(85,-4,o),
(115,-4,cs),
(143,-4,o),
(184,7,o),
(209,24,cs),
(254,54,o),
(289,97,o),
(312,129,cs),
(348,183,o),
(380,243,o),
(384,250,c),
(378,350,l)
);
}
);
width = 683;
}
);
metricLeft = n;
metricRight = v;
unicode = 119;
},
{
glyphname = x;
lastChange = "2022-03-01 20:42:03 +0000";
layers = (
{
layerId = m01;
shapes = (
{
closed = 1;
nodes = (
(365,313,o),
(369,317,o),
(369,327,cs),
(369,333,o),
(367,339,o),
(362,344,cs),
(357,349,o),
(350,350,o),
(343,350,cs),
(336,349,o),
(329,346,o),
(324,341,c),
(17,44,l),
(10,36,o),
(8,28,o),
(9,21,cs),
(10,16,o),
(13,11,o),
(17,6,cs),
(21,2,o),
(26,0,o),
(33,0,cs),
(41,0,o),
(49,5,o),
(54,10,c),
(360,308,l)
);
},
{
closed = 1;
nodes = (
(103,345,o),
(97,350,o),
(89,350,cs),
(82,350,o),
(76,347,o),
(71,343,cs),
(66,339,o),
(63,333,o),
(62,327,cs),
(62,321,o),
(65,314,o),
(68,309,c),
(272,10,l),
(276,4,o),
(282,1,o),
(287,0,cs),
(294,-1,o),
(302,3,o),
(307,8,cs),
(312,13,o),
(316,20,o),
(316,27,cs),
(316,33,o),
(314,39,o),
(310,44,c),
(108,338,l)
);
}
);
width = 387;
},
{
layerId = m002;
shapes = (
{
closed = 1;
nodes = (
(382,285,o),
(388,294,o),
(388,309,cs),
(388,321,o),
(384,331,o),
(375,340,cs),
(367,348,o),
(352,350,o),
(339,350,cs),
(328,350,o),
(314,344,o),
(306,337,cs),
(36,76,ls),
(24,64,o),
(20,52,o),
(22,38,cs),
(23,29,o),
(27,21,o),
(34,12,cs),
(41,4,o),
(55,0,o),
(68,0,cs),
(82,0,o),
(96,7,o),
(106,16,cs),
(373,277,ls)
);
},
{
closed = 1;
nodes = (
(144,345,o),
(131,350,o),
(117,350,cs),
(105,350,o),
(94,347,o),
(84,339,cs),
(75,332,o),
(69,321,o),
(68,310,cs),
(68,299,o),
(73,288,o),
(78,281,cs),
(257,18,ls),
(268,2,o),
(288,0,o),
(298,0,cs),
(310,0,o),
(321,7,o),
(328,14,cs),
(335,22,o),
(342,33,o),
(342,45,cs),
(342,54,o),
(338,62,o),
(332,71,cs),
(154,331,ls)
);
}
);
width = 419;
}
);
metricLeft = "=n-10";
metricRight = n;
unicode = 120;
},
{
glyphname = y;
lastChange = "2022-03-01 21:19:19 +0000";
layers = (
{
layerId = m01;
shapes = (
{
closed = 1;
nodes = (
(327,265,l),
(258,153,o),
(150,45,o),
(100,45,cs),
(75,45,o),
(81,89,o),
(86,116,cs),
(125,327,ls),
(126,335,o),
(125,350,o),
(103,350,c),
(77,350,o),
(75,332,o),
(74,327,cs),
(35,116,ls),
(24,59,o),
(35,-4,o),
(92,-4,cs),
(176,-4,o),
(254,80,o),
(311,160,c)
);
},
{
closed = 1;
nodes = (
(386,344,o),
(375,351,o),
(358,351,cs),
(347,351,o),
(333,340,o),
(331,329,cs),
(258,-94,ls),
(250,-142,o),
(238,-194,o),
(206,-223,cs),
(187,-242,o),
(157,-249,o),
(123,-249,cs),
(97,-249,o),
(74,-235,o),
(57,-211,cs),
(45,-194,o),
(25,-186,o),
(13,-196,cs),
(-3,-209,o),
(1,-222,o),
(19,-244,cs),
(42,-273,o),
(76,-299,o),
(123,-299,cs),
(174,-299,o),
(211,-286,o),
(238,-262,cs),
(277,-227,o),
(296,-168,o),
(309,-94,cs),
(383,327,ls)
);
}
);
width = 400;
},
{
layerId = m002;
shapes = (
{
closed = 1;
nodes = (
(331,267,l),
(273,162,o),
(170,79,o),
(149,79,cs),
(137,79,o),
(141,94,o),
(146,119,cs),
(180,305,ls),
(184,329,o),
(168,351,o),
(136,351,cs),
(100,351,o),
(83,328,o),
(80,313,cs),
(46,127,ls),
(34,63,o),
(58,-5,o),
(126,-5,cs),
(208,-5,o),
(268,42,o),
(313,97,c)
);
},
{
closed = 1;
nodes = (
(438,335,o),
(414,350,o),
(384,350,cs),
(356,350,o),
(337,335,o),
(332,306,cs),
(275,-20,ls),
(264,-83,o),
(261,-144,o),
(230,-174,cs),
(211,-193,o),
(179,-202,o),
(158,-202,cs),
(122,-202,o),
(98,-178,o),
(89,-169,cs),
(70,-150,o),
(33,-149,o),
(13,-177,cs),
(2,-191,o),
(4,-218,o),
(17,-233,cs),
(34,-252,o),
(70,-300,o),
(160,-300,cs),
(215,-300,o),
(266,-276,o),
(305,-237,cs),
(353,-189,o),
(358,-112,o),
(373,-28,cs),
(433,305,ls)
);
}
);
width = 464;
}
);
metricLeft = n;
metricRight = n;
unicode = 121;
},
{
glyphname = z;
lastChange = "2022-03-01 21:20:18 +0000";
layers = (
{
layerId = m01;
shapes = (
{
closed = 1;
nodes = (
(375,313,o),
(379,317,o),
(379,327,cs),
(379,333,o),
(377,339,o),
(372,344,cs),
(367,349,o),
(360,350,o),
(353,350,cs),
(346,349,o),
(339,346,o),
(334,341,c),
(27,44,ls),
(19,37,o),
(18,28,o),
(19,21,cs),
(20,16,o),
(23,11,o),
(27,6,cs),
(31,2,o),
(36,0,o),
(43,0,cs),
(51,0,o),
(59,5,o),
(64,10,c),
(370,308,l)
);
},
{
closed = 1;
nodes = (
(300,0,ls),
(320,0,o),
(326,13,o),
(326,25,cs),
(326,37,o),
(320,50,o),
(300,50,cs),
(63,50,l),
(41,0,l)
);
},
{
closed = 1;
nodes = (
(355,350,l),
(98,350,ls),
(78,350,o),
(72,337,o),
(72,325,cs),
(72,313,o),
(78,300,o),
(98,300,cs),
(331,300,l)
);
}
);
width = 397;
},
{
layerId = m002;
shapes = (
{
closed = 1;
nodes = (
(392,285,o),
(398,294,o),
(398,309,cs),
(398,321,o),
(393,331,o),
(385,340,cs),
(376,348,o),
(362,350,o),
(349,350,cs),
(337,350,o),
(324,344,o),
(316,337,cs),
(46,75,ls),
(35,65,o),
(30,52,o),
(32,38,cs),
(33,29,o),
(37,21,o),
(44,12,cs),
(51,4,o),
(65,0,o),
(78,0,cs),
(92,0,o),
(106,7,o),
(116,16,cs),
(383,277,ls)
);
},
{
closed = 1;
nodes = (
(304,0,ls),
(334,0,o),
(352,19,o),
(352,43,cs),
(352,67,o),
(334,85,o),
(304,85,cs),
(115,85,l),
(77,0,l)
);
},
{
closed = 1;
nodes = (
(350,350,l),
(126,350,ls),
(96,350,o),
(78,329,o),
(78,305,cs),
(78,281,o),
(96,260,o),
(126,260,cs),
(308,260,l)
);
}
);
width = 430;
}
);
metricLeft = n;
metricRight = n;
unicode = 122;
},
{
glyphname = a.sc;
lastChange = "2022-02-27 16:51:24 +0000";
layers = (
{
layerId = m01;
name = "QBeginners Light";
shapes = (
{
closed = 1;
nodes = (
(249,365,l),
(253,381,o),
(243,396,o),
(225,396,cs),
(210,396,o),
(205,387,o),
(200,377,cs),
(22,35,ls),
(13,18,o),
(25,0,o),
(42,0,cs),
(57,0,o),
(63,6,o),
(71,21,cs),
(247,359,l)
);
},
{
closed = 1;
nodes = (
(247,175,l),
(243,216,l),
(129,216,l),
(106,175,l)
);
},
{
closed = 1;
nodes = (
(201,358,l),
(230,25,ls),
(231,13,o),
(237,0,o),
(256,0,cs),
(271,0,o),
(282,10,o),
(280,28,cs),
(250,378,l)
);
}
);
width = 352;
},
{
layerId = m002;
name = "QBeginners Light";
shapes = (
{
closed = 1;
nodes = (
(285,348,l),
(294,380,o),
(276,396,o),
(245,396,cs),
(221,396,o),
(209,383,o),
(201,367,cs),
(44,65,ls),
(28,34,o),
(38,0,o),
(71,0,cs),
(93,0,o),
(108,9,o),
(119,31,cs),
(268,317,l)
);
},
{
closed = 1;
nodes = (
(293,151,l),
(286,221,l),
(146,221,l),
(103,151,l)
);
},
{
closed = 1;
nodes = (
(220,326,l),
(237,45,ls),
(239,18,o),
(251,0,o),
(279,0,cs),
(306,0,o),
(322,21,o),
(319,50,cs),
(287,371,l)
);
}
);
width = 403;
}
);
metricLeft = A;
metricRight = A;
},
{
glyphname = b.sc;
lastChange = "2022-02-27 21:11:04 +0000";
layers = (
{
layerId = m01;
shapes = (
{
closed = 1;
nodes = (
(133,384,o),
(122,396,o),
(107,396,cs),
(92,396,o),
(82,387,o),
(79,369,cs),
(20,32,ls),
(17,15,o),
(28,0,o),
(44,0,cs),
(56,0,o),
(67,8,o),
(70,27,cs),
(129,363,ls)
);
},
{
closed = 1;
nodes = (
(201,-1,o),
(239,18,o),
(253,92,cs),
(267,175,o),
(178,224,o),
(84,224,c),
(76,171,l),
(158,171,o),
(211,144,o),
(204,100,cs),
(196,59,o),
(161,49,o),
(51,50,c),
(43,0,l)
);
},
{
closed = 1;
nodes = (
(239,171,o),
(274,212,o),
(286,281,cs),
(300,360,o),
(225,396,o),
(106,396,c),
(96,345,l),
(199,346,o),
(244,329,o),
(236,286,cs),
(230,247,o),
(211,224,o),
(88,224,c),
(79,171,l)
);
}
);
width = 299;
},
{
layerId = m002;
shapes = (
{
closed = 1;
nodes = (
(192,374,o),
(170,396,o),
(141,396,cs),
(116,396,o),
(97,380,o),
(92,352,cs),
(39,54,ls),
(34,25,o),
(56,0,o),
(86,0,cs),
(108,0,o),
(129,16,o),
(134,43,cs),
(186,340,ls)
);
},
{
closed = 1;
nodes = (
(229,0,o),
(282,17,o),
(296,100,cs),
(313,198,o),
(200,236,o),
(139,236,c),
(125,153,l),
(172,153,o),
(212,141,o),
(208,115,cs),
(204,91,o),
(183,80,o),
(99,80,c),
(85,0,l)
);
},
{
closed = 1;
nodes = (
(270,153,o),
(311,194,o),
(325,267,cs),
(341,361,o),
(246,396,o),
(138,396,c),
(121,317,l),
(216,317,o),
(241,302,o),
(237,280,cs),
(232,253,o),
(221,236,o),
(142,236,c),
(128,153,l)
);
}
);
width = 359;
}
);
metricLeft = B;
metricRight = B;
},
{
glyphname = c.sc;
lastChange = "2022-02-27 17:01:44 +0000";
layers = (
{
layerId = m01;
shapes = (
{
closed = 1;
nodes = (
(221,345,o),
(233,339,o),
(235,326,cs),
(237,313,o),
(252,305,o),
(266,309,cs),
(281,313,o),
(284,328,o),
(282,338,cs),
(275,378,o),
(238,396,o),
(198,396,cs),
(105,397,o),
(66,302,o),
(50,209,cs),
(47,197,o),
(35,135,o),
(35,96,cs),
(35,55,o),
(50,-4,o),
(105,-4,cs),
(166,-4,o),
(213,34,o),
(232,76,cs),
(241,97,o),
(244,105,o),
(244,110,cs),
(244,123,o),
(231,131,o),
(219,131,cs),
(205,131,o),
(198,122,o),
(189,101,cs),
(176,71,o),
(148,49,o),
(104,49,cs),
(90,49,o),
(84,74,o),
(84,95,cs),
(84,137,o),
(96,189,o),
(100,211,cs),
(113,278,o),
(140,346,o),
(198,345,cs)
);
}
);
width = 287;
},
{
layerId = m002;
shapes = (
{
closed = 1;
nodes = (
(227,306,o),
(234,301,o),
(238,290,cs),
(245,272,o),
(270,259,o),
(297,266,cs),
(321,273,o),
(326,301,o),
(321,328,cs),
(311,378,o),
(267,396,o),
(234,396,cs),
(122,397,o),
(82,297,o),
(67,213,cs),
(64,198,o),
(54,140,o),
(54,106,cs),
(54,62,o),
(73,-4,o),
(140,-4,cs),
(208,-4,o),
(258,37,o),
(278,82,cs),
(288,106,o),
(290,115,o),
(290,122,cs),
(290,149,o),
(267,167,o),
(240,167,cs),
(216,167,o),
(210,152,o),
(197,121,cs),
(189,102,o),
(175,88,o),
(164,88,cs),
(155,88,o),
(152,103,o),
(152,120,cs),
(152,139,o),
(162,185,o),
(166,204,cs),
(176,259,o),
(192,306,o),
(216,306,cs)
);
}
);
width = 350;
}
);
metricLeft = C;
metricRight = C;
},
{
glyphname = d.sc;
lastChange = "2022-02-27 17:02:52 +0000";
layers = (
{
layerId = m01;
shapes = (
{
closed = 1;
nodes = (
(80,0,ls),
(181,0,o),
(275,78,o),
(298,210,cs),
(316,315,o),
(233,396,o),
(127,396,cs),
(106,396,l),
(101,342,l),
(130,342,ls),
(207,342,o),
(261,287,o),
(248,214,cs),
(230,107,o),
(155,50,o),
(80,50,cs),
(54,50,l),
(43,0,l)
);
},
{
closed = 1;
nodes = (
(131,377,o),
(125,396,o),
(107,396,cs),
(90,396,o),
(82,388,o),
(79,369,cs),
(19,29,ls),
(16,14,o),
(26,0,o),
(44,0,cs),
(62,0,o),
(67,12,o),
(69,22,cs),
(128,359,ls)
);
}
);
width = 323;
},
{
layerId = m002;
shapes = (
{
closed = 1;
nodes = (
(117,0,ls),
(218,0,o),
(312,78,o),
(335,205,cs),
(353,313,o),
(266,396,o),
(158,396,cs),
(140,396,l),
(130,316,l),
(161,316,ls),
(218,316,o),
(250,270,o),
(240,216,cs),
(227,129,o),
(174,74,o),
(117,74,cs),
(105,74,l),
(84,0,l)
);
},
{
closed = 1;
nodes = (
(189,367,o),
(173,396,o),
(141,396,cs),
(118,396,o),
(97,385,o),
(91,353,cs),
(38,52,ls),
(33,24,o),
(54,0,o),
(85,0,cs),
(112,0,o),
(127,17,o),
(132,38,c),
(184,336,ls)
);
}
);
width = 380;
}
);
metricLeft = D;
metricRight = D;
},
{
glyphname = e.sc;
lastChange = "2022-03-01 16:52:55 +0000";
layers = (
{
layerId = m01;
shapes = (
{
closed = 1;
nodes = (
(87,385,o),
(81,399,o),
(63,399,cs),
(46,399,o),
(38,390,o),
(35,374,cs),
(-26,29,ls),
(-29,13,o),
(-19,0,o),
(-2,0,cs),
(15,0,o),
(22,12,o),
(24,23,cs),
(84,368,ls)
);
},
{
closed = 1;
nodes = (
(188,0,ls),
(203,0,o),
(213,12,o),
(213,26,cs),
(213,39,o),
(205,51,o),
(188,51,cs),
(5,51,l),
(-4,0,l)
);
},
{
closed = 1;
nodes = (
(209,190,ls),
(226,190,o),
(234,201,o),
(234,214,cs),
(234,227,o),
(226,238,o),
(209,238,cs),
(38,238,l),
(30,190,l)
);
},
{
closed = 1;
nodes = (
(250,348,ls),
(266,348,o),
(276,360,o),
(276,374,cs),
(276,386,o),
(268,399,o),
(250,399,cs),
(65,399,l),
(56,348,l)
);
}
);
width = 241;
},
{
layerId = m002;
shapes = (
{
closed = 1;
nodes = (
(136,374,o),
(113,396,o),
(83,396,cs),
(52,396,o),
(36,377,o),
(32,355,cs),
(-21,52,ls),
(-26,25,o),
(-11,0,o),
(21,0,cs),
(51,0,o),
(73,19,o),
(77,39,cs),
(130,339,ls)
);
},
{
closed = 1;
nodes = (
(195,0,ls),
(224,0,o),
(244,18,o),
(244,44,cs),
(244,69,o),
(226,85,o),
(197,85,cs),
(37,85,l),
(21,0,l)
);
},
{
closed = 1;
nodes = (
(208,157,ls),
(238,157,o),
(260,176,o),
(260,201,cs),
(260,227,o),
(239,245,o),
(211,245,cs),
(56,245,l),
(39,157,l)
);
},
{
closed = 1;
nodes = (
(249,303,ls),
(277,303,o),
(298,325,o),
(298,351,cs),
(298,377,o),
(279,396,o),
(250,396,cs),
(82,396,l),
(67,303,l)
);
}
);
width = 268;
}
);
metricLeft = E;
metricRight = E;
},
{
glyphname = f.sc;
lastChange = "2022-02-27 17:06:40 +0000";
layers = (
{
layerId = m01;
shapes = (
{
closed = 1;
nodes = (
(131,387,o),
(124,399,o),
(107,399,cs),
(90,399,o),
(83,390,o),
(80,374,cs),
(19,29,ls),
(16,14,o),
(25,0,o),
(42,0,cs),
(60,0,o),
(66,13,o),
(68,23,cs),
(129,368,l)
);
},
{
closed = 1;
nodes = (
(248,190,ls),
(264,190,o),
(273,200,o),
(273,214,cs),
(273,228,o),
(264,238,o),
(248,238,cs),
(80,238,l),
(72,190,l)
);
},
{
closed = 1;
nodes = (
(295,348,ls),
(312,348,o),
(320,360,o),
(320,374,cs),
(320,387,o),
(312,399,o),
(295,399,cs),
(107,399,l),
(100,348,l)
);
}
);
width = 330;
},
{
layerId = m002;
shapes = (
{
closed = 1;
nodes = (
(195,374,o),
(172,396,o),
(142,396,cs),
(115,396,o),
(97,380,o),
(92,354,cs),
(40,54,ls),
(35,28,o),
(50,0,o),
(80,0,cs),
(110,0,o),
(133,16,o),
(138,45,cs),
(189,339,ls)
);
},
{
closed = 1;
nodes = (
(266,157,ls),
(295,157,o),
(314,176,o),
(314,201,cs),
(314,227,o),
(294,245,o),
(266,245,cs),
(115,245,l),
(100,157,l)
);
},
{
closed = 1;
nodes = (
(305,303,ls),
(333,303,o),
(356,323,o),
(356,350,cs),
(356,377,o),
(336,396,o),
(308,396,cs),
(142,396,l),
(126,303,l)
);
}
);
width = 385;
}
);
metricLeft = F;
metricRight = F;
},
{
glyphname = g.sc;
lastChange = "2022-02-27 17:23:53 +0000";
layers = (
{
layerId = m01;
shapes = (
{
closed = 1;
nodes = (
(259,225,o),
(258,230,o),
(215,164,cs),
(194,132,o),
(138,48,o),
(105,48,cs),
(93,48,o),
(89,64,o),
(89,89,cs),
(89,125,o),
(96,188,o),
(100,211,cs),
(104,236,o),
(112,346,o),
(238,346,cs),
(260,346,o),
(268,342,o),
(271,325,cs),
(273,312,o),
(288,304,o),
(302,308,cs),
(316,311,o),
(320,325,o),
(318,337,cs),
(311,377,o),
(277,396,o),
(237,396,cs),
(67,396,o),
(53,230,o),
(50,214,cs),
(47,195,o),
(39,129,o),
(39,92,cs),
(39,49,o),
(56,-4,o),
(103,-4,cs),
(151,-4,o),
(198,52,o),
(243,115,c),
(274,225,l)
);
},
{
closed = 1;
nodes = (
(298,214,o),
(289,225,o),
(274,225,cs),
(256,225,o),
(247,214,o),
(246,199,c),
(215,29,ls),
(212,15,o),
(220,1,o),
(237,0,cs),
(255,-1,o),
(263,12,o),
(265,25,cs),
(295,196,ls)
);
}
);
width = 336;
},
{
layerId = m002;
shapes = (
{
closed = 1;
nodes = (
(267,236,o),
(252,210,o),
(222,165,cs),
(183,106,o),
(158,84,o),
(151,84,cs),
(146,84,o),
(148,105,o),
(149,130,cs),
(150,156,o),
(153,176,o),
(157,197,cs),
(161,220,o),
(167,305,o),
(241,305,cs),
(246,304,o),
(264,304,o),
(267,295,cs),
(271,282,o),
(297,269,o),
(323,280,cs),
(347,290,o),
(356,310,o),
(349,336,cs),
(340,370,o),
(319,396,o),
(262,396,cs),
(110,396,o),
(81,289,o),
(66,209,cs),
(66,208,o),
(53,135,o),
(53,102,cs),
(53,59,o),
(75,-4,o),
(130,-4,cs),
(178,-4,o),
(231,52,o),
(276,115,c),
(303,236,l)
);
},
{
closed = 1;
nodes = (
(341,204,o),
(329,236,o),
(302,236,cs),
(300,236,o),
(266,229,o),
(262,213,cs),
(223,45,ls),
(219,28,o),
(230,0,o),
(268,0,cs),
(292,0,o),
(310,22,o),
(312,36,cs),
(338,188,ls)
);
}
);
width = 396;
}
);
metricLeft = G;
metricRight = G;
},
{
glyphname = h.sc;
lastChange = "2022-02-27 17:25:56 +0000";
layers = (
{
layerId = m01;
shapes = (
{
closed = 1;
nodes = (
(132,386,o),
(122,399,o),
(108,399,cs),
(92,399,o),
(82,388,o),
(80,374,cs),
(19,29,ls),
(16,13,o),
(26,0,o),
(43,0,cs),
(60,0,o),
(67,12,o),
(69,23,cs),
(129,368,ls)
);
},
{
closed = 1;
nodes = (
(296,190,l),
(305,238,l),
(93,238,l),
(84,190,l)
);
},
{
closed = 1;
nodes = (
(366,385,o),
(357,399,o),
(340,399,cs),
(325,399,o),
(316,389,o),
(314,377,cs),
(253,29,ls),
(250,14,o),
(257,0,o),
(276,0,cs),
(291,0,o),
(300,11,o),
(302,22,cs),
(363,369,ls)
);
}
);
width = 374;
},
{
layerId = m002;
shapes = (
{
closed = 1;
nodes = (
(196,372,o),
(175,396,o),
(147,396,cs),
(120,396,o),
(96,377,o),
(92,354,cs),
(40,51,ls),
(35,20,o),
(59,0,o),
(87,0,cs),
(115,0,o),
(134,18,o),
(138,39,cs),
(190,340,ls)
);
},
{
closed = 1;
nodes = (
(281,158,l),
(297,243,l),
(157,243,l),
(141,158,l)
);
},
{
closed = 1;
nodes = (
(402,373,o),
(379,396,o),
(350,396,cs),
(325,396,o),
(302,378,o),
(298,356,cs),
(245,50,ls),
(240,22,o),
(261,0,o),
(292,0,cs),
(317,0,o),
(339,16,o),
(343,37,cs),
(396,340,ls)
);
}
);
width = 426;
}
);
metricLeft = H;
metricRight = H;
},
{
glyphname = i.sc;
lastChange = "2022-02-27 17:25:35 +0000";
layers = (
{
layerId = m01;
shapes = (
{
closed = 1;
nodes = (
(131,387,o),
(124,396,o),
(107,396,cs),
(91,396,o),
(83,390,o),
(80,374,cs),
(19,29,ls),
(16,14,o),
(25,0,o),
(42,0,cs),
(62,0,o),
(65,16,o),
(68,22,c),
(129,368,l)
);
}
);
width = 140;
},
{
layerId = m002;
shapes = (
{
closed = 1;
nodes = (
(195,373,o),
(175,396,o),
(145,396,cs),
(119,396,o),
(96,379,o),
(92,354,cs),
(39,51,ls),
(34,23,o),
(52,0,o),
(82,0,cs),
(111,0,o),
(131,17,o),
(135,38,cs),
(189,339,ls)
);
}
);
width = 219;
}
);
metricLeft = I;
metricRight = I;
},
{
glyphname = j.sc;
lastChange = "2022-03-01 18:40:40 +0000";
layers = (
{
layerId = m01;
shapes = (
{
closed = 1;
nodes = (
(172,128,ls),
(167,100,o),
(161,74,o),
(145,59,cs),
(136,50,o),
(122,47,o),
(104,47,cs),
(91,47,o),
(82,53,o),
(73,64,cs),
(62,80,o),
(45,85,o),
(33,75,cs),
(21,64,o),
(21,50,o),
(35,32,cs),
(51,13,o),
(72,-4,o),
(104,-4,cs),
(135,-4,o),
(159,5,o),
(177,20,cs),
(202,42,o),
(213,80,o),
(221,124,cs),
(264,366,ls),
(267,384,o),
(260,396,o),
(242,396,cs),
(227,396,o),
(219,389,o),
(215,373,c)
);
}
);
width = 275;
},
{
layerId = m002;
shapes = (
{
closed = 1;
nodes = (
(188,172,ls),
(184,149,o),
(178,111,o),
(167,100,cs),
(160,93,o),
(154,91,o),
(145,91,cs),
(135,91,o),
(130,98,o),
(125,103,cs),
(105,122,o),
(68,121,o),
(50,95,cs),
(38,79,o),
(40,54,o),
(54,39,cs),
(62,32,o),
(86,-4,o),
(148,-4,cs),
(183,-4,o),
(211,10,o),
(236,34,cs),
(269,68,o),
(280,134,o),
(285,160,cs),
(316,337,ls),
(322,371,o),
(303,396,o),
(271,396,cs),
(240,396,o),
(224,374,o),
(220,351,cs)
);
}
);
width = 347;
}
);
metricLeft = J;
metricRight = J;
},
{
glyphname = k.sc;
lastChange = "2022-02-27 17:34:33 +0000";
layers = (
{
layerId = m01;
shapes = (
{
closed = 1;
nodes = (
(296,350,ls),
(306,358,o),
(309,368,o),
(311,372,c),
(312,386,o),
(304,399,o),
(290,399,cs),
(282,400,o),
(274,397,o),
(265,388,c),
(66,226,l),
(66,203,l),
(112,199,l)
);
},
{
closed = 1;
nodes = (
(66,228,l),
(66,207,l),
(199,16,ls),
(205,6,o),
(214,0,o),
(225,0,cs),
(235,0,o),
(244,7,o),
(248,18,cs),
(250,26,o),
(248,35,o),
(241,42,c),
(114,227,l)
);
},
{
closed = 1;
nodes = (
(133,385,o),
(126,399,o),
(109,399,cs),
(93,399,o),
(84,391,o),
(81,374,cs),
(20,32,ls),
(18,15,o),
(28,0,o),
(44,0,cs),
(61,0,o),
(68,14,o),
(70,27,cs),
(130,368,ls)
);
}
);
width = 321;
},
{
layerId = m002;
shapes = (
{
closed = 1;
nodes = (
(326,307,ls),
(340,319,o),
(346,332,o),
(348,343,cs),
(352,369,o),
(331,393,o),
(302,393,cs),
(290,393,o),
(273,388,o),
(260,378,cs),
(157,294,l),
(138,171,l),
(159,171,l)
);
},
{
closed = 1;
nodes = (
(149,240,l),
(134,119,l),
(201,23,ls),
(211,8,o),
(227,0,o),
(245,0,cs),
(265,0,o),
(287,12,o),
(292,34,cs),
(295,46,o),
(293,60,o),
(285,72,cs),
(168,240,l)
);
},
{
closed = 1;
nodes = (
(195,375,o),
(168,393,o),
(144,393,cs),
(118,393,o),
(96,377,o),
(92,354,cs),
(39,54,ls),
(34,25,o),
(55,0,o),
(86,0,cs),
(111,0,o),
(131,15,o),
(137,41,c),
(189,339,ls)
);
}
);
width = 377;
}
);
metricLeft = K;
metricRight = K;
},
{
glyphname = l.sc;
lastChange = "2022-02-27 17:41:30 +0000";
layers = (
{
layerId = m01;
shapes = (
{
closed = 1;
nodes = (
(132,385,o),
(125,396,o),
(108,396,cs),
(94,396,o),
(83,391,o),
(80,374,cs),
(19,29,ls),
(16,13,o),
(26,0,o),
(43,0,cs),
(60,0,o),
(66,13,o),
(68,23,cs),
(129,368,ls)
);
},
{
closed = 1;
nodes = (
(233,0,ls),
(249,0,o),
(258,13,o),
(258,26,cs),
(258,39,o),
(249,51,o),
(233,51,cs),
(36,51,l),
(36,0,l)
);
}
);
width = 330;
},
{
layerId = m002;
shapes = (
{
closed = 1;
nodes = (
(194,373,o),
(174,396,o),
(144,396,cs),
(115,396,o),
(96,376,o),
(92,353,cs),
(38,50,ls),
(33,22,o),
(53,0,o),
(82,0,cs),
(110,0,o),
(130,17,o),
(135,38,c),
(188,339,ls)
);
},
{
closed = 1;
nodes = (
(252,0,ls),
(280,0,o),
(301,21,o),
(301,46,cs),
(301,71,o),
(280,91,o),
(252,91,cs),
(98,91,l),
(81,0,l)
);
}
);
width = 383;
}
);
metricLeft = L;
metricRight = L;
},
{
glyphname = m.sc;
lastChange = "2022-02-27 17:47:09 +0000";
layers = (
{
layerId = m01;
shapes = (
{
closed = 1;
nodes = (
(136,379,ls),
(133,390,o),
(123,396,o),
(107,396,c),
(93,352,l),
(189,17,ls),
(192,6,o),
(199,0,o),
(213,0,c),
(230,51,l)
);
},
{
closed = 1;
nodes = (
(108,396,l),
(95,396,o),
(83,392,o),
(80,374,cs),
(19,29,ls),
(16,14,o),
(25,0,o),
(42,0,cs),
(60,0,o),
(67,13,o),
(69,25,cs),
(128,368,l)
);
},
{
closed = 1;
nodes = (
(401,0,o),
(408,12,o),
(410,23,cs),
(470,368,ls),
(473,386,o),
(465,396,o),
(450,396,c),
(416,345,l),
(360,29,ls),
(357,14,o),
(367,0,o),
(383,0,cs)
);
},
{
closed = 1;
nodes = (
(212,0,l),
(224,0,o),
(230,4,o),
(237,15,cs),
(454,339,l),
(451,396,l),
(443,396,o),
(430,393,o),
(425,385,cs),
(201,50,l)
);
}
);
width = 482;
},
{
layerId = m002;
shapes = (
{
closed = 1;
nodes = (
(193,362,ls),
(186,387,o),
(167,396,o),
(139,396,c),
(115,283,l),
(189,34,ls),
(196,11,o),
(212,0,o),
(245,0,c),
(277,77,l)
);
},
{
closed = 1;
nodes = (
(140,396,l),
(112,396,o),
(96,383,o),
(91,353,cs),
(38,51,ls),
(33,20,o),
(56,0,o),
(83,0,cs),
(111,0,o),
(132,18,o),
(136,41,cs),
(179,290,l)
);
},
{
closed = 1;
nodes = (
(434,0,o),
(450,16,o),
(454,39,cs),
(507,339,ls),
(514,377,o),
(495,396,o),
(465,396,c),
(397,278,l),
(356,49,ls),
(352,24,o),
(373,0,o),
(407,0,cs)
);
},
{
closed = 1;
nodes = (
(241,0,l),
(274,0,o),
(289,6,o),
(303,28,cs),
(456,262,l),
(466,396,l),
(439,396,o),
(423,387,o),
(410,367,cs),
(223,83,l)
);
}
);
width = 537;
}
);
metricLeft = M;
metricRight = M;
},
{
glyphname = n.sc;
lastChange = "2022-02-27 17:49:38 +0000";
layers = (
{
layerId = m01;
shapes = (
{
closed = 1;
nodes = (
(134,381,ls),
(130,390,o),
(119,403,o),
(98,398,c),
(93,351,l),
(253,15,l),
(260,4,o),
(272,-3,o),
(287,1,c),
(292,52,l)
);
},
{
closed = 1;
nodes = (
(114,399,l),
(92,401,o),
(84,392,o),
(80,374,cs),
(19,29,ls),
(17,13,o),
(26,0,o),
(43,0,cs),
(60,0,o),
(67,12,o),
(69,25,cs),
(130,368,l)
);
},
{
closed = 1;
nodes = (
(297,-3,o),
(300,16,o),
(303,22,c),
(363,368,ls),
(366,385,o),
(359,399,o),
(342,399,cs),
(326,399,o),
(317,391,o),
(314,374,cs),
(255,37,l),
(272,1,l)
);
}
);
width = 375;
},
{
layerId = m002;
shapes = (
{
closed = 1;
nodes = (
(189,365,ls),
(179,385,o),
(171,396,o),
(139,396,c),
(127,271,l),
(246,28,l),
(255,5,o),
(267,0,o),
(293,0,c),
(298,138,l)
);
},
{
closed = 1;
nodes = (
(141,396,l),
(107,396,o),
(96,381,o),
(91,353,cs),
(38,51,ls),
(33,20,o),
(56,0,o),
(83,0,cs),
(111,0,o),
(132,18,o),
(136,41,cs),
(176,271,l)
);
},
{
closed = 1;
nodes = (
(326,0,o),
(334,11,o),
(339,39,cs),
(392,339,ls),
(398,371,o),
(378,395,o),
(347,395,cs),
(321,395,o),
(298,379,o),
(294,354,cs),
(257,138,l),
(291,0,l)
);
}
);
width = 422;
}
);
metricLeft = N;
metricRight = N;
},
{
glyphname = o.sc;
lastChange = "2022-02-27 17:52:01 +0000";
layers = (
{
layerId = m01;
shapes = (
{
closed = 1;
nodes = (
(226,0,o),
(329,155,o),
(348,265,cs),
(360,332,o),
(318,396,o),
(225,396,cs),
(137,396,o),
(84,343,o),
(59,253,cs),
(52,230,o),
(47,202,o),
(45,175,cs),
(38,94,o),
(57,0,o),
(132,0,cs)
);
},
{
closed = 1;
nodes = (
(98,51,o),
(89,116,o),
(93,167,cs),
(96,191,o),
(101,216,o),
(107,235,cs),
(128,312,o),
(159,345,o),
(223,345,cs),
(295,345,o),
(304,295,o),
(299,266,cs),
(283,175,o),
(183,51,o),
(131,51,cs)
);
}
);
width = 363;
},
{
layerId = m002;
shapes = (
{
closed = 1;
nodes = (
(263,0,o),
(363,149,o),
(380,251,cs),
(394,328,o),
(343,396,o),
(247,396,cs),
(155,396,o),
(100,335,o),
(76,250,cs),
(70,228,o),
(64,202,o),
(62,178,cs),
(56,100,o),
(71,0,o),
(161,0,cs)
);
},
{
closed = 1;
nodes = (
(159,90,o),
(156,124,o),
(160,167,cs),
(161,186,o),
(165,206,o),
(169,222,cs),
(187,286,o),
(203,305,o),
(244,305,cs),
(284,305,o),
(287,284,o),
(282,258,cs),
(269,184,o),
(195,90,o),
(173,90,cs)
);
}
);
width = 417;
}
);
metricLeft = O;
metricRight = O;
},
{
glyphname = p.sc;
lastChange = "2022-02-27 17:57:45 +0000";
layers = (
{
layerId = m01;
shapes = (
{
closed = 1;
nodes = (
(178,190,o),
(282,184,o),
(300,287,cs),
(314,368,o),
(215,396,o),
(109,396,c),
(109,350,l),
(203,350,o),
(258,331,o),
(251,294,cs),
(241,235,o),
(165,241,o),
(96,241,c),
(89,190,l)
);
},
{
closed = 1;
nodes = (
(133,387,o),
(127,396,o),
(109,396,cs),
(92,396,o),
(83,387,o),
(81,376,cs),
(20,31,ls),
(17,14,o),
(28,0,o),
(44,0,cs),
(62,0,o),
(68,14,o),
(70,25,cs),
(130,370,ls)
);
}
);
width = 311;
},
{
layerId = m002;
shapes = (
{
closed = 1;
nodes = (
(190,165,o),
(314,146,o),
(337,272,cs),
(354,370,o),
(247,396,o),
(143,396,c),
(143,305,l),
(230,309,o),
(245,303,o),
(241,283,cs),
(236,255,o),
(190,250,o),
(140,250,c),
(129,165,l)
);
},
{
closed = 1;
nodes = (
(194,379,o),
(170,396,o),
(143,396,cs),
(116,396,o),
(96,382,o),
(92,357,cs),
(39,54,ls),
(34,26,o),
(54,0,o),
(86,0,cs),
(113,0,o),
(130,17,o),
(136,41,c),
(188,342,ls)
);
}
);
width = 370;
}
);
metricLeft = P;
metricRight = P;
},
{
glyphname = q.sc;
lastChange = "2022-02-27 20:46:28 +0000";
layers = (
{
layerId = m01;
shapes = (
{
closed = 1;
nodes = (
(226,-2,o),
(326,138,o),
(346,250,cs),
(360,328,o),
(312,396,o),
(224,396,cs),
(137,396,o),
(85,345,o),
(59,252,cs),
(52,228,o),
(47,200,o),
(44,173,cs),
(37,91,o),
(57,-2,o),
(134,-2,cs)
);
},
{
closed = 1;
nodes = (
(153,109,o),
(137,108,o),
(126,96,cs),
(119,87,o),
(119,73,o),
(132,60,cs),
(207,-16,ls),
(219,-28,o),
(234,-30,o),
(244,-22,cs),
(255,-14,o),
(255,5,o),
(244,17,cs),
(166,96,ls)
);
},
{
closed = 1;
nodes = (
(94,49,o),
(88,111,o),
(93,163,cs),
(95,189,o),
(101,214,o),
(107,235,cs),
(128,311,o),
(156,346,o),
(220,346,cs),
(286,346,o),
(306,300,o),
(297,254,cs),
(282,164,o),
(191,49,o),
(134,49,cs)
);
}
);
width = 364;
},
{
layerId = m002;
shapes = (
{
closed = 1;
nodes = (
(265,-2,o),
(360,131,o),
(379,237,cs),
(393,319,o),
(340,396,o),
(254,396,cs),
(154,396,o),
(100,335,o),
(76,248,cs),
(70,226,o),
(63,199,o),
(62,174,cs),
(55,97,o),
(76,-2,o),
(166,-2,cs)
);
},
{
closed = 1;
nodes = (
(216,143,o),
(193,148,o),
(177,128,cs),
(161,111,o),
(169,84,o),
(190,63,cs),
(255,-4,ls),
(275,-24,o),
(295,-26,o),
(312,-10,cs),
(334,8,o),
(326,31,o),
(306,52,cs),
(239,122,l)
);
},
{
closed = 1;
nodes = (
(153,87,o),
(147,119,o),
(151,162,cs),
(153,183,o),
(158,208,o),
(163,226,cs),
(181,289,o),
(201,305,o),
(242,305,cs),
(279,305,o),
(295,281,o),
(289,246,cs),
(275,173,o),
(205,87,o),
(166,87,cs)
);
}
);
width = 418;
},
{
associatedMasterId = m01;
attr = {
axisRules = (
{
max = 800;
min = 600;
}
);
};
layerId = "78E4DEBE-5AF0-4A27-8A2A-2645273D5E90";
name = "28 Feb 22, 07:39";
shapes = (
{
closed = 1;
nodes = (
(226,-2,o),
(326,138,o),
(346,250,cs),
(360,328,o),
(312,396,o),
(224,396,cs),
(137,396,o),
(85,345,o),
(59,252,cs),
(52,228,o),
(47,200,o),
(44,173,cs),
(37,91,o),
(57,-2,o),
(134,-2,cs)
);
},
{
closed = 1;
nodes = (
(153,109,o),
(137,108,o),
(126,96,cs),
(119,87,o),
(119,73,o),
(132,60,cs),
(207,-16,ls),
(219,-28,o),
(234,-30,o),
(244,-22,cs),
(255,-14,o),
(255,5,o),
(244,17,cs),
(166,96,ls)
);
},
{
closed = 1;
nodes = (
(94,49,o),
(88,111,o),
(93,163,cs),
(95,189,o),
(101,214,o),
(107,235,cs),
(128,311,o),
(156,346,o),
(220,346,cs),
(286,346,o),
(306,300,o),
(297,254,cs),
(282,164,o),
(191,49,o),
(134,49,cs)
);
}
);
visible = 1;
width = 364;
},
{
associatedMasterId = m002;
attr = {
axisRules = (
{
max = 800;
min = 600;
}
);
};
layerId = "43DFC917-672A-4281-A2FE-390A7FF388DA";
name = "28 Feb 22, 07:39";
shapes = (
{
closed = 1;
nodes = (
(265,-2,o),
(360,131,o),
(379,237,cs),
(393,319,o),
(340,396,o),
(254,396,cs),
(154,396,o),
(100,335,o),
(76,248,cs),
(70,226,o),
(63,199,o),
(62,174,cs),
(55,97,o),
(76,-2,o),
(166,-2,cs)
);
},
{
closed = 1;
nodes = (
(227,152,o),
(204,157,o),
(188,137,cs),
(172,120,o),
(180,93,o),
(201,72,cs),
(266,5,ls),
(286,-15,o),
(306,-17,o),
(323,-1,cs),
(345,17,o),
(337,40,o),
(317,61,cs),
(250,131,l)
);
},
{
closed = 1;
nodes = (
(153,87,o),
(147,119,o),
(151,162,cs),
(153,183,o),
(158,208,o),
(163,226,cs),
(181,289,o),
(201,306,o),
(242,306,cs),
(279,306,o),
(295,281,o),
(289,246,cs),
(275,173,o),
(205,87,o),
(166,87,cs)
);
}
);
visible = 1;
width = 418;
}
);
metricLeft = Q;
metricRight = Q;
},
{
glyphname = r.sc;
lastChange = "2022-03-01 18:40:40 +0000";
layers = (
{
layerId = m01;
shapes = (
{
closed = 1;
nodes = (
(172,175,o),
(281,182,o),
(299,285,cs),
(313,366,o),
(234,396,o),
(108,396,c),
(101,345,l),
(207,346,o),
(257,330,o),
(250,292,cs),
(239,232,o),
(159,227,o),
(95,227,c),
(88,176,l)
);
},
{
closed = 1;
nodes = (
(73,189,l),
(207,14,ls),
(214,4,o),
(222,0,o),
(230,0,cs),
(240,0,o),
(249,6,o),
(254,14,cs),
(257,19,o),
(259,30,o),
(252,39,cs),
(140,183,l)
);
},
{
closed = 1;
nodes = (
(132,387,o),
(125,396,o),
(108,396,cs),
(91,396,o),
(84,390,o),
(81,374,cs),
(20,32,ls),
(17,13,o),
(28,0,o),
(43,0,cs),
(61,0,o),
(68,13,o),
(70,27,cs),
(130,368,l)
);
}
);
width = 315;
},
{
layerId = m002;
shapes = (
{
closed = 1;
nodes = (
(174,150,o),
(315,146,o),
(338,269,cs),
(355,367,o),
(249,396,o),
(143,396,c),
(143,302,l),
(231,304,o),
(245,299,o),
(241,279,cs),
(235,241,o),
(169,238,o),
(141,238,c),
(137,150,l)
);
},
{
closed = 1;
nodes = (
(97,168,l),
(208,21,ls),
(219,6,o),
(235,0,o),
(250,0,cs),
(269,0,o),
(290,12,o),
(296,31,cs),
(300,45,o),
(299,58,o),
(290,70,cs),
(216,168,l)
);
},
{
closed = 1;
nodes = (
(195,373,o),
(174,396,o),
(143,396,cs),
(116,396,o),
(96,378,o),
(92,353,cs),
(39,54,ls),
(33,21,o),
(54,0,o),
(82,0,cs),
(109,0,o),
(132,20,o),
(137,47,cs),
(189,339,ls)
);
}
);
width = 372;
}
);
metricLeft = R;
metricRight = R;
},
{
glyphname = s.sc;
lastChange = "2022-03-01 18:40:40 +0000";
layers = (
{
layerId = m01;
shapes = (
{
closed = 1;
nodes = (
(90,47,o),
(74,60,o),
(72,73,cs),
(70,85,o),
(55,93,o),
(41,89,cs),
(27,86,o),
(23,72,o),
(25,60,cs),
(32,19,o),
(68,-4,o),
(111,-4,cs),
(197,-4,o),
(263,31,o),
(277,109,cs),
(287,166,o),
(235,205,o),
(193,233,cs),
(151,261,o),
(113,278,o),
(116,294,cs),
(121,322,o),
(171,345,o),
(213,345,cs),
(257,345,o),
(268,338,o),
(269,323,cs),
(270,310,o),
(288,303,o),
(301,307,cs),
(315,310,o),
(319,324,o),
(317,336,cs),
(309,380,o),
(277,396,o),
(213,396,cs),
(135,396,o),
(76,351,o),
(67,303,cs),
(59,258,o),
(101,231,o),
(149,202,cs),
(194,175,o),
(235,154,o),
(228,116,cs),
(220,70,o),
(178,47,o),
(111,47,cs)
);
}
);
width = 322;
},
{
layerId = m002;
shapes = (
{
closed = 1;
nodes = (
(146,87,o),
(135,94,o),
(128,107,cs),
(122,117,o),
(104,131,o),
(78,124,cs),
(53,119,o),
(40,97,o),
(45,72,cs),
(53,25,o),
(90,-4,o),
(135,-4,cs),
(220,-4,o),
(300,32,o),
(314,111,cs),
(327,186,o),
(260,218,o),
(238,234,cs),
(222,246,o),
(178,265,o),
(176,282,cs),
(175,291,o),
(203,305,o),
(221,305,cs),
(241,305,o),
(259,298,o),
(263,288,cs),
(268,274,o),
(291,260,o),
(318,268,cs),
(342,277,o),
(354,297,o),
(349,321,cs),
(339,372,o),
(299,396,o),
(241,396,cs),
(153,396,o),
(80,344,o),
(80,280,cs),
(80,230,o),
(122,202,o),
(153,183,cs),
(180,167,o),
(222,140,o),
(219,123,cs),
(216,101,o),
(196,87,o),
(170,87,cs)
);
}
);
width = 377;
}
);
metricLeft = S;
metricRight = S;
},
{
glyphname = t.sc;
lastChange = "2022-03-01 18:40:40 +0000";
layers = (
{
layerId = m01;
shapes = (
{
closed = 1;
nodes = (
(173,361,l),
(114,29,ls),
(111,14,o),
(120,0,o),
(137,0,cs),
(155,0,o),
(161,13,o),
(163,23,cs),
(221,357,l)
);
},
{
closed = 1;
nodes = (
(308,345,o),
(318,357,o),
(318,371,cs),
(318,383,o),
(310,396,o),
(293,396,cs),
(105,396,ls),
(88,396,o),
(80,384,o),
(80,371,cs),
(80,357,o),
(88,345,o),
(105,345,cs),
(293,345,ls)
);
}
);
width = 329;
},
{
layerId = m002;
shapes = (
{
closed = 1;
nodes = (
(172,330,l),
(121,50,ls),
(116,22,o),
(138,-1,o),
(168,-1,cs),
(194,-1,o),
(214,15,o),
(218,38,cs),
(268,321,l)
);
},
{
closed = 1;
nodes = (
(335,305,o),
(354,325,o),
(354,350,cs),
(354,376,o),
(334,396,o),
(305,396,cs),
(141,396,ls),
(113,396,o),
(92,376,o),
(92,350,cs),
(92,325,o),
(112,305,o),
(141,305,cs),
(305,305,ls)
);
}
);
width = 383;
}
);
metricLeft = T;
metricRight = T;
},
{
glyphname = u.sc;
lastChange = "2022-02-27 18:28:31 +0000";
layers = (
{
layerId = m01;
shapes = (
{
closed = 1;
nodes = (
(331,324,l),
(296,324,l),
(291,309,l),
(279,257,o),
(255,220,o),
(244,203,cs),
(208,144,o),
(129,48,o),
(88,48,cs),
(73,48,o),
(77,76,o),
(84,113,cs),
(130,370,ls),
(133,384,o),
(125,395,o),
(109,396,cs),
(95,396,o),
(84,387,o),
(81,373,cs),
(35,119,ls),
(20,37,o),
(42,-4,o),
(84,-4,cs),
(132,-4,o),
(212,63,o),
(277,161,c),
(312,228,l)
);
},
{
closed = 1;
nodes = (
(355,387,o),
(346,396,o),
(329,396,cs),
(314,396,o),
(304,389,o),
(302,376,cs),
(241,29,ls),
(238,13,o),
(248,0,o),
(265,0,cs),
(277,0,o),
(287,8,o),
(290,22,cs),
(352,371,ls)
);
}
);
width = 362;
},
{
layerId = m002;
shapes = (
{
closed = 1;
nodes = (
(324,335,l),
(295,335,l),
(290,300,ls),
(283,251,o),
(265,226,o),
(254,212,cs),
(225,173,o),
(155,88,o),
(145,88,cs),
(135,88,o),
(140,108,o),
(145,137,cs),
(182,342,ls),
(188,376,o),
(173,396,o),
(145,396,cs),
(117,397,o),
(97,376,o),
(92,351,cs),
(52,130,ls),
(36,42,o),
(66,-4,o),
(110,-4,cs),
(178,-4,o),
(249,66,o),
(302,143,c),
(315,177,l)
);
},
{
closed = 1;
nodes = (
(391,376,o),
(373,396,o),
(341,396,cs),
(316,396,o),
(299,376,o),
(296,357,cs),
(242,51,ls),
(236,19,o),
(253,0,o),
(280,0,cs),
(306,0,o),
(327,16,o),
(331,38,cs),
(385,343,ls)
);
}
);
width = 414;
}
);
metricLeft = U;
metricRight = U;
},
{
glyphname = v.sc;
lastChange = "2022-02-27 18:33:24 +0000";
layers = (
{
layerId = m01;
shapes = (
{
closed = 1;
nodes = (
(149,0,o),
(156,8,o),
(162,20,cs),
(341,364,ls),
(351,383,o),
(340,396,o),
(323,396,cs),
(307,396,o),
(298,390,o),
(293,380,cs),
(126,60,l),
(135,0,l)
);
},
{
closed = 1;
nodes = (
(131,374,ls),
(130,387,o),
(121,396,o),
(104,396,cs),
(89,396,o),
(80,389,o),
(81,373,cs),
(110,27,ls),
(111,13,o),
(121,0,o),
(137,0,c),
(157,60,l)
);
}
);
width = 354;
},
{
layerId = m002;
shapes = (
{
closed = 1;
nodes = (
(183,0,o),
(203,8,o),
(214,29,cs),
(369,330,ls),
(388,367,o),
(366,396,o),
(332,396,cs),
(306,396,o),
(288,382,o),
(279,364,cs),
(143,101,l),
(164,0,l)
);
},
{
closed = 1;
nodes = (
(188,352,ls),
(186,379,o),
(165,396,o),
(137,396,cs),
(109,396,o),
(90,374,o),
(92,345,cs),
(117,43,ls),
(119,14,o),
(145,0,o),
(168,0,c),
(209,103,l)
);
}
);
width = 404;
}
);
metricLeft = V;
metricRight = V;
},
{
glyphname = w.sc;
lastChange = "2022-02-27 18:41:11 +0000";
layers = (
{
layerId = m01;
shapes = (
{
closed = 1;
nodes = (
(366,0,o),
(371,8,o),
(377,20,cs),
(556,364,ls),
(561,374,o),
(560,383,o),
(556,388,cs),
(552,395,o),
(545,399,o),
(537,399,cs),
(523,399,o),
(515,392,o),
(508,380,cs),
(343,63,l),
(349,0,l)
);
},
{
closed = 1;
nodes = (
(130,375,ls),
(129,387,o),
(122,399,o),
(104,399,cs),
(89,399,o),
(80,389,o),
(81,372,cs),
(109,26,ls),
(110,10,o),
(120,0,o),
(137,0,c),
(155,55,l)
);
},
{
closed = 1;
nodes = (
(151,0,o),
(157,11,o),
(162,21,cs),
(323,331,l),
(319,396,l),
(306,396,o),
(297,387,o),
(293,379,cs),
(124,55,l),
(136,0,l)
);
},
{
closed = 1;
nodes = (
(346,375,ls),
(345,388,o),
(335,396,o),
(318,396,c),
(301,331,l),
(325,21,l),
(327,8,o),
(334,0,o),
(351,0,c),
(371,63,l)
);
}
);
width = 569;
},
{
layerId = m002;
shapes = (
{
closed = 1;
nodes = (
(376,0,o),
(391,8,o),
(402,29,cs),
(558,330,ls),
(565,344,o),
(566,359,o),
(559,372,cs),
(553,387,o),
(537,396,o),
(518,396,cs),
(492,396,o),
(482,385,o),
(468,361,cs),
(344,125,l),
(357,0,l)
);
},
{
closed = 1;
nodes = (
(188,352,ls),
(186,376,o),
(167,396,o),
(138,396,cs),
(111,396,o),
(90,374,o),
(92,345,cs),
(117,43,ls),
(120,12,o),
(142,0,o),
(169,0,c),
(208,121,l)
);
},
{
closed = 1;
nodes = (
(192,0,o),
(203,10,o),
(213,29,cs),
(340,268,l),
(331,396,l),
(297,396,o),
(289,381,o),
(281,365,cs),
(153,121,l),
(165,0,l)
);
},
{
closed = 1;
nodes = (
(377,352,ls),
(375,380,o),
(361,396,o),
(329,396,c),
(288,267,l),
(306,36,ls),
(308,12,o),
(335,0,o),
(360,0,c),
(396,125,l)
);
}
);
width = 592;
}
);
metricLeft = W;
metricRight = W;
},
{
glyphname = x.sc;
lastChange = "2022-03-01 18:40:40 +0000";
layers = (
{
layerId = m01;
shapes = (
{
closed = 1;
nodes = (
(314,368,o),
(312,384,o),
(302,392,cs),
(292,400,o),
(276,399,o),
(265,385,cs),
(-20,40,ls),
(-28,30,o),
(-28,16,o),
(-18,6,cs),
(-7,-3,o),
(10,-3,o),
(21,10,cs),
(304,355,ls)
);
},
{
closed = 1;
nodes = (
(78,397,o),
(64,399,o),
(52,395,cs),
(39,391,o),
(32,377,o),
(40,361,cs),
(204,17,ls),
(211,2,o),
(227,-4,o),
(242,3,c),
(253,10,o),
(257,24,o),
(251,36,cs),
(86,381,ls)
);
}
);
width = 281;
},
{
layerId = m002;
shapes = (
{
closed = 1;
nodes = (
(335,339,o),
(335,366,o),
(316,384,cs),
(297,403,o),
(259,398,o),
(240,375,cs),
(-11,72,ls),
(-28,52,o),
(-26,31,o),
(-8,13,cs),
(10,-4,o),
(49,-7,o),
(68,16,cs),
(319,319,ls)
);
},
{
closed = 1;
nodes = (
(115,389,o),
(89,401,o),
(63,393,cs),
(37,383,o),
(23,357,o),
(37,328,cs),
(181,27,ls),
(194,0,o),
(227,-6,o),
(250,5,cs),
(272,17,o),
(283,39,o),
(271,63,cs),
(126,366,ls)
);
}
);
width = 300;
}
);
metricLeft = X;
metricRight = X;
},
{
glyphname = y.sc;
lastChange = "2022-02-27 18:45:21 +0000";
layers = (
{
layerId = m01;
shapes = (
{
closed = 1;
nodes = (
(207,212,l),
(128,377,ls),
(122,390,o),
(110,401,o),
(94,394,cs),
(79,387,o),
(77,372,o),
(83,359,cs),
(173,170,l)
);
},
{
closed = 1;
nodes = (
(366,366,o),
(363,382,o),
(353,390,cs),
(344,397,o),
(329,399,o),
(315,383,cs),
(29,40,ls),
(20,29,o),
(21,14,o),
(32,6,cs),
(42,-3,o),
(58,-3,o),
(69,10,cs),
(355,353,ls)
);
}
);
width = 373;
},
{
layerId = m002;
shapes = (
{
closed = 1;
nodes = (
(242,251,l),
(186,368,ls),
(169,401,o),
(137,401,o),
(121,393,cs),
(92,383,o),
(87,354,o),
(98,333,cs),
(172,177,l)
);
},
{
closed = 1;
nodes = (
(406,345,o),
(400,368,o),
(382,385,cs),
(363,402,o),
(330,401,o),
(311,378,cs),
(56,72,ls),
(39,52,o),
(41,31,o),
(59,13,cs),
(77,-4,o),
(113,-7,o),
(133,17,cs),
(387,323,ls)
);
}
);
width = 427;
}
);
metricLeft = Y;
metricRight = Y;
},
{
glyphname = z.sc;
lastChange = "2022-02-27 18:48:42 +0000";
layers = (
{
layerId = m01;
shapes = (
{
closed = 1;
nodes = (
(358,362,o),
(359,375,o),
(354,384,cs),
(350,391,o),
(341,396,o),
(330,396,cs),
(323,396,o),
(316,391,o),
(311,385,cs),
(25,41,ls),
(19,34,o),
(16,22,o),
(21,13,cs),
(25,5,o),
(34,0,o),
(48,0,cs),
(53,0,o),
(60,5,o),
(68,15,cs),
(351,354,ls)
);
},
{
closed = 1;
nodes = (
(272,0,ls),
(289,0,o),
(297,13,o),
(297,25,cs),
(297,39,o),
(287,51,o),
(272,51,cs),
(89,51,l),
(47,0,l)
);
},
{
closed = 1;
nodes = (
(332,396,l),
(106,396,ls),
(89,396,o),
(81,384,o),
(81,371,cs),
(81,357,o),
(89,345,o),
(106,345,cs),
(289,345,l)
);
}
);
width = 369;
},
{
layerId = m002;
shapes = (
{
closed = 1;
nodes = (
(391,335,o),
(394,355,o),
(385,371,cs),
(377,386,o),
(360,396,o),
(339,396,cs),
(326,396,o),
(311,388,o),
(301,376,cs),
(49,73,ls),
(38,59,o),
(34,41,o),
(42,24,cs),
(49,10,o),
(67,0,o),
(90,0,cs),
(105,0,o),
(120,9,o),
(127,17,cs),
(377,319,ls)
);
},
{
closed = 1;
nodes = (
(286,0,ls),
(315,0,o),
(335,19,o),
(335,44,cs),
(335,70,o),
(314,91,o),
(286,91,cs),
(164,91,l),
(89,0,l)
);
},
{
closed = 1;
nodes = (
(343,396,l),
(141,396,ls),
(113,396,o),
(92,376,o),
(92,350,cs),
(92,325,o),
(112,305,o),
(141,305,cs),
(265,305,l)
);
}
);
width = 419;
}
);
metricLeft = Z;
metricRight = Z;
},
{
glyphname = zero;
lastChange = "2022-02-28 10:06:30 +0000";
layers = (
{
layerId = m01;
shapes = (
{
closed = 1;
nodes = (
(273,-3,o),
(442,228,o),
(442,402,cs),
(442,477,o),
(413,568,o),
(307,568,cs),
(118,568,o),
(41,280,o),
(41,160,cs),
(41,81,o),
(75,-4,o),
(150,-4,cs)
);
},
{
closed = 1;
nodes = (
(118,47,o),
(93,84,o),
(93,155,cs),
(93,279,o),
(172,517,o),
(309,517,cs),
(374,517,o),
(390,463,o),
(390,405,cs),
(390,212,o),
(214,47,o),
(149,47,cs)
);
}
);
width = 445;
},
{
layerId = m002;
shapes = (
{
closed = 1;
nodes = (
(315,-3,o),
(480,223,o),
(480,395,cs),
(480,471,o),
(448,568,o),
(328,568,cs),
(128,568,o),
(53,290,o),
(53,172,cs),
(53,91,o),
(90,-4,o),
(180,-4,cs)
);
},
{
closed = 1;
nodes = (
(164,88,o),
(152,107,o),
(152,168,cs),
(152,281,o),
(220,476,o),
(330,476,cs),
(372,476,o),
(381,449,o),
(381,398,cs),
(381,225,o),
(230,88,o),
(180,88,cs)
);
}
);
width = 495;
}
);
unicode = 48;
},
{
glyphname = one;
lastChange = "2022-02-28 10:08:08 +0000";
layers = (
{
layerId = m01;
shapes = (
{
closed = 1;
nodes = (
(316,560,o),
(305,568,o),
(292,568,cs),
(279,568,o),
(265,561,o),
(262,543,cs),
(171,28,ls),
(168,9,o),
(180,0,o),
(193,0,cs),
(205,0,o),
(218,6,o),
(221,23,cs),
(313,543,ls)
);
}
);
width = 445;
},
{
layerId = m002;
shapes = (
{
closed = 1;
nodes = (
(365,548,o),
(341,568,o),
(314,568,cs),
(291,568,o),
(265,554,o),
(260,526,cs),
(176,51,ls),
(170,18,o),
(196,0,o),
(223,0,cs),
(245,0,o),
(270,12,o),
(275,39,cs),
(360,518,ls)
);
}
);
width = 495;
}
);
unicode = 49;
},
{
glyphname = two;
lastChange = "2022-02-28 10:06:49 +0000";
layers = (
{
layerId = m01;
shapes = (
{
closed = 1;
nodes = (
(129,49,l),
(186,115,o),
(314,263,o),
(327,278,cs),
(452,431,o),
(463,501,o),
(384,549,cs),
(315,591,o),
(196,558,o),
(133,505,cs),
(109,485,o),
(113,472,o),
(121,463,cs),
(129,454,o),
(145,451,o),
(170,471,cs),
(222,513,o),
(318,531,o),
(361,505,cs),
(411,475,o),
(358,393,o),
(306,332,cs),
(280,301,o),
(177,185,o),
(42,35,cs),
(25,16,o),
(36,0,o),
(58,0,c),
(79,0,l)
);
},
{
closed = 1;
nodes = (
(330,0,ls),
(350,0,o),
(356,13,o),
(356,25,cs),
(356,37,o),
(350,50,o),
(330,50,cs),
(75,50,l),
(75,0,l)
);
}
);
width = 445;
},
{
layerId = m002;
shapes = (
{
closed = 1;
nodes = (
(182,49,l),
(237,112,o),
(357,251,o),
(368,264,cs),
(493,417,o),
(507,491,o),
(416,547,cs),
(341,593,o),
(213,558,o),
(149,504,cs),
(115,476,o),
(121,454,o),
(138,434,cs),
(150,421,o),
(180,413,o),
(218,443,cs),
(263,479,o),
(336,493,o),
(368,473,cs),
(395,457,o),
(358,398,o),
(311,343,cs),
(285,313,o),
(188,205,o),
(63,65,cs),
(32,29,o),
(57,0,o),
(97,0,cs),
(140,0,l)
);
},
{
closed = 1;
nodes = (
(352,0,ls),
(382,0,o),
(402,14,o),
(402,41,cs),
(402,65,o),
(384,86,o),
(352,86,cs),
(96,86,l),
(96,0,l)
);
}
);
width = 495;
}
);
unicode = 50;
},
{
glyphname = three;
lastChange = "2022-02-28 10:07:37 +0000";
layers = (
{
layerId = m01;
shapes = (
{
closed = 1;
nodes = (
(193,296,o),
(231,305,o),
(259,305,cs),
(318,305,o),
(337,266,o),
(337,225,cs),
(337,125,o),
(219,47,o),
(131,47,cs),
(107,47,o),
(85,53,o),
(68,66,cs),
(44,84,o),
(30,72,o),
(25,65,cs),
(20,58,o),
(15,45,o),
(40,25,cs),
(64,5,o),
(96,-4,o),
(130,-4,cs),
(244,-4,o),
(387,98,o),
(387,226,cs),
(387,303,o),
(336,354,o),
(253,354,cs),
(217,354,o),
(175,345,o),
(129,324,c),
(145,275,l)
);
},
{
closed = 1;
nodes = (
(266,355,o),
(384,437,o),
(384,499,cs),
(384,542,o),
(345,568,o),
(286,568,cs),
(238,568,o),
(176,551,o),
(116,511,cs),
(91,495,o),
(96,478,o),
(101,470,cs),
(107,460,o),
(123,455,o),
(136,464,cs),
(197,505,o),
(255,522,o),
(292,522,cs),
(319,522,o),
(334,513,o),
(334,499,cs),
(334,466,o),
(199,368,o),
(115,316,cs),
(98,305,o),
(101,288,o),
(105,280,cs),
(110,270,o),
(128,263,o),
(143,273,cs)
);
}
);
width = 445;
},
{
layerId = m002;
shapes = (
{
closed = 1;
nodes = (
(234,279,o),
(253,282,o),
(281,282,cs),
(320,282,o),
(336,262,o),
(330,228,cs),
(315,145,o),
(225,86,o),
(150,86,cs),
(132,86,o),
(119,90,o),
(106,100,cs),
(75,124,o),
(40,113,o),
(29,93,cs),
(18,76,o),
(16,54,o),
(49,28,cs),
(75,7,o),
(112,-4,o),
(149,-4,cs),
(269,-4,o),
(404,96,o),
(427,229,cs),
(442,313,o),
(384,379,o),
(292,379,cs),
(249,379,o),
(198,366,o),
(145,339,c),
(177,250,l)
);
},
{
closed = 1;
nodes = (
(300,334,o),
(411,410,o),
(424,481,cs),
(434,535,o),
(374,568,o),
(306,568,cs),
(252,568,o),
(191,550,o),
(131,510,cs),
(98,489,o),
(99,463,o),
(111,445,cs),
(123,423,o),
(152,424,o),
(175,439,cs),
(230,476,o),
(280,488,o),
(311,488,cs),
(318,488,o),
(328,487,o),
(327,481,cs),
(324,465,o),
(210,381,o),
(133,333,cs),
(106,316,o),
(105,290,o),
(115,270,cs),
(126,249,o),
(160,237,o),
(187,256,cs)
);
}
);
width = 495;
}
);
unicode = 51;
},
{
glyphname = four;
lastChange = "2022-02-28 10:08:46 +0000";
layers = (
{
layerId = m01;
shapes = (
{
closed = 1;
nodes = (
(189,558,o),
(177,568,o),
(165,568,cs),
(153,568,o),
(139,562,o),
(136,544,cs),
(67,159,ls),
(65,147,o),
(74,135,o),
(92,135,cs),
(109,135,o),
(116,148,o),
(118,160,cs),
(186,540,ls)
);
},
{
closed = 1;
nodes = (
(301,299,o),
(290,309,o),
(278,311,cs),
(265,313,o),
(251,306,o),
(248,289,cs),
(201,31,ls),
(197,11,o),
(208,1,o),
(221,0,cs),
(233,-1,o),
(247,6,o),
(251,26,cs),
(298,282,ls)
);
},
{
closed = 1;
nodes = (
(392,135,ls),
(408,135,o),
(418,146,o),
(418,158,cs),
(418,170,o),
(408,180,o),
(392,180,cs),
(93,180,l),
(93,135,l)
);
}
);
width = 445;
},
{
layerId = m002;
shapes = (
{
closed = 1;
nodes = (
(248,551,o),
(222,568,o),
(196,568,cs),
(173,568,o),
(147,555,o),
(142,527,cs),
(79,170,ls),
(75,145,o),
(96,122,o),
(128,122,cs),
(154,122,o),
(175,140,o),
(179,164,cs),
(242,519,ls)
);
},
{
closed = 1;
nodes = (
(342,308,o),
(331,326,o),
(307,331,cs),
(283,335,o),
(263,320,o),
(258,292,cs),
(216,59,ls),
(210,26,o),
(220,0,o),
(246,0,cs),
(274,0,o),
(290,16,o),
(295,44,cs),
(337,279,ls)
);
},
{
closed = 1;
nodes = (
(410,122,ls),
(438,122,o),
(459,143,o),
(459,168,cs),
(459,192,o),
(438,212,o),
(410,212,cs),
(127,212,l),
(127,122,l)
);
}
);
width = 495;
}
);
unicode = 52;
},
{
glyphname = five;
lastChange = "2022-02-28 10:09:02 +0000";
layers = (
{
layerId = m01;
shapes = (
{
closed = 1;
nodes = (
(160,299,o),
(188,304,o),
(213,304,cs),
(292,304,o),
(326,252,o),
(326,211,cs),
(326,149,o),
(250,47,o),
(153,47,cs),
(128,47,o),
(106,54,o),
(92,67,cs),
(85,74,o),
(78,76,o),
(71,76,cs),
(58,76,o),
(47,67,o),
(47,54,cs),
(47,46,o),
(51,37,o),
(60,28,cs),
(81,8,o),
(114,-3,o),
(153,-3,cs),
(284,-3,o),
(376,125,o),
(376,212,cs),
(376,287,o),
(312,354,o),
(210,354,cs),
(182,354,o),
(154,349,o),
(119,337,c),
(123,288,l)
);
},
{
closed = 1;
nodes = (
(166,568,l),
(156,568,o),
(148,566,o),
(143,562,cs),
(138,558,o),
(134,551,o),
(132,541,cs),
(91,310,ls),
(88,295,o),
(101,286,o),
(114,286,cs),
(126,286,o),
(139,294,o),
(142,310,cs),
(183,541,l)
);
},
{
closed = 1;
nodes = (
(409,523,ls),
(429,523,o),
(435,533,o),
(435,545,cs),
(435,557,o),
(429,568,o),
(409,568,cs),
(165,568,l),
(165,523,l)
);
}
);
width = 445;
},
{
layerId = m002;
shapes = (
{
closed = 1;
nodes = (
(216,281,o),
(220,281,o),
(247,281,cs),
(307,281,o),
(325,248,o),
(325,215,cs),
(325,164,o),
(268,83,o),
(190,83,cs),
(172,83,o),
(157,86,o),
(147,93,cs),
(135,101,o),
(126,110,o),
(113,110,cs),
(88,110,o),
(65,97,o),
(65,72,cs),
(65,58,o),
(71,45,o),
(85,31,cs),
(109,8,o),
(148,-3,o),
(189,-3,cs),
(329,-3,o),
(425,125,o),
(425,216,cs),
(425,298,o),
(355,372,o),
(244,372,cs),
(210,372,o),
(173,364,o),
(132,348,c),
(164,265,l)
);
},
{
closed = 1;
nodes = (
(219,571,l),
(197,571,o),
(176,571,o),
(165,562,cs),
(155,554,o),
(149,543,o),
(146,528,cs),
(107,312,ls),
(101,281,o),
(130,264,o),
(154,264,cs),
(176,264,o),
(204,281,o),
(208,304,cs),
(247,529,l)
);
},
{
closed = 1;
nodes = (
(433,487,ls),
(465,487,o),
(482,505,o),
(482,529,cs),
(482,556,o),
(463,571,o),
(433,571,cs),
(217,571,l),
(202,487,l)
);
}
);
width = 495;
}
);
unicode = 53;
},
{
glyphname = six;
lastChange = "2022-02-28 10:09:32 +0000";
layers = (
{
layerId = m01;
shapes = (
{
closed = 1;
nodes = (
(126,209,o),
(160,288,o),
(230,387,cs),
(257,425,o),
(303,471,o),
(378,523,cs),
(389,530,o),
(393,540,o),
(393,548,cs),
(392,559,o),
(384,568,o),
(371,568,cs),
(365,568,o),
(358,566,o),
(350,562,cs),
(303,535,o),
(220,460,o),
(186,412,cs),
(118,316,o),
(77,213,o),
(77,113,c),
(126,113,l)
);
},
{
closed = 1;
nodes = (
(77,53,o),
(125,0,o),
(193,0,cs),
(295,0,o),
(403,149,o),
(403,257,cs),
(403,321,o),
(365,353,o),
(293,353,cs),
(206,353,o),
(145,306,o),
(110,244,c),
(77,114,l)
);
},
{
closed = 1;
nodes = (
(158,50,o),
(127,78,o),
(127,135,cs),
(127,215,o),
(188,303,o),
(291,303,cs),
(332,303,o),
(353,289,o),
(353,251,cs),
(353,173,o),
(261,50,o),
(191,50,cs)
);
}
);
width = 445;
},
{
layerId = m002;
shapes = (
{
closed = 1;
nodes = (
(176,195,o),
(225,274,o),
(293,371,cs),
(319,407,o),
(360,447,o),
(427,494,cs),
(444,506,o),
(452,521,o),
(452,537,cs),
(451,559,o),
(431,576,o),
(406,576,cs),
(396,576,o),
(385,573,o),
(374,568,c),
(326,540,o),
(245,467,o),
(212,421,cs),
(140,319,o),
(109,279,o),
(95,118,c),
(190,114,l)
);
},
{
closed = 1;
nodes = (
(85,84,o),
(142,-1,o),
(223,-1,cs),
(330,-1,o),
(432,143,o),
(432,247,cs),
(432,316,o),
(387,354,o),
(311,354,cs),
(220,354,o),
(143,308,o),
(126,243,cs),
(96,126,ls)
);
},
{
closed = 1;
nodes = (
(203,87,o),
(190,99,o),
(190,140,cs),
(190,204,o),
(232,266,o),
(309,266,cs),
(332,266,o),
(338,260,o),
(338,242,cs),
(338,180,o),
(269,87,o),
(221,87,cs)
);
}
);
width = 495;
}
);
unicode = 54;
},
{
glyphname = seven;
lastChange = "2022-02-28 10:09:52 +0000";
layers = (
{
layerId = m01;
shapes = (
{
closed = 1;
nodes = (
(392,556,o),
(386,568,o),
(366,568,cs),
(355,568,o),
(343,560,o),
(341,549,cs),
(248,26,ls),
(245,8,o),
(256,0,o),
(269,0,cs),
(281,0,o),
(295,8,o),
(298,26,cs),
(390,544,ls)
);
},
{
closed = 1;
nodes = (
(367,568,l),
(120,568,ls),
(102,568,o),
(93,557,o),
(93,546,cs),
(93,534,o),
(102,523,o),
(120,523,cs),
(367,523,l)
);
}
);
width = 445;
},
{
layerId = m002;
shapes = (
{
closed = 1;
nodes = (
(434,551,o),
(425,568,o),
(382,568,cs),
(360,568,o),
(337,558,o),
(333,537,cs),
(247,50,ls),
(242,20,o),
(264,0,o),
(291,0,cs),
(314,0,o),
(339,15,o),
(344,42,cs),
(429,524,ls)
);
},
{
closed = 1;
nodes = (
(383,568,l),
(150,568,ls),
(120,568,o),
(100,551,o),
(100,527,cs),
(100,503,o),
(120,488,o),
(150,488,cs),
(383,488,l)
);
}
);
width = 495;
}
);
unicode = 55;
},
{
glyphname = eight;
lastChange = "2022-02-28 10:10:05 +0000";
layers = (
{
layerId = m01;
shapes = (
{
closed = 1;
nodes = (
(184,325,l),
(94,259,o),
(69,185,o),
(69,132,cs),
(69,74,o),
(98,-4,o),
(195,-4,cs),
(299,-4,o),
(355,84,o),
(355,149,cs),
(355,208,o),
(309,266,o),
(265,307,cs),
(250,321,l)
);
},
{
closed = 1;
nodes = (
(263,238,o),
(304,190,o),
(304,149,cs),
(304,105,o),
(258,45,o),
(201,45,cs),
(151,45,o),
(118,90,o),
(118,139,cs),
(118,178,o),
(139,231,o),
(216,285,c),
(228,273,ls)
);
},
{
closed = 1;
nodes = (
(333,368,o),
(414,431,o),
(414,488,cs),
(414,542,o),
(340,568,o),
(281,568,cs),
(208,568,o),
(121,529,o),
(121,442,cs),
(121,386,o),
(158,350,o),
(184,323,c),
(227,349,l),
(204,371,o),
(172,405,o),
(172,447,cs),
(172,504,o),
(230,518,o),
(271,518,cs),
(307,518,o),
(367,507,o),
(367,488,cs),
(367,462,o),
(258,369,o),
(183,322,c),
(252,312,l)
);
}
);
width = 445;
},
{
layerId = m002;
shapes = (
{
closed = 1;
nodes = (
(205,344,l),
(107,275,o),
(79,197,o),
(79,141,cs),
(79,80,o),
(113,-4,o),
(224,-4,cs),
(339,-4,o),
(399,87,o),
(399,157,cs),
(399,219,o),
(353,280,o),
(308,321,cs),
(286,341,l)
);
},
{
closed = 1;
nodes = (
(259,236,o),
(301,191,o),
(301,148,cs),
(301,114,o),
(270,81,o),
(229,81,cs),
(196,81,o),
(176,108,o),
(176,148,cs),
(176,177,o),
(189,213,o),
(241,254,c),
(246,249,ls)
);
},
{
closed = 1;
nodes = (
(366,343,o),
(455,405,o),
(455,472,cs),
(455,539,o),
(367,569,o),
(305,569,cs),
(228,569,o),
(129,526,o),
(129,428,cs),
(129,355,o),
(187,312,o),
(208,292,c),
(292,341,l),
(273,362,o),
(227,390,o),
(227,433,cs),
(227,470,o),
(254,488,o),
(289,488,cs),
(321,488,o),
(360,486,o),
(360,471,cs),
(360,456,o),
(278,391,o),
(219,355,c),
(284,287,l)
);
}
);
width = 495;
}
);
unicode = 56;
},
{
glyphname = nine;
lastChange = "2022-02-28 10:48:55 +0000";
layers = (
{
layerId = m01;
shapes = (
{
closed = 1;
nodes = (
(350,519,l),
(322,472,o),
(289,423,o),
(248,371,cs),
(187,295,o),
(150,265,o),
(131,265,cs),
(117,265,o),
(117,280,o),
(117,296,cs),
(117,334,o),
(135,424,o),
(161,463,cs),
(191,508,o),
(242,518,o),
(276,518,cs),
(283,518,o),
(351,518,o),
(359,518,c),
(370,518,l),
(370,520,o),
(370,565,o),
(370,568,c),
(358,568,o),
(296,568,o),
(276,568,cs),
(219,568,o),
(160,551,o),
(122,494,cs),
(90,446,o),
(67,349,o),
(67,291,cs),
(67,240,o),
(87,214,o),
(120,214,cs),
(178,214,o),
(230,268,o),
(271,319,cs),
(320,381,o),
(368,458,o),
(391,510,cs),
(395,519,l)
);
},
{
closed = 1;
nodes = (
(416,558,o),
(410,568,o),
(398,568,c),
(350,568,l),
(350,479,l),
(272,24,ls),
(269,8,o),
(281,0,o),
(293,0,cs),
(306,0,o),
(319,8,o),
(322,24,cs),
(414,546,ls)
);
}
);
width = 445;
},
{
layerId = m002;
shapes = (
{
closed = 1;
nodes = (
(350,527,l),
(322,479,o),
(297,431,o),
(257,380,cs),
(200,309,o),
(186,302,o),
(182,302,cs),
(177,302,o),
(176,315,o),
(176,320,cs),
(176,343,o),
(187,408,o),
(209,440,cs),
(232,476,o),
(267,481,o),
(296,481,cs),
(302,481,o),
(366,481,o),
(374,481,cs),
(409,481,l),
(409,506,o),
(409,546,o),
(409,568,c),
(386,568,o),
(317,568,o),
(296,568,cs),
(237,568,o),
(171,554,o),
(130,493,cs),
(97,443,o),
(74,348,o),
(74,291,cs),
(74,226,o),
(107,196,o),
(149,196,cs),
(217,196,o),
(272,255,o),
(311,303,cs),
(358,363,o),
(405,439,o),
(427,487,cs),
(445,527,l)
);
},
{
closed = 1;
nodes = (
(459,555,o),
(444,568,o),
(411,568,cs),
(340,568,l),
(342,469,l),
(267,43,ls),
(261,11,o),
(290,-5,o),
(312,-5,cs),
(335,-5,o),
(362,10,o),
(367,36,cs),
(454,529,ls)
);
}
);
width = 495;
}
);
unicode = 57;
},
{
glyphname = zero.c2sc;
lastChange = "2022-03-01 18:40:40 +0000";
layers = (
{
layerId = m01;
shapes = (
{
closed = 1;
nodes = (
(199,0,o),
(313,157,o),
(313,276,cs),
(313,328,o),
(293,396,o),
(215,396,cs),
(83,396,o),
(31,196,o),
(31,115,cs),
(31,61,o),
(54,-1,o),
(111,-1,cs)
);
},
{
closed = 1;
nodes = (
(95,47,o),
(81,67,o),
(81,111,cs),
(81,193,o),
(132,348,o),
(217,348,cs),
(254,348,o),
(263,315,o),
(263,278,cs),
(263,152,o),
(151,47,o),
(111,47,cs)
);
}
);
width = 336;
},
{
layerId = m002;
shapes = (
{
closed = 1;
nodes = (
(234,0,o),
(342,152,o),
(342,267,cs),
(342,319,o),
(319,396,o),
(230,396,cs),
(92,396,o),
(43,201,o),
(43,125,cs),
(43,71,o),
(68,-1,o),
(138,-1,cs)
);
},
{
closed = 1;
nodes = (
(135,87,o),
(132,94,o),
(132,121,cs),
(132,191,o),
(171,308,o),
(232,308,cs),
(246,308,o),
(251,296,o),
(251,269,cs),
(251,166,o),
(164,87,o),
(143,87,c)
);
}
);
width = 378;
}
);
metricLeft = zero;
metricRight = zero;
},
{
glyphname = one.c2sc;
lastChange = "2022-02-28 10:10:36 +0000";
layers = (
{
layerId = m01;
shapes = (
{
closed = 1;
nodes = (
(286,387,o),
(273,396,o),
(261,396,cs),
(249,396,o),
(235,389,o),
(232,373,cs),
(171,26,ls),
(168,8,o),
(181,0,o),
(194,0,cs),
(204,0,o),
(218,5,o),
(221,21,cs),
(283,371,ls)
);
}
);
width = 445;
},
{
layerId = m002;
shapes = (
{
closed = 1;
nodes = (
(331,387,o),
(300,396,o),
(284,396,cs),
(268,396,o),
(236,389,o),
(230,355,cs),
(175,43,ls),
(169,8,o),
(200,0,o),
(217,0,cs),
(231,0,o),
(263,5,o),
(269,38,cs),
(325,353,ls)
);
}
);
width = 489;
}
);
metricLeft = one;
metricRight = one;
},
{
glyphname = two.c2sc;
lastChange = "2022-03-01 18:40:40 +0000";
layers = (
{
layerId = m01;
shapes = (
{
closed = 1;
nodes = (
(111,34,l),
(149,79,o),
(236,179,o),
(245,190,cs),
(333,295,o),
(341,347,o),
(282,382,cs),
(232,413,o),
(146,389,o),
(103,352,cs),
(83,335,o),
(86,323,o),
(94,313,cs),
(101,305,o),
(118,302,o),
(138,319,cs),
(172,347,o),
(231,358,o),
(258,341,cs),
(285,325,o),
(253,275,o),
(219,234,cs),
(202,213,o),
(131,135,o),
(41,34,cs),
(24,15,o),
(37,0,o),
(58,0,cs),
(75,0,l)
);
},
{
closed = 1;
nodes = (
(241,0,ls),
(261,0,o),
(267,14,o),
(267,24,cs),
(267,34,o),
(261,48,o),
(241,48,cs),
(70,48,l),
(70,0,l)
);
}
);
width = 356;
},
{
layerId = m002;
shapes = (
{
closed = 1;
nodes = (
(163,38,l),
(196,78,o),
(274,167,o),
(281,176,cs),
(366,278,o),
(377,339,o),
(308,381,cs),
(253,414,o),
(164,389,o),
(120,351,cs),
(92,327,o),
(93,305,o),
(109,285,cs),
(123,269,o),
(157,264,o),
(184,288,cs),
(210,309,o),
(245,315,o),
(256,308,cs),
(264,303,o),
(248,279,o),
(220,244,cs),
(204,225,o),
(142,157,o),
(63,68,cs),
(34,35,o),
(58,0,o),
(97,0,cs),
(122,0,l)
);
},
{
closed = 1;
nodes = (
(259,0,ls),
(289,0,o),
(307,22,o),
(307,44,cs),
(307,66,o),
(289,88,o),
(259,88,cs),
(113,88,l),
(113,0,l)
);
}
);
width = 400;
}
);
metricLeft = two;
metricRight = two;
},
{
glyphname = three.c2sc;
lastChange = "2022-03-01 18:40:40 +0000";
layers = (
{
layerId = m01;
shapes = (
{
closed = 1;
nodes = (
(141,196,o),
(166,203,o),
(185,203,cs),
(220,203,o),
(230,183,o),
(230,157,cs),
(230,93,o),
(157,45,o),
(100,45,cs),
(85,45,o),
(74,48,o),
(63,57,cs),
(43,71,o),
(27,59,o),
(24,54,cs),
(18,47,o),
(13,36,o),
(35,18,cs),
(52,4,o),
(76,-3,o),
(100,-3,cs),
(180,-3,o),
(280,68,o),
(280,157,cs),
(280,213,o),
(243,250,o),
(182,250,cs),
(155,250,o),
(123,243,o),
(90,226,c),
(105,180,l)
);
},
{
closed = 1;
nodes = (
(196,239,o),
(278,297,o),
(278,342,cs),
(278,375,o),
(245,396,o),
(203,396,cs),
(170,396,o),
(126,383,o),
(86,357,cs),
(66,344,o),
(69,328,o),
(74,321,c),
(78,311,o),
(95,304,o),
(108,313,cs),
(149,341,o),
(184,351,o),
(207,351,cs),
(223,351,o),
(228,348,o),
(228,342,cs),
(228,324,o),
(141,258,o),
(85,223,cs),
(70,213,o),
(73,198,o),
(75,191,cs),
(79,182,o),
(98,173,o),
(113,183,cs)
);
}
);
width = 349;
},
{
layerId = m002;
shapes = (
{
closed = 1;
nodes = (
(153,174,o),
(173,181,o),
(188,181,cs),
(201,181,o),
(207,176,o),
(207,159,cs),
(207,119,o),
(160,86,o),
(124,86,cs),
(108,86,o),
(103,90,o),
(96,95,cs),
(72,112,o),
(39,99,o),
(29,84,cs),
(17,66,o),
(12,43,o),
(41,19,cs),
(60,4,o),
(89,-4,o),
(117,-4,cs),
(200,-4,o),
(301,71,o),
(301,163,cs),
(301,225,o),
(258,264,o),
(190,264,cs),
(158,264,o),
(123,253,o),
(92,239,c),
(146,169,l)
);
},
{
closed = 1;
nodes = (
(218,218,o),
(300,271,o),
(300,325,cs),
(300,364,o),
(264,396,o),
(208,396,cs),
(174,396,o),
(129,382,o),
(91,357,cs),
(63,339,o),
(62,314,o),
(71,296,cs),
(81,274,o),
(111,269,o),
(133,285,cs),
(167,308,o),
(192,322,o),
(204,325,cs),
(211,327,o),
(213,325,o),
(208,318,cs),
(201,307,o),
(143,265,o),
(91,239,cs),
(69,228,o),
(65,204,o),
(72,186,cs),
(80,164,o),
(118,150,o),
(144,168,cs)
);
}
);
width = 383;
},
{
associatedMasterId = m01;
attr = {
axisRules = (
{
max = 800;
min = 600;
}
);
};
layerId = "35E1D01B-5AD9-4CD1-B5CB-DB0E6C87546B";
name = "28 Feb 22, 07:47";
shapes = (
{
closed = 1;
nodes = (
(99,196,o),
(124,203,o),
(143,203,cs),
(178,203,o),
(188,183,o),
(188,157,cs),
(188,93,o),
(115,45,o),
(58,45,cs),
(43,45,o),
(32,48,o),
(21,57,cs),
(1,71,o),
(-15,59,o),
(-18,54,cs),
(-24,47,o),
(-29,36,o),
(-7,18,cs),
(10,4,o),
(34,-3,o),
(58,-3,cs),
(138,-3,o),
(238,68,o),
(238,157,cs),
(238,213,o),
(201,250,o),
(140,250,cs),
(113,250,o),
(81,243,o),
(48,226,c),
(63,180,l)
);
},
{
closed = 1;
nodes = (
(154,239,o),
(236,297,o),
(236,342,cs),
(236,375,o),
(203,396,o),
(161,396,cs),
(128,396,o),
(84,383,o),
(44,357,cs),
(24,344,o),
(27,328,o),
(32,321,c),
(36,311,o),
(53,304,o),
(66,313,cs),
(107,341,o),
(142,351,o),
(165,351,cs),
(181,351,o),
(186,348,o),
(186,342,cs),
(186,324,o),
(99,258,o),
(43,223,cs),
(28,213,o),
(31,198,o),
(33,191,cs),
(37,182,o),
(56,173,o),
(71,183,cs)
);
}
);
visible = 1;
width = 243;
},
{
associatedMasterId = m002;
attr = {
axisRules = (
{
max = 800;
min = 600;
}
);
};
layerId = "1F5825D2-B087-4D37-A840-724583DD09F8";
name = "28 Feb 22, 07:47";
shapes = (
{
closed = 1;
nodes = (
(113,174,o),
(133,181,o),
(148,181,cs),
(161,181,o),
(167,176,o),
(167,159,cs),
(167,119,o),
(120,86,o),
(84,86,cs),
(68,86,o),
(63,90,o),
(56,95,cs),
(32,112,o),
(-1,99,o),
(-11,84,cs),
(-23,66,o),
(-28,43,o),
(1,19,cs),
(20,4,o),
(49,-4,o),
(77,-4,cs),
(160,-4,o),
(261,71,o),
(261,163,cs),
(261,225,o),
(218,258,o),
(150,258,cs),
(118,258,o),
(83,247,o),
(52,233,c),
(106,169,l)
);
},
{
closed = 1;
nodes = (
(184,208,o),
(260,271,o),
(260,325,cs),
(260,364,o),
(224,396,o),
(168,396,cs),
(134,396,o),
(89,382,o),
(51,357,cs),
(23,339,o),
(22,314,o),
(31,296,cs),
(41,274,o),
(67,276,o),
(89,293,cs),
(123,319,o),
(143,328,o),
(157,328,cs),
(164,328,o),
(175,322,o),
(170,315,cs),
(151,286,o),
(103,259,o),
(51,233,cs),
(29,222,o),
(25,198,o),
(32,180,cs),
(40,158,o),
(78,155,o),
(104,168,cs)
);
}
);
visible = 1;
width = 265;
}
);
metricLeft = three;
metricRight = three;
},
{
glyphname = four.c2sc;
lastChange = "2022-03-01 18:40:40 +0000";
layers = (
{
layerId = m01;
shapes = (
{
closed = 1;
nodes = (
(160,387,o),
(147,396,o),
(134,396,cs),
(124,396,o),
(110,390,o),
(107,374,cs),
(60,116,l),
(59,103,o),
(68,91,o),
(85,91,cs),
(101,91,o),
(109,103,o),
(110,114,c),
(157,369,ls)
);
},
{
closed = 1;
nodes = (
(234,211,o),
(223,221,o),
(213,224,cs),
(200,226,o),
(185,219,o),
(182,202,cs),
(150,29,ls),
(147,11,o),
(158,0,o),
(172,0,cs),
(182,0,o),
(197,6,o),
(200,23,cs),
(231,195,ls)
);
},
{
closed = 1;
nodes = (
(287,91,ls),
(303,91,o),
(313,103,o),
(313,114,cs),
(313,125,o),
(303,135,o),
(287,135,cs),
(78,135,l),
(78,91,l)
);
}
);
width = 348;
},
{
layerId = m002;
shapes = (
{
closed = 1;
nodes = (
(214,376,o),
(189,396,o),
(163,396,cs),
(142,396,o),
(119,383,o),
(114,358,cs),
(72,129,ls),
(67,103,o),
(90,80,o),
(119,80,cs),
(145,80,o),
(162,99,o),
(166,122,cs),
(208,345,ls)
);
},
{
closed = 1;
nodes = (
(303,218,o),
(284,241,o),
(264,243,cs),
(239,246,o),
(209,235,o),
(204,206,cs),
(176,53,ls),
(171,23,o),
(192,0,o),
(218,0,cs),
(239,0,o),
(265,12,o),
(270,39,cs),
(298,191,ls)
);
},
{
closed = 1;
nodes = (
(318,80,ls),
(345,80,o),
(366,101,o),
(366,124,cs),
(366,147,o),
(345,165,o),
(318,165,cs),
(116,165,l),
(116,80,l)
);
}
);
width = 410;
}
);
metricLeft = four;
metricRight = four;
},
{
glyphname = five.c2sc;
lastChange = "2022-03-01 18:40:40 +0000";
layers = (
{
layerId = m01;
shapes = (
{
closed = 1;
nodes = (
(127,200,o),
(146,204,o),
(165,204,cs),
(213,204,o),
(232,174,o),
(232,149,cs),
(232,109,o),
(185,44,o),
(125,44,cs),
(109,44,o),
(97,50,o),
(89,57,cs),
(83,63,o),
(75,65,o),
(69,65,cs),
(57,65,o),
(45,56,o),
(45,44,cs),
(45,38,o),
(49,29,o),
(56,21,c),
(72,7,o),
(96,-4,o),
(125,-4,cs),
(217,-4,o),
(282,89,o),
(282,150,cs),
(282,203,o),
(236,252,o),
(162,252,cs),
(141,252,o),
(120,248,o),
(93,239,c),
(97,192,l)
);
},
{
closed = 1;
nodes = (
(137,395,l),
(131,398,o),
(118,394,o),
(113,389,c),
(107,386,o),
(104,379,o),
(102,372,c),
(74,216,ls),
(71,202,o),
(83,193,o),
(98,193,cs),
(109,193,o),
(123,200,o),
(125,214,cs),
(152,371,l)
);
},
{
closed = 1;
nodes = (
(296,352,ls),
(314,352,o),
(321,362,o),
(321,373,cs),
(321,383,o),
(315,396,o),
(296,396,cs),
(124,396,l),
(124,352,l)
);
}
);
width = 361;
},
{
layerId = m002;
shapes = (
{
closed = 1;
nodes = (
(165,177,o),
(178,183,o),
(201,180,cs),
(222,177,o),
(231,171,o),
(231,151,cs),
(231,126,o),
(201,85,o),
(171,85,cs),
(152,85,o),
(147,89,o),
(141,93,cs),
(134,98,o),
(122,103,o),
(104,103,cs),
(88,103,o),
(65,85,o),
(65,67,cs),
(65,52,o),
(69,37,o),
(81,26,cs),
(98,10,o),
(127,-4,o),
(161,-4,cs),
(258,-4,o),
(325,92,o),
(325,156,cs),
(325,215,o),
(273,269,o),
(194,269,cs),
(167,269,o),
(137,261,o),
(131,259,c),
(146,172,l)
);
},
{
closed = 1;
nodes = (
(190,390,l),
(169,401,o),
(145,396,o),
(133,385,cs),
(124,378,o),
(118,367,o),
(116,356,cs),
(91,218,ls),
(86,191,o),
(109,171,o),
(137,171,cs),
(158,171,o),
(182,185,o),
(186,208,cs),
(211,355,l)
);
},
{
closed = 1;
nodes = (
(312,311,ls),
(341,311,o),
(359,330,o),
(359,353,cs),
(359,375,o),
(342,396,o),
(312,396,cs),
(166,396,l),
(166,311,l)
);
}
);
width = 405;
}
);
metricLeft = five;
metricRight = five;
},
{
glyphname = six.c2sc;
lastChange = "2022-03-01 18:40:40 +0000";
layers = (
{
layerId = m01;
shapes = (
{
closed = 1;
nodes = (
(116,138,o),
(139,191,o),
(186,259,cs),
(204,285,o),
(234,319,o),
(284,353,cs),
(293,358,o),
(297,367,o),
(297,376,cs),
(297,387,o),
(288,396,o),
(274,396,cs),
(269,396,o),
(263,395,o),
(256,391,cs),
(223,372,o),
(167,316,o),
(143,284,cs),
(96,216,o),
(67,142,o),
(69,72,c),
(118,72,l)
);
},
{
closed = 1;
nodes = (
(69,36,o),
(104,-4,o),
(155,-4,cs),
(228,-4,o),
(303,100,o),
(303,175,cs),
(303,223,o),
(274,247,o),
(222,247,cs),
(160,247,o),
(115,212,o),
(91,169,c),
(69,81,l)
);
},
{
closed = 1;
nodes = (
(134,44,o),
(118,58,o),
(118,94,cs),
(118,145,o),
(156,199,o),
(221,199,cs),
(245,199,o),
(254,193,o),
(254,172,cs),
(254,121,o),
(196,44,o),
(154,44,cs)
);
}
);
width = 359;
},
{
layerId = m002;
shapes = (
{
closed = 1;
nodes = (
(172,133,o),
(195,175,o),
(241,242,cs),
(256,264,o),
(279,286,o),
(320,314,cs),
(334,323,o),
(343,338,o),
(343,354,cs),
(343,376,o),
(323,396,o),
(298,396,cs),
(289,396,o),
(278,393,o),
(268,386,cs),
(234,366,o),
(184,320,o),
(162,290,cs),
(112,219,o),
(90,158,o),
(91,92,c),
(180,92,l)
);
},
{
closed = 1;
nodes = (
(90,47,o),
(131,-4,o),
(192,-4,cs),
(274,-4,o),
(348,105,o),
(348,180,cs),
(348,236,o),
(311,267,o),
(251,267,cs),
(184,267,o),
(135,226,o),
(112,183,c),
(91,97,l)
);
},
{
closed = 1;
nodes = (
(189,84,o),
(184,94,o),
(184,113,cs),
(184,147,o),
(207,179,o),
(241,179,cs),
(253,179,o),
(255,175,o),
(255,163,cs),
(255,133,o),
(219,84,o),
(199,84,cs)
);
}
);
width = 422;
}
);
metricLeft = six;
metricRight = six;
},
{
glyphname = seven.c2sc;
lastChange = "2022-03-01 18:40:40 +0000";
layers = (
{
layerId = m01;
shapes = (
{
closed = 1;
nodes = (
(280,383,o),
(273,396,o),
(253,396,cs),
(244,396,o),
(231,389,o),
(229,377,cs),
(167,26,ls),
(164,8,o),
(175,0,o),
(188,0,cs),
(199,0,o),
(213,7,o),
(216,24,cs),
(277,372,l)
);
},
{
closed = 1;
nodes = (
(262,396,l),
(88,396,ls),
(71,396,o),
(62,384,o),
(62,374,cs),
(62,363,o),
(71,351,o),
(88,351,cs),
(262,351,l)
);
}
);
width = 363;
},
{
layerId = m002;
shapes = (
{
closed = 1;
nodes = (
(313,372,o),
(296,396,o),
(263,396,cs),
(243,396,o),
(221,382,o),
(217,359,cs),
(162,50,ls),
(156,19,o),
(179,0,o),
(205,0,cs),
(226,0,o),
(250,14,o),
(255,40,cs),
(309,348,ls)
);
},
{
closed = 1;
nodes = (
(264,396,l),
(117,396,ls),
(89,396,o),
(69,376,o),
(69,354,cs),
(69,331,o),
(89,310,o),
(117,310,cs),
(264,310,l)
);
}
);
width = 407;
}
);
metricLeft = seven;
metricRight = seven;
},
{
glyphname = eight.c2sc;
lastChange = "2022-03-01 18:40:40 +0000";
layers = (
{
layerId = m01;
shapes = (
{
closed = 1;
nodes = (
(143,231,l),
(79,184,o),
(61,132,o),
(61,94,cs),
(61,53,o),
(83,-4,o),
(153,-4,cs),
(228,-4,o),
(269,59,o),
(269,106,cs),
(269,147,o),
(236,187,o),
(206,217,cs),
(194,229,l)
);
},
{
closed = 1;
nodes = (
(193,161,o),
(219,131,o),
(219,106,cs),
(219,79,o),
(191,44,o),
(157,44,cs),
(128,44,o),
(110,68,o),
(110,99,cs),
(110,124,o),
(122,154,o),
(167,187,c),
(170,184,ls)
);
},
{
closed = 1;
nodes = (
(250,246,o),
(308,291,o),
(308,333,cs),
(308,374,o),
(253,396,o),
(211,396,cs),
(159,396,o),
(96,366,o),
(96,302,cs),
(96,259,o),
(128,230,o),
(145,214,c),
(187,239,l),
(171,254,o),
(146,275,o),
(146,306,cs),
(146,339,o),
(178,348,o),
(204,348,cs),
(228,348,o),
(261,340,o),
(261,333,cs),
(261,317,o),
(182,252,o),
(135,227,c),
(193,208,l)
);
}
);
width = 367;
},
{
layerId = m002;
shapes = (
{
closed = 1;
nodes = (
(165,245,l),
(96,197,o),
(73,145,o),
(73,106,cs),
(73,64,o),
(97,-3,o),
(177,-3,cs),
(258,-3,o),
(301,66,o),
(301,117,cs),
(301,160,o),
(263,197,o),
(235,225,cs),
(218,242,l)
);
},
{
closed = 1;
nodes = (
(182,166,o),
(221,137,o),
(221,117,cs),
(221,99,o),
(199,78,o),
(180,78,cs),
(166,78,o),
(153,89,o),
(153,110,cs),
(153,129,o),
(168,147,o),
(187,161,c),
(186,162,ls)
);
},
{
closed = 1;
nodes = (
(266,223,o),
(336,267,o),
(336,317,cs),
(336,369,o),
(273,396,o),
(228,396,cs),
(174,396,o),
(104,361,o),
(104,290,cs),
(104,243,o),
(139,212,o),
(166,186,c),
(235,225,l),
(222,248,o),
(184,266,o),
(184,294,cs),
(184,308,o),
(202,325,o),
(222,325,cs),
(237,325,o),
(255,322,o),
(255,316,cs),
(255,309,o),
(225,290,o),
(139,225,c),
(212,187,l)
);
}
);
width = 404;
}
);
metricLeft = eight;
metricRight = eight;
},
{
glyphname = nine.c2sc;
lastChange = "2022-03-01 18:40:40 +0000";
layers = (
{
layerId = m01;
shapes = (
{
closed = 1;
nodes = (
(244,363,l),
(223,330,o),
(202,295,o),
(174,260,cs),
(133,210,o),
(111,191,o),
(101,191,cs),
(99,191,o),
(99,195,o),
(99,205,cs),
(99,229,o),
(112,289,o),
(128,314,cs),
(147,342,o),
(177,348,o),
(199,348,cs),
(204,348,o),
(249,348,o),
(255,348,cs),
(270,348,l),
(270,356,o),
(270,389,o),
(270,396,c),
(263,396,o),
(215,396,o),
(199,396,cs),
(158,396,o),
(116,383,o),
(88,343,cs),
(66,308,o),
(50,242,o),
(50,202,cs),
(50,164,o),
(67,143,o),
(93,143,cs),
(137,143,o),
(173,182,o),
(202,217,cs),
(235,259,o),
(270,310,o),
(284,347,cs),
(290,363,l)
);
},
{
closed = 1;
nodes = (
(302,387,o),
(293,396,o),
(281,396,cs),
(241,396,l),
(241,330,l),
(188,23,ls),
(185,7,o),
(198,0,o),
(211,0,cs),
(222,0,o),
(234,6,o),
(237,21,cs),
(299,372,ls)
);
}
);
width = 360;
},
{
layerId = m002;
shapes = (
{
closed = 1;
nodes = (
(245,349,l),
(242,329,o),
(215,300,o),
(201,281,cs),
(181,255,o),
(168,244,o),
(163,239,cs),
(157,233,o),
(150,227,o),
(140,227,cs),
(132,227,o),
(147,279,o),
(164,304,cs),
(175,320,o),
(203,318,o),
(219,318,cs),
(224,318,o),
(263,318,o),
(269,318,cs),
(294,318,l),
(294,352,o),
(294,374,o),
(294,396,c),
(270,396,o),
(234,396,o),
(219,396,cs),
(178,396,o),
(125,386,o),
(94,343,cs),
(71,307,o),
(59,240,o),
(56,202,cs),
(53,157,o),
(88,135,o),
(125,135,cs),
(168,135,o),
(209,184,o),
(235,216,cs),
(266,255,o),
(312,303,o),
(317,321,cs),
(325,349,l)
);
},
{
closed = 1;
nodes = (
(338,376,o),
(317,396,o),
(292,396,cs),
(231,396,l),
(235,317,l),
(187,46,ls),
(182,15,o),
(207,0,o),
(230,0,cs),
(250,0,o),
(274,13,o),
(278,37,cs),
(333,348,ls)
);
}
);
width = 405;
}
);
metricLeft = nine;
metricRight = nine;
},
{
glyphname = .notdef;
lastChange = "2022-02-27 19:21:30 +0000";
layers = (
{
layerId = m01;
shapes = (
{
closed = 1;
nodes = (
(450,0,o),
(461,12,o),
(464,27,cs),
(578,673,ls),
(581,689,o),
(574,700,o),
(560,700,cs),
(164,700,ls),
(147,700,o),
(136,689,o),
(133,673,cs),
(19,27,ls),
(16,12,o),
(24,0,o),
(43,0,cs),
(439,0,ls)
);
},
{
closed = 1;
nodes = (
(181,655,l),
(524,655,l),
(417,45,l),
(73,45,l)
);
}
);
width = 535;
},
{
layerId = m002;
shapes = (
{
closed = 1;
nodes = (
(492,0,o),
(515,26,o),
(519,49,cs),
(626,659,ls),
(631,687,o),
(616,700,o),
(579,700,c),
(199,700,l),
(171,700,o),
(150,687,o),
(145,659,cs),
(38,49,ls),
(33,21,o),
(47,0,o),
(86,0,cs),
(467,0,ls)
);
},
{
closed = 1;
nodes = (
(238,605,l),
(515,605,l),
(425,95,l),
(148,95,l)
);
}
);
width = 600;
}
);
metricLeft = N;
metricRight = N;
},
{
glyphname = period;
lastChange = "2022-03-01 20:42:03 +0000";
layers = (
{
layerId = m01;
shapes = (
{
closed = 1;
nodes = (
(73,-30,o),
(91,-12,o),
(91,9,cs),
(91,29,o),
(73,46,o),
(53,46,cs),
(32,46,o),
(16,29,o),
(16,9,cs),
(16,-11,o),
(32,-30,o),
(53,-30,cs)
);
}
);
width = 165;
},
{
layerId = m002;
shapes = (
{
closed = 1;
nodes = (
(113,-30,o),
(139,-4,o),
(139,26,cs),
(139,55,o),
(113,80,o),
(84,80,cs),
(53,80,o),
(29,55,o),
(29,26,cs),
(29,-3,o),
(53,-30,o),
(84,-30,cs)
);
}
);
width = 220;
}
);
metricLeft = n;
metricRight = n;
unicode = 46;
},
{
glyphname = comma;
lastChange = "2022-03-01 20:42:03 +0000";
layers = (
{
layerId = m01;
shapes = (
{
closed = 1;
nodes = (
(72,39,o),
(61,49,o),
(48,50,cs),
(35,52,o),
(22,45,o),
(19,28,cs),
(2,-71,ls),
(-1,-89,o),
(9,-99,o),
(21,-101,cs),
(33,-103,o),
(48,-96,o),
(51,-78,cs),
(69,21,ls)
);
}
);
width = 140;
},
{
layerId = m002;
shapes = (
{
closed = 1;
nodes = (
(138,71,o),
(117,91,o),
(90,94,cs),
(65,97,o),
(38,83,o),
(33,54,cs),
(16,-45,ls),
(11,-76,o),
(31,-97,o),
(56,-101,cs),
(80,-105,o),
(110,-90,o),
(115,-60,cs),
(133,39,ls)
);
}
);
width = 211;
}
);
metricLeft = n;
metricRight = n;
unicode = 44;
},
{
glyphname = colon;
lastChange = "2022-03-01 20:42:03 +0000";
layers = (
{
layerId = m01;
shapes = (
{
closed = 1;
nodes = (
(74,-30,o),
(92,-12,o),
(92,9,cs),
(92,29,o),
(74,46,o),
(53,46,cs),
(32,46,o),
(16,29,o),
(16,9,cs),
(16,-11,o),
(32,-30,o),
(53,-30,cs)
);
},
{
closed = 1;
nodes = (
(109,175,o),
(127,194,o),
(127,214,cs),
(127,235,o),
(109,251,o),
(89,251,cs),
(68,251,o),
(52,234,o),
(52,214,cs),
(52,195,o),
(68,175,o),
(89,175,cs)
);
}
);
width = 166;
},
{
layerId = m002;
shapes = (
{
closed = 1;
nodes = (
(149,175,o),
(175,202,o),
(175,232,cs),
(175,261,o),
(149,285,o),
(120,285,cs),
(89,285,o),
(65,259,o),
(65,231,cs),
(65,203,o),
(89,175,o),
(119,175,cs)
);
},
{
closed = 1;
nodes = (
(113,-30,o),
(139,-4,o),
(139,26,cs),
(139,56,o),
(113,80,o),
(83,80,cs),
(52,80,o),
(29,55,o),
(29,26,cs),
(29,-3,o),
(52,-30,o),
(83,-30,cs)
);
}
);
width = 220;
}
);
metricLeft = n;
metricRight = n;
unicode = 58;
},
{
glyphname = semicolon;
lastChange = "2022-03-01 20:42:03 +0000";
layers = (
{
layerId = m01;
shapes = (
{
closed = 1;
nodes = (
(85,39,o),
(74,49,o),
(61,50,cs),
(48,52,o),
(35,45,o),
(32,28,cs),
(15,-71,ls),
(12,-90,o),
(24,-101,o),
(37,-102,cs),
(48,-103,o),
(61,-95,o),
(64,-78,cs),
(82,21,ls)
);
},
{
closed = 1;
nodes = (
(109,175,o),
(127,194,o),
(127,214,cs),
(127,235,o),
(109,251,o),
(89,251,cs),
(68,251,o),
(52,234,o),
(52,214,cs),
(52,195,o),
(68,175,o),
(89,175,cs)
);
}
);
width = 165;
},
{
layerId = m002;
shapes = (
{
closed = 1;
nodes = (
(142,71,o),
(120,91,o),
(93,94,cs),
(68,97,o),
(41,83,o),
(36,54,cs),
(19,-45,ls),
(13,-78,o),
(37,-100,o),
(64,-102,cs),
(87,-104,o),
(113,-89,o),
(118,-60,cs),
(136,39,ls)
);
},
{
closed = 1;
nodes = (
(148,175,o),
(174,203,o),
(174,231,cs),
(174,262,o),
(148,285,o),
(119,285,cs),
(88,285,o),
(65,260,o),
(65,231,cs),
(65,204,o),
(88,175,o),
(119,175,cs)
);
}
);
width = 219;
}
);
metricLeft = n;
metricRight = n;
unicode = 59;
},
{
glyphname = ellipsis;
lastChange = "2022-03-01 20:42:03 +0000";
layers = (
{
layerId = m01;
shapes = (
{
closed = 1;
nodes = (
(293,-30,o),
(311,-12,o),
(311,9,cs),
(311,29,o),
(293,46,o),
(273,46,cs),
(252,46,o),
(236,29,o),
(236,9,cs),
(236,-11,o),
(252,-30,o),
(273,-30,cs)
);
},
{
closed = 1;
nodes = (
(73,-30,o),
(91,-12,o),
(91,9,cs),
(91,29,o),
(73,46,o),
(53,46,cs),
(32,46,o),
(16,29,o),
(16,9,cs),
(16,-11,o),
(32,-30,o),
(53,-30,cs)
);
},
{
closed = 1;
nodes = (
(183,-30,o),
(201,-12,o),
(201,9,cs),
(201,29,o),
(183,46,o),
(163,46,cs),
(142,46,o),
(126,29,o),
(126,9,cs),
(126,-11,o),
(142,-30,o),
(163,-30,cs)
);
}
);
width = 385;
},
{
layerId = m002;
shapes = (
{
closed = 1;
nodes = (
(401,-31,o),
(428,-6,o),
(428,25,cs),
(428,56,o),
(401,79,o),
(372,79,cs),
(344,79,o),
(318,57,o),
(318,25,cs),
(318,-6,o),
(344,-31,o),
(373,-31,cs)
);
},
{
closed = 1;
nodes = (
(111,-31,o),
(138,-6,o),
(138,25,cs),
(138,56,o),
(111,79,o),
(82,79,cs),
(54,79,o),
(28,57,o),
(28,25,cs),
(28,-6,o),
(54,-31,o),
(83,-31,cs)
);
},
{
closed = 1;
nodes = (
(256,-30,o),
(283,-6,o),
(283,25,cs),
(283,56,o),
(256,79,o),
(228,79,cs),
(199,79,o),
(173,56,o),
(173,25,cs),
(173,-6,o),
(199,-30,o),
(228,-30,cs)
);
}
);
width = 509;
}
);
metricLeft = n;
metricRight = n;
unicode = 8230;
},
{
glyphname = exclam;
lastChange = "2022-02-27 19:26:55 +0000";
layers = (
{
layerId = m01;
shapes = (
{
closed = 1;
nodes = (
(184,643,o),
(174,650,o),
(162,650,cs),
(149,650,o),
(134,643,o),
(131,629,cs),
(55,202,ls),
(52,185,o),
(64,176,o),
(76,175,cs),
(88,174,o),
(103,183,o),
(106,202,cs),
(182,629,ls)
);
},
{
closed = 1;
nodes = (
(65,-24,o),
(81,-8,o),
(81,9,cs),
(81,26,o),
(65,41,o),
(47,41,cs),
(29,41,o),
(16,25,o),
(16,9,cs),
(16,-7,o),
(29,-24,o),
(47,-24,cs)
);
}
);
width = 156;
},
{
layerId = m002;
shapes = (
{
closed = 1;
nodes = (
(248,632,o),
(221,650,o),
(197,650,cs),
(175,650,o),
(146,635,o),
(142,611,cs),
(73,226,ls),
(68,197,o),
(92,177,o),
(117,175,cs),
(140,173,o),
(169,191,o),
(174,220,cs),
(243,605,ls)
);
},
{
closed = 1;
nodes = (
(117,-24,o),
(145,2,o),
(145,31,cs),
(145,60,o),
(117,86,o),
(87,86,cs),
(56,86,o),
(35,58,o),
(35,31,cs),
(35,4,o),
(56,-24,o),
(87,-24,cs)
);
}
);
width = 230;
}
);
metricLeft = N;
metricRight = N;
unicode = 33;
},
{
glyphname = exclamdown;
lastChange = "2022-02-27 19:26:55 +0000";
layers = (
{
layerId = m01;
shapes = (
{
closed = 1;
nodes = (
(149,441,o),
(137,450,o),
(125,451,cs),
(113,452,o),
(98,443,o),
(95,424,cs),
(21,21,ls),
(18,6,o),
(30,-1,o),
(43,0,cs),
(55,0,o),
(69,7,o),
(72,21,cs),
(146,424,ls)
);
},
{
closed = 1;
nodes = (
(175,585,o),
(188,601,o),
(188,617,cs),
(188,633,o),
(175,650,o),
(157,650,cs),
(139,650,o),
(123,634,o),
(123,617,cs),
(123,600,o),
(139,585,o),
(157,585,cs)
);
}
);
width = 156;
},
{
layerId = m002;
shapes = (
{
closed = 1;
nodes = (
(213,433,o),
(187,450,o),
(164,452,cs),
(140,454,o),
(112,437,o),
(107,407,cs),
(43,47,ls),
(38,17,o),
(63,-2,o),
(91,0,cs),
(113,0,o),
(139,14,o),
(143,39,cs),
(207,399,ls)
);
},
{
closed = 1;
nodes = (
(223,540,o),
(245,566,o),
(245,594,cs),
(245,623,o),
(223,650,o),
(192,650,cs),
(162,650,o),
(135,623,o),
(135,594,cs),
(135,566,o),
(162,540,o),
(192,540,cs)
);
}
);
width = 231;
}
);
metricLeft = N;
metricRight = N;
unicode = 161;
},
{
glyphname = question;
lastChange = "2022-02-27 19:26:55 +0000";
layers = (
{
layerId = m01;
shapes = (
{
closed = 1;
nodes = (
(347,272,o),
(415,364,o),
(440,503,cs),
(454,582,o),
(386,654,o),
(295,654,cs),
(180,654,o),
(116,590,o),
(99,495,cs),
(95,473,o),
(100,460,o),
(111,457,cs),
(124,454,o),
(144,463,o),
(148,485,cs),
(158,542,o),
(196,604,o),
(281,604,cs),
(347,604,o),
(401,568,o),
(390,507,cs),
(382,461,o),
(358,322,o),
(196,322,c),
(191,272,l)
);
},
{
closed = 1;
nodes = (
(159,-24,o),
(175,-9,o),
(175,7,cs),
(175,26,o),
(160,41,o),
(141,41,cs),
(124,41,o),
(110,25,o),
(110,7,cs),
(110,-8,o),
(124,-24,o),
(141,-24,cs)
);
},
{
closed = 1;
nodes = (
(221,310,o),
(214,322,o),
(194,322,cs),
(183,322,o),
(171,314,o),
(169,303,cs),
(151,202,ls),
(149,188,o),
(159,178,o),
(171,175,cs),
(184,173,o),
(198,180,o),
(202,202,cs),
(220,303,ls)
);
}
);
width = 413;
},
{
layerId = m002;
shapes = (
{
closed = 1;
nodes = (
(372,256,o),
(447,353,o),
(473,492,cs),
(488,577,o),
(414,654,o),
(317,654,cs),
(200,654,o),
(133,586,o),
(116,493,cs),
(109,458,o),
(124,439,o),
(145,434,cs),
(170,427,o),
(205,443,o),
(210,476,cs),
(218,524,o),
(243,565,o),
(305,565,cs),
(356,565,o),
(386,545,o),
(378,504,cs),
(371,459,o),
(350,345,o),
(218,356,c),
(197,267,l)
);
},
{
closed = 1;
nodes = (
(193,-24,o),
(221,2,o),
(221,32,cs),
(221,61,o),
(195,86,o),
(165,86,cs),
(134,86,o),
(111,60,o),
(111,32,cs),
(111,4,o),
(134,-24,o),
(164,-24,cs)
);
},
{
closed = 1;
nodes = (
(272,338,o),
(248,356,o),
(219,356,cs),
(198,356,o),
(176,342,o),
(172,321,cs),
(156,233,ls),
(151,207,o),
(166,182,o),
(195,176,cs),
(221,171,o),
(245,193,o),
(251,225,cs),
(267,313,ls)
);
}
);
width = 467;
}
);
metricLeft = O;
metricRight = O;
unicode = 63;
},
{
glyphname = questiondown;
lastChange = "2022-02-27 19:26:55 +0000";
layers = (
{
layerId = m01;
shapes = (
{
closed = 1;
nodes = (
(132,382,o),
(64,290,o),
(39,151,cs),
(25,72,o),
(93,0,o),
(184,0,cs),
(299,0,o),
(363,64,o),
(380,159,cs),
(384,181,o),
(379,194,o),
(368,197,cs),
(355,200,o),
(335,191,o),
(331,169,cs),
(321,112,o),
(283,50,o),
(198,50,cs),
(132,50,o),
(78,86,o),
(89,147,cs),
(97,193,o),
(121,332,o),
(283,332,c),
(288,382,l)
);
},
{
closed = 1;
nodes = (
(330,466,o),
(320,476,o),
(308,479,cs),
(295,481,o),
(281,474,o),
(277,452,cs),
(259,351,ls),
(258,344,o),
(265,332,o),
(285,332,cs),
(296,332,o),
(308,340,o),
(310,351,cs),
(328,452,ls)
);
},
{
closed = 1;
nodes = (
(350,585,o),
(364,601,o),
(364,619,cs),
(364,634,o),
(350,650,o),
(333,650,cs),
(315,650,o),
(299,635,o),
(299,619,cs),
(299,600,o),
(314,585,o),
(333,585,cs)
);
}
);
width = 414;
},
{
layerId = m002;
shapes = (
{
closed = 1;
nodes = (
(163,398,o),
(82,296,o),
(57,160,cs),
(43,76,o),
(114,1,o),
(209,1,cs),
(324,1,o),
(396,67,o),
(413,159,cs),
(418,194,o),
(405,212,o),
(384,217,cs),
(360,224,o),
(325,208,o),
(319,175,cs),
(312,128,o),
(287,89,o),
(227,89,cs),
(177,89,o),
(149,108,o),
(156,148,cs),
(163,192,o),
(187,300,o),
(308,289,c),
(337,386,l)
);
},
{
closed = 1;
nodes = (
(380,454,o),
(361,473,o),
(337,479,cs),
(311,484,o),
(281,470,o),
(275,435,cs),
(257,333,ls),
(253,310,o),
(277,289,o),
(308,289,cs),
(330,289,o),
(353,304,o),
(357,326,cs),
(375,428,ls)
);
},
{
closed = 1;
nodes = (
(385,540,o),
(407,568,o),
(407,597,cs),
(407,625,o),
(383,650,o),
(353,650,cs),
(322,650,o),
(297,625,o),
(297,598,cs),
(297,568,o),
(322,540,o),
(354,540,cs)
);
}
);
width = 466;
}
);
metricLeft = O;
metricRight = O;
unicode = 191;
},
{
glyphname = periodcentered;
lastChange = "2022-03-01 20:42:03 +0000";
layers = (
{
layerId = m01;
shapes = (
{
closed = 1;
nodes = (
(103,138,o),
(121,157,o),
(121,177,cs),
(121,198,o),
(103,214,o),
(83,214,cs),
(62,214,o),
(46,197,o),
(46,177,cs),
(46,158,o),
(62,138,o),
(83,138,cs)
);
}
);
width = 165;
},
{
layerId = m002;
shapes = (
{
closed = 1;
nodes = (
(138,121,o),
(165,149,o),
(165,178,cs),
(165,209,o),
(138,231,o),
(109,231,cs),
(78,231,o),
(55,207,o),
(55,178,cs),
(55,151,o),
(78,121,o),
(109,121,cs)
);
}
);
width = 219;
}
);
metricLeft = n;
metricRight = n;
unicode = 183;
},
{
glyphname = bullet;
lastChange = "2022-03-01 20:42:03 +0000";
layers = (
{
layerId = m01;
shapes = (
{
closed = 1;
nodes = (
(191,278,o),
(228,314,o),
(228,355,cs),
(228,396,o),
(192,430,o),
(152,430,cs),
(110,430,o),
(78,395,o),
(78,355,cs),
(78,316,o),
(109,278,o),
(151,278,cs)
);
}
);
width = 241;
},
{
layerId = m002;
shapes = (
{
closed = 1;
nodes = (
(238,254,o),
(287,301,o),
(287,355,cs),
(287,409,o),
(239,454,o),
(185,454,cs),
(130,454,o),
(87,408,o),
(87,355,cs),
(87,304,o),
(128,254,o),
(184,254,cs)
);
}
);
width = 311;
}
);
metricLeft = n;
metricRight = n;
unicode = 8226;
},
{
glyphname = asterisk;
lastChange = "2022-02-27 19:26:55 +0000";
layers = (
{
layerId = m01;
shapes = (
{
closed = 1;
nodes = (
(291,584,o),
(294,598,o),
(288,607,cs),
(283,614,o),
(271,617,o),
(256,608,cs),
(120,524,ls),
(103,513,o),
(99,499,o),
(105,491,cs),
(110,483,o),
(122,481,o),
(138,490,cs),
(274,574,ls)
);
},
{
closed = 1;
nodes = (
(251,482,o),
(264,484,o),
(271,492,cs),
(276,499,o),
(276,511,o),
(263,521,cs),
(155,606,ls),
(143,616,o),
(131,614,o),
(125,606,cs),
(118,599,o),
(118,586,o),
(131,576,cs),
(238,492,ls)
);
},
{
closed = 1;
nodes = (
(232,641,o),
(224,650,o),
(215,650,cs),
(205,650,o),
(193,641,o),
(190,623,cs),
(164,475,ls),
(161,458,o),
(168,450,o),
(177,448,cs),
(187,447,o),
(200,456,o),
(203,475,cs),
(229,623,ls)
);
}
);
width = 262;
},
{
layerId = m002;
shapes = (
{
closed = 1;
nodes = (
(346,570,o),
(356,594,o),
(341,617,cs),
(330,633,o),
(302,639,o),
(277,625,cs),
(144,543,l),
(122,527,o),
(110,504,o),
(123,483,cs),
(133,464,o),
(164,458,o),
(191,474,cs),
(320,554,ls)
);
},
{
closed = 1;
nodes = (
(281,460,o),
(310,464,o),
(324,481,cs),
(337,499,o),
(335,521,o),
(313,538,cs),
(208,621,ls),
(186,638,o),
(157,634,o),
(144,617,cs),
(129,599,o),
(131,576,o),
(155,558,cs),
(256,477,l)
);
},
{
closed = 1;
nodes = (
(294,648,o),
(274,668,o),
(250,668,cs),
(229,668,o),
(206,651,o),
(201,624,cs),
(176,482,ls),
(171,453,o),
(187,436,o),
(208,431,cs),
(230,426,o),
(258,443,o),
(264,474,cs),
(289,616,ls)
);
}
);
width = 334;
}
);
metricLeft = N;
metricRight = N;
unicode = 42;
},
{
glyphname = numbersign;
lastChange = "2022-02-27 19:26:55 +0000";
layers = (
{
layerId = m01;
shapes = (
{
closed = 1;
nodes = (
(310,559,o),
(299,568,o),
(286,568,cs),
(273,568,o),
(259,560,o),
(256,543,cs),
(165,28,ls),
(162,10,o),
(172,0,o),
(184,0,cs),
(197,-1,o),
(212,8,o),
(216,28,cs),
(307,543,ls)
);
},
{
closed = 1;
nodes = (
(633,147,o),
(642,159,o),
(642,170,cs),
(642,181,o),
(634,192,o),
(616,192,cs),
(71,192,ls),
(53,192,o),
(45,181,o),
(45,170,cs),
(45,159,o),
(54,147,o),
(71,147,cs),
(616,147,ls)
);
},
{
closed = 1;
nodes = (
(566,559,o),
(555,567,o),
(543,568,cs),
(530,568,o),
(515,560,o),
(512,543,cs),
(421,28,ls),
(418,9,o),
(429,-1,o),
(442,0,cs),
(455,0,o),
(469,9,o),
(472,28,cs),
(563,543,ls)
);
},
{
closed = 1;
nodes = (
(675,384,o),
(684,395,o),
(684,406,cs),
(684,417,o),
(675,429,o),
(657,429,cs),
(113,429,ls),
(95,429,o),
(86,417,o),
(86,406,cs),
(86,395,o),
(95,384,o),
(113,384,cs),
(657,384,ls)
);
}
);
width = 689;
},
{
layerId = m002;
shapes = (
{
closed = 1;
nodes = (
(604,555,o),
(580,568,o),
(557,568,cs),
(533,568,o),
(505,558,o),
(500,531,cs),
(415,47,ls),
(409,13,o),
(435,0,o),
(462,0,cs),
(486,0,o),
(508,11,o),
(513,39,cs),
(598,523,ls)
);
},
{
closed = 1;
nodes = (
(652,133,o),
(672,153,o),
(672,177,cs),
(672,200,o),
(653,218,o),
(623,218,cs),
(111,218,ls),
(81,218,o),
(61,200,o),
(61,177,cs),
(61,153,o),
(82,133,o),
(111,133,cs),
(623,133,ls)
);
},
{
closed = 1;
nodes = (
(362,552,o),
(338,568,o),
(311,568,cs),
(286,568,o),
(265,557,o),
(260,530,cs),
(174,47,ls),
(168,16,o),
(188,0,o),
(214,0,cs),
(238,0,o),
(267,10,o),
(272,39,cs),
(357,523,ls)
);
},
{
closed = 1;
nodes = (
(691,357,o),
(712,375,o),
(712,399,cs),
(712,422,o),
(691,442,o),
(661,442,cs),
(150,442,ls),
(120,442,o),
(100,422,o),
(100,399,cs),
(100,375,o),
(120,357,o),
(150,357,cs),
(661,357,ls)
);
}
);
width = 732;
}
);
metricLeft = N;
metricRight = N;
unicode = 35;
},
{
glyphname = slash;
lastChange = "2022-02-27 19:26:55 +0000";
layers = (
{
layerId = m01;
shapes = (
{
closed = 1;
nodes = (
(336,637,o),
(321,650,o),
(306,650,cs),
(295,650,o),
(284,644,o),
(277,627,cs),
(20,31,ls),
(12,12,o),
(26,0,o),
(42,0,cs),
(53,0,o),
(64,6,o),
(70,20,cs),
(327,616,ls)
);
}
);
width = 295;
},
{
layerId = m002;
shapes = (
{
closed = 1;
nodes = (
(395,624,o),
(364,650,o),
(334,650,cs),
(314,650,o),
(292,639,o),
(281,614,cs),
(41,60,ls),
(26,25,o),
(55,0,o),
(87,0,cs),
(106,0,o),
(128,10,o),
(138,32,cs),
(379,588,ls)
);
}
);
width = 367;
}
);
metricLeft = N;
metricRight = N;
unicode = 47;
},
{
glyphname = backslash;
lastChange = "2022-02-27 19:26:55 +0000";
layers = (
{
layerId = m01;
shapes = (
{
closed = 1;
nodes = (
(171,644,o),
(160,650,o),
(149,650,cs),
(134,650,o),
(119,637,o),
(128,616,cs),
(385,20,ls),
(391,5,o),
(403,0,o),
(414,0,cs),
(429,0,o),
(443,13,o),
(435,31,cs),
(178,627,ls)
);
}
);
width = 510;
},
{
layerId = m002;
shapes = (
{
closed = 1;
nodes = (
(219,648,o),
(188,655,o),
(163,646,cs),
(141,638,o),
(127,608,o),
(142,574,cs),
(377,32,ls),
(390,1,o),
(424,-6,o),
(449,4,cs),
(470,13,o),
(482,41,o),
(470,69,cs),
(234,614,ls)
);
}
);
width = 557;
}
);
metricLeft = N;
metricRight = N;
unicode = 92;
},
{
glyphname = hyphen;
lastChange = "2022-03-01 20:42:03 +0000";
layers = (
{
layerId = m01;
shapes = (
{
closed = 1;
nodes = (
(242,175,o),
(251,186,o),
(251,198,cs),
(251,209,o),
(242,220,o),
(224,220,cs),
(76,220,ls),
(57,220,o),
(48,208,o),
(49,196,cs),
(50,185,o),
(59,175,o),
(76,175,cs),
(224,175,ls)
);
}
);
width = 291;
},
{
layerId = m002;
shapes = (
{
closed = 1;
nodes = (
(290,153,o),
(311,173,o),
(311,198,cs),
(311,222,o),
(290,242,o),
(259,242,cs),
(111,242,ls),
(78,242,o),
(57,220,o),
(59,194,cs),
(61,171,o),
(82,153,o),
(111,153,cs),
(259,153,ls)
);
}
);
width = 362;
}
);
metricLeft = n;
metricRight = n;
unicode = 45;
},
{
glyphname = endash;
lastChange = "2022-03-01 20:42:03 +0000";
layers = (
{
layerId = m01;
shapes = (
{
closed = 1;
nodes = (
(322,175,o),
(331,187,o),
(331,199,cs),
(331,210,o),
(322,220,o),
(304,220,cs),
(77,220,ls),
(59,220,o),
(50,210,o),
(50,199,cs),
(50,187,o),
(59,175,o),
(77,175,cs),
(304,175,ls)
);
}
);
width = 371;
},
{
layerId = m002;
shapes = (
{
closed = 1;
nodes = (
(369,153,o),
(390,174,o),
(390,199,cs),
(390,223,o),
(369,242,o),
(338,242,cs),
(111,242,ls),
(80,242,o),
(59,223,o),
(59,199,cs),
(59,174,o),
(80,153,o),
(111,153,cs),
(338,153,ls)
);
}
);
width = 440;
}
);
metricLeft = n;
metricRight = n;
unicode = 8211;
},
{
glyphname = emdash;
lastChange = "2022-03-01 20:42:03 +0000";
layers = (
{
layerId = m01;
shapes = (
{
closed = 1;
nodes = (
(422,175,o),
(433,187,o),
(433,199,cs),
(433,209,o),
(423,220,o),
(402,220,cs),
(79,220,ls),
(59,220,o),
(49,209,o),
(49,199,cs),
(49,187,o),
(60,175,o),
(79,175,cs),
(402,175,ls)
);
}
);
width = 473;
},
{
layerId = m002;
shapes = (
{
closed = 1;
nodes = (
(470,153,o),
(493,174,o),
(493,199,cs),
(493,222,o),
(471,242,o),
(437,242,cs),
(114,242,ls),
(81,242,o),
(59,222,o),
(59,199,cs),
(59,174,o),
(82,153,o),
(114,153,cs),
(437,153,ls)
);
}
);
width = 543;
}
);
metricLeft = n;
metricRight = n;
unicode = 8212;
},
{
glyphname = underscore;
lastChange = "2022-03-01 20:42:03 +0000";
layers = (
{
layerId = m01;
shapes = (
{
closed = 1;
nodes = (
(339,-77,o),
(348,-66,o),
(348,-54,cs),
(348,-43,o),
(339,-32,o),
(321,-32,cs),
(32,-32,ls),
(13,-32,o),
(5,-43,o),
(5,-55,cs),
(5,-66,o),
(15,-77,o),
(32,-77,cs),
(321,-77,ls)
);
}
);
width = 433;
},
{
layerId = m002;
shapes = (
{
closed = 1;
nodes = (
(386,-99,o),
(407,-79,o),
(407,-54,cs),
(407,-30,o),
(386,-10,o),
(355,-10,cs),
(66,-10,ls),
(34,-10,o),
(14,-30,o),
(14,-55,cs),
(14,-79,o),
(36,-99,o),
(66,-99,cs),
(355,-99,ls)
);
}
);
width = 502;
}
);
metricLeft = n;
metricRight = n;
unicode = 95;
},
{
glyphname = parenleft;
lastChange = "2022-02-27 19:26:55 +0000";
layers = (
{
layerId = m01;
shapes = (
{
closed = 1;
nodes = (
(188,-292,o),
(189,-278,o),
(181,-261,cs),
(95,-81,o),
(82,77,o),
(107,219,cs),
(130,347,o),
(206,480,o),
(332,607,cs),
(350,625,o),
(352,639,o),
(345,646,cs),
(337,654,o),
(319,651,o),
(299,633,cs),
(167,506,o),
(70,329,o),
(51,219,cs),
(29,94,o),
(55,-101,o),
(145,-283,cs),
(153,-299,o),
(169,-303,o),
(180,-297,cs)
);
}
);
width = 313;
},
{
layerId = m002;
shapes = (
{
closed = 1;
nodes = (
(248,-283,o),
(253,-264,o),
(241,-235,c),
(160,-66,o),
(148,80,o),
(172,213,cs),
(193,333,o),
(263,456,o),
(381,574,cs),
(412,605,o),
(407,628,o),
(393,643,cs),
(378,658,o),
(345,659,o),
(314,631,cs),
(182,505,o),
(87,330,o),
(68,221,cs),
(47,96,o),
(72,-95,o),
(161,-275,cs),
(176,-303,o),
(212,-310,o),
(233,-295,cs)
);
}
);
width = 386;
}
);
metricLeft = O;
metricRight = N;
unicode = 40;
},
{
glyphname = parenright;
lastChange = "2022-02-27 19:26:55 +0000";
layers = (
{
layerId = m01;
shapes = (
{
closed = 1;
nodes = (
(-21,-284,o),
(-4,-285,o),
(9,-273,cs),
(155,-133,o),
(246,42,o),
(269,167,cs),
(288,276,o),
(258,476,o),
(177,640,cs),
(164,664,o),
(149,673,o),
(138,668,cs),
(129,664,o),
(126,650,o),
(137,627,cs),
(212,465,o),
(238,314,o),
(216,186,cs),
(191,44,o),
(125,-100,o),
(-18,-240,cs),
(-31,-253,o),
(-35,-267,o),
(-29,-274,cs)
);
}
);
width = 301;
},
{
layerId = m002;
shapes = (
{
closed = 1;
nodes = (
(213,-132,o),
(302,41,o),
(325,164,cs),
(343,274,o),
(315,469,o),
(235,631,cs),
(214,669,o),
(185,679,o),
(163,669,cs),
(145,660,o),
(133,640,o),
(150,601,cs),
(221,448,o),
(245,309,o),
(224,190,cs),
(201,56,o),
(140,-76,o),
(8,-207,cs),
(-12,-225,o),
(-22,-249,o),
(-7,-267,cs),
(9,-289,o),
(46,-291,o),
(67,-270,cs)
);
}
);
width = 377;
}
);
metricLeft = N;
metricRight = O;
unicode = 41;
},
{
glyphname = braceleft;
lastChange = "2022-02-27 19:26:55 +0000";
layers = (
{
layerId = m01;
shapes = (
{
closed = 1;
nodes = (
(136,237,o),
(149,268,o),
(157,312,cs),
(166,365,o),
(151,476,o),
(171,535,cs),
(190,585,o),
(235,606,o),
(267,617,cs),
(280,622,o),
(284,631,o),
(280,642,cs),
(275,655,o),
(258,649,o),
(245,644,cs),
(216,630,o),
(158,603,o),
(139,551,cs),
(117,489,o),
(130,376,o),
(120,318,cs),
(113,290,o),
(101,265,o),
(76,241,cs),
(63,229,o),
(53,222,o),
(51,206,c),
(95,198,l)
);
},
{
closed = 1;
nodes = (
(51,188,o),
(58,179,o),
(66,163,cs),
(82,130,o),
(87,101,o),
(84,72,cs),
(77,15,o),
(32,-93,o),
(35,-159,cs),
(38,-216,o),
(73,-266,o),
(98,-293,cs),
(109,-305,o),
(121,-309,o),
(129,-299,cs),
(137,-290,o),
(129,-281,o),
(119,-271,cs),
(92,-244,o),
(73,-211,o),
(71,-157,cs),
(69,-94,o),
(115,10,o),
(121,64,cs),
(126,108,o),
(122,145,o),
(95,198,c),
(51,206,l)
);
}
);
width = 260;
},
{
layerId = m002;
shapes = (
{
closed = 1;
nodes = (
(190,219,o),
(205,255,o),
(214,302,cs),
(223,357,o),
(209,459,o),
(227,511,cs),
(243,552,o),
(277,567,o),
(306,576,cs),
(329,585,o),
(341,605,o),
(331,628,cs),
(321,656,o),
(288,652,o),
(265,642,cs),
(236,629,o),
(170,599,o),
(149,540,cs),
(127,475,o),
(138,369,o),
(129,316,cs),
(123,291,o),
(113,273,o),
(94,254,cs),
(73,235,o),
(62,225,o),
(68,187,c),
(138,173,l)
);
},
{
closed = 1;
nodes = (
(58,182,o),
(70,172,o),
(80,153,cs),
(93,126,o),
(97,103,o),
(94,79,cs),
(87,26,o),
(42,-75,o),
(45,-143,cs),
(48,-203,o),
(85,-256,o),
(112,-285,cs),
(135,-311,o),
(166,-308,o),
(180,-289,cs),
(197,-268,o),
(185,-252,o),
(170,-235,cs),
(146,-211,o),
(131,-187,o),
(129,-139,cs),
(128,-83,o),
(174,12,o),
(179,66,cs),
(185,114,o),
(179,155,o),
(148,216,c),
(70,224,l)
);
}
);
width = 326;
}
);
metricLeft = N;
metricRight = N;
unicode = 123;
},
{
glyphname = braceright;
lastChange = "2022-02-27 19:26:55 +0000";
layers = (
{
layerId = m01;
shapes = (
{
closed = 1;
nodes = (
(119,125,o),
(103,91,o),
(94,48,cs),
(82,-5,o),
(91,-119,o),
(69,-178,cs),
(49,-228,o),
(21,-253,o),
(-14,-270,cs),
(-26,-276,o),
(-37,-282,o),
(-32,-293,cs),
(-28,-305,o),
(-15,-305,o),
(-1,-297,cs),
(31,-280,o),
(81,-244,o),
(102,-191,cs),
(127,-130,o),
(119,-13,o),
(131,43,cs),
(138,72,o),
(152,97,o),
(178,123,cs),
(191,136,o),
(200,142,o),
(206,159,c),
(162,166,l)
);
},
{
closed = 1;
nodes = (
(209,175,o),
(202,185,o),
(194,200,cs),
(178,231,o),
(175,259,o),
(177,288,cs),
(187,346,o),
(236,448,o),
(235,514,cs),
(234,569,o),
(188,614,o),
(165,636,cs),
(154,645,o),
(140,657,o),
(131,646,cs),
(124,637,o),
(125,627,o),
(136,618,cs),
(162,597,o),
(198,563,o),
(200,509,cs),
(199,447,o),
(149,347,o),
(140,294,cs),
(133,250,o),
(136,216,o),
(162,166,c),
(206,159,l)
);
}
);
width = 254;
},
{
layerId = m002;
shapes = (
{
closed = 1;
nodes = (
(137,139,o),
(119,101,o),
(109,55,cs),
(97,0,o),
(102,-99,o),
(83,-151,cs),
(65,-195,o),
(45,-213,o),
(16,-227,cs),
(-9,-240,o),
(-22,-254,o),
(-15,-275,cs),
(-8,-300,o),
(25,-309,o),
(53,-291,c),
(87,-273,o),
(139,-235,o),
(161,-179,cs),
(187,-116,o),
(182,-10,o),
(193,40,cs),
(200,66,o),
(210,85,o),
(232,107,cs),
(246,122,o),
(262,130,o),
(265,175,c),
(190,187,l)
);
},
{
closed = 1;
nodes = (
(273,171,o),
(265,182,o),
(252,205,cs),
(239,231,o),
(236,253,o),
(238,278,c),
(248,332,o),
(295,430,o),
(294,497,cs),
(293,558,o),
(244,607,o),
(219,630,cs),
(198,648,o),
(167,662,o),
(149,637,cs),
(134,618,o),
(136,598,o),
(158,580,cs),
(181,562,o),
(208,536,o),
(210,493,cs),
(209,437,o),
(162,343,o),
(152,289,cs),
(145,241,o),
(149,202,o),
(182,143,c),
(254,132,l)
);
}
);
width = 326;
}
);
metricLeft = N;
metricRight = N;
unicode = 125;
},
{
glyphname = bracketleft;
lastChange = "2022-02-27 19:26:55 +0000";
layers = (
{
layerId = m01;
shapes = (
{
closed = 1;
nodes = (
(177,636,o),
(177,650,o),
(156,650,cs),
(135,650,o),
(127,639,o),
(124,623,cs),
(-34,-273,ls),
(-37,-288,o),
(-29,-300,o),
(-9,-300,cs),
(13,-300,o),
(15,-283,o),
(17,-273,cs),
(174,618,ls)
);
},
{
closed = 1;
nodes = (
(133,-300,ls),
(150,-300,o),
(159,-288,o),
(159,-277,cs),
(159,-266,o),
(151,-255,o),
(133,-255,cs),
(-6,-255,l),
(-12,-300,l)
);
},
{
closed = 1;
nodes = (
(292,605,ls),
(309,605,o),
(318,616,o),
(319,627,cs),
(320,638,o),
(311,650,o),
(292,650,cs),
(154,650,l),
(149,605,l)
);
}
);
width = 284;
},
{
layerId = m002;
shapes = (
{
closed = 1;
nodes = (
(244,640,o),
(219,650,o),
(192,650,cs),
(162,650,o),
(142,637,o),
(137,609,cs),
(-15,-251,ls),
(-20,-279,o),
(0,-300,o),
(34,-300,cs),
(67,-300,o),
(82,-278,o),
(86,-255,cs),
(237,600,ls)
);
},
{
closed = 1;
nodes = (
(170,-300,ls),
(200,-300,o),
(217,-284,o),
(222,-258,cs),
(227,-230,o),
(201,-215,o),
(170,-215,cs),
(44,-215,l),
(32,-300,l)
);
},
{
closed = 1;
nodes = (
(323,565,ls),
(351,565,o),
(370,582,o),
(374,605,cs),
(379,633,o),
(352,650,o),
(323,650,cs),
(190,650,l),
(180,565,l)
);
}
);
width = 357;
}
);
metricLeft = N;
metricRight = N;
unicode = 91;
},
{
glyphname = bracketright;
lastChange = "2022-02-27 19:26:55 +0000";
layers = (
{
layerId = m01;
shapes = (
{
closed = 1;
nodes = (
(321,638,o),
(313,650,o),
(293,650,cs),
(271,650,o),
(269,634,o),
(267,624,cs),
(110,-268,ls),
(107,-286,o),
(107,-300,o),
(128,-300,c),
(150,-300,o),
(157,-289,o),
(160,-273,cs),
(318,623,ls)
);
},
{
closed = 1;
nodes = (
(138,-255,l),
(-7,-255,ls),
(-24,-255,o),
(-34,-266,o),
(-34,-277,cs),
(-34,-289,o),
(-26,-300,o),
(-7,-300,cs),
(131,-300,l)
);
},
{
closed = 1;
nodes = (
(297,650,l),
(152,650,ls),
(134,650,o),
(125,638,o),
(125,627,cs),
(125,616,o),
(134,605,o),
(152,605,cs),
(289,605,l)
);
}
);
width = 284;
},
{
layerId = m002;
shapes = (
{
closed = 1;
nodes = (
(377,629,o),
(357,650,o),
(323,650,cs),
(289,650,o),
(276,632,o),
(272,610,cs),
(121,-246,ls),
(113,-291,o),
(138,-300,o),
(165,-300,cs),
(196,-300,o),
(215,-287,o),
(220,-259,cs),
(372,601,ls)
);
},
{
closed = 1;
nodes = (
(180,-215,l),
(35,-215,ls),
(9,-215,o),
(-12,-233,o),
(-16,-257,cs),
(-20,-281,o),
(1,-300,o),
(35,-300,cs),
(166,-300,l)
);
},
{
closed = 1;
nodes = (
(324,650,l),
(188,650,ls),
(157,650,o),
(141,634,o),
(136,607,cs),
(132,583,o),
(157,565,o),
(188,565,cs),
(308,565,l)
);
}
);
width = 356;
}
);
metricLeft = N;
metricRight = N;
unicode = 93;
},
{
glyphname = quotedbl;
lastChange = "2022-02-27 19:26:55 +0000";
layers = (
{
layerId = m01;
shapes = (
{
closed = 1;
nodes = (
(179,640,o),
(166,650,o),
(153,650,cs),
(141,650,o),
(127,641,o),
(124,624,cs),
(107,528,ls),
(104,510,o),
(116,500,o),
(129,500,cs),
(141,500,o),
(155,508,o),
(158,524,cs),
(175,620,ls)
);
},
{
closed = 1;
nodes = (
(286,640,o),
(274,650,o),
(260,650,cs),
(248,650,o),
(236,642,o),
(233,628,cs),
(215,528,ls),
(212,509,o),
(224,500,o),
(238,500,cs),
(250,500,o),
(264,507,o),
(266,521,cs),
(283,620,ls)
);
}
);
width = 250;
},
{
layerId = m002;
shapes = (
{
closed = 1;
nodes = (
(401,629,o),
(375,650,o),
(347,650,cs),
(324,650,o),
(300,635,o),
(295,610,cs),
(277,510,ls),
(270,472,o),
(301,456,o),
(325,456,cs),
(347,456,o),
(374,470,o),
(378,496,cs),
(395,595,ls)
);
},
{
closed = 1;
nodes = (
(242,628,o),
(218,650,o),
(190,650,cs),
(167,650,o),
(141,634,o),
(136,606,cs),
(119,510,ls),
(113,477,o),
(138,456,o),
(166,456,cs),
(189,456,o),
(214,471,o),
(219,498,cs),
(236,594,ls)
);
}
);
width = 380;
}
);
metricLeft = N;
metricRight = N;
unicode = 34;
},
{
glyphname = quotesingle;
lastChange = "2022-02-27 19:26:55 +0000";
layers = (
{
layerId = m01;
shapes = (
{
closed = 1;
nodes = (
(178,640,o),
(166,650,o),
(152,650,cs),
(140,650,o),
(128,642,o),
(125,628,cs),
(107,528,ls),
(104,509,o),
(116,500,o),
(130,500,cs),
(142,500,o),
(156,507,o),
(158,521,cs),
(175,620,ls)
);
}
);
width = 142;
},
{
layerId = m002;
shapes = (
{
closed = 1;
nodes = (
(242,629,o),
(217,650,o),
(189,650,cs),
(166,650,o),
(143,635,o),
(137,610,cs),
(119,510,ls),
(113,472,o),
(143,456,o),
(167,456,cs),
(189,456,o),
(216,470,o),
(220,496,cs),
(237,595,ls)
);
}
);
width = 222;
}
);
metricLeft = N;
metricRight = N;
unicode = 39;
},
{
glyphname = at;
lastChange = "2022-02-27 19:30:21 +0000";
layers = (
{
layerId = m01;
shapes = (
{
closed = 1;
nodes = (
(622,153,o),
(637,204,o),
(641,238,cs),
(663,403,o),
(580,476,o),
(423,476,cs),
(333,476,o),
(233,458,o),
(176,418,cs),
(88,356,o),
(45,228,o),
(32,124,cs),
(13,-20,o),
(66,-118,o),
(213,-118,cs),
(267,-118,o),
(309,-105,o),
(342,-84,cs),
(380,-60,o),
(388,-36,o),
(377,-22,cs),
(369,-11,o),
(356,-15,o),
(335,-29,cs),
(291,-60,o),
(246,-68,o),
(209,-68,cs),
(98,-68,o),
(64,4,o),
(83,123,cs),
(94,192,o),
(123,317,o),
(202,375,cs),
(248,409,o),
(337,426,o),
(421,426,cs),
(543,426,o),
(608,379,o),
(594,256,cs),
(589,214,o),
(572,166,o),
(543,125,c),
(584,98,l)
);
},
{
closed = 1;
nodes = (
(438,300,l),
(410,253,o),
(377,204,o),
(336,152,cs),
(275,76,o),
(238,46,o),
(219,46,cs),
(205,46,o),
(205,61,o),
(205,77,cs),
(205,115,o),
(223,205,o),
(249,244,cs),
(279,289,o),
(330,299,o),
(364,299,cs),
(371,299,o),
(439,299,o),
(447,299,c),
(458,299,l),
(458,301,o),
(458,346,o),
(458,349,c),
(446,349,o),
(384,349,o),
(364,349,cs),
(307,349,o),
(248,332,o),
(210,275,cs),
(178,227,o),
(155,130,o),
(155,72,cs),
(155,21,o),
(178,0,o),
(211,0,cs),
(269,0,o),
(318,49,o),
(360,101,cs),
(408,162,o),
(456,239,o),
(479,291,cs),
(483,300,l)
);
},
{
closed = 1;
nodes = (
(521,92,o),
(477,48,o),
(461,48,cs),
(450,48,o),
(453,66,o),
(453,78,cs),
(453,93,o),
(458,124,o),
(459,132,cs),
(494,327,ls),
(497,343,o),
(491,349,o),
(476,349,cs),
(446,349,l),
(410,146,ls),
(406,122,o),
(403,95,o),
(403,75,cs),
(403,26,o),
(420,0,o),
(456,0,cs),
(509,0,o),
(553,54,o),
(589,105,c),
(550,135,l)
);
}
);
width = 667;
},
{
layerId = m002;
shapes = (
{
closed = 1;
nodes = (
(646,131,o),
(662,193,o),
(668,228,cs),
(697,391,o),
(618,487,o),
(436,487,cs),
(353,487,o),
(249,473,o),
(181,423,cs),
(87,353,o),
(53,227,o),
(37,134,cs),
(13,-4,o),
(54,-128,o),
(233,-128,cs),
(285,-128,o),
(330,-116,o),
(361,-96,cs),
(411,-65,o),
(409,-43,o),
(393,-19,cs),
(383,-4,o),
(359,9,o),
(327,-12,cs),
(292,-36,o),
(259,-40,o),
(229,-40,cs),
(149,-40,o),
(114,28,o),
(131,127,cs),
(141,186,o),
(162,295,o),
(233,349,cs),
(285,389,o),
(363,397,o),
(434,397,cs),
(562,397,o),
(593,348,o),
(576,249,cs),
(569,208,o),
(549,160,o),
(515,118,c),
(592,69,l)
);
},
{
closed = 1;
nodes = (
(445,303,l),
(418,258,o),
(389,211,o),
(351,163,cs),
(298,97,o),
(276,86,o),
(271,86,cs),
(266,86,o),
(266,105,o),
(266,110,cs),
(266,133,o),
(280,195,o),
(299,225,cs),
(321,258,o),
(354,265,o),
(378,265,cs),
(384,265,o),
(444,265,o),
(451,265,cs),
(485,265,l),
(485,289,o),
(485,328,o),
(485,350,c),
(462,350,o),
(397,350,o),
(378,350,cs),
(323,350,o),
(260,335,o),
(222,276,cs),
(192,229,o),
(172,139,o),
(172,85,cs),
(172,25,o),
(189,-2,o),
(230,-2,cs),
(293,-2,o),
(355,52,o),
(393,97,cs),
(436,153,o),
(487,223,o),
(502,269,cs),
(514,307,l)
);
},
{
closed = 1;
nodes = (
(520,116,o),
(494,111,o),
(490,111,cs),
(483,111,o),
(483,121,o),
(485,131,cs),
(487,143,o),
(492,169,o),
(493,175,cs),
(517,305,ls),
(522,333,o),
(504,350,o),
(476,350,cs),
(429,350,l),
(393,153,ls),
(389,132,o),
(387,106,o),
(387,87,cs),
(387,27,o),
(423,-1,o),
(466,-1,cs),
(534,-1,o),
(594,60,o),
(622,113,c),
(547,166,l)
);
}
);
width = 695;
}
);
metricLeft = o;
metricRight = "=o-5";
unicode = 64;
},
{
glyphname = ampersand;
lastChange = "2022-02-27 19:30:21 +0000";
layers = (
{
layerId = m01;
shapes = (
{
closed = 1;
nodes = (
(379,4,o),
(397,-7,o),
(412,4,cs),
(425,14,o),
(422,29,o),
(414,41,cs),
(224,317,l),
(155,324,l),
(94,279,o),
(53,227,o),
(44,178,cs),
(30,103,o),
(84,-4,o),
(204,-4,cs),
(294,-4,o),
(333,56,o),
(401,169,c),
(409,181,o),
(405,195,o),
(393,201,cs),
(381,208,o),
(365,203,o),
(356,190,c),
(295,96,o),
(273,46,o),
(204,46,cs),
(130,46,o),
(81,103,o),
(92,164,cs),
(100,205,o),
(135,249,o),
(186,285,c),
(372,14,ls)
);
},
{
closed = 1;
nodes = (
(189,363,o),
(144,424,o),
(144,455,cs),
(144,487,o),
(190,518,o),
(247,518,cs),
(291,518,o),
(308,500,o),
(312,486,cs),
(321,449,o),
(249,383,o),
(148,319,c),
(224,309,l),
(311,371,o),
(378,432,o),
(358,500,cs),
(345,547,o),
(300,568,o),
(247,568,cs),
(159,568,o),
(94,510,o),
(94,453,cs),
(94,403,o),
(143,342,o),
(165,309,c),
(208,335,l)
);
}
);
width = 479;
},
{
layerId = m002;
shapes = (
{
closed = 1;
nodes = (
(382,3,o),
(418,-9,o),
(442,8,cs),
(467,27,o),
(462,52,o),
(448,73,cs),
(269,335,l),
(182,344,l),
(118,297,o),
(73,243,o),
(63,190,cs),
(48,108,o),
(108,-4,o),
(235,-4,cs),
(334,-4,o),
(376,63,o),
(438,168,cs),
(452,190,o),
(444,213,o),
(423,225,cs),
(401,238,o),
(369,231,o),
(354,209,cs),
(296,120,o),
(282,86,o),
(235,86,cs),
(179,86,o),
(148,123,o),
(157,169,cs),
(162,197,o),
(182,225,o),
(213,251,c),
(369,23,ls)
);
},
{
closed = 1;
nodes = (
(242,369,o),
(205,419,o),
(205,441,cs),
(205,460,o),
(230,478,o),
(275,478,cs),
(302,478,o),
(309,473,o),
(311,465,cs),
(317,438,o),
(252,386,o),
(158,333,c),
(261,284,l),
(347,344,o),
(424,409,o),
(401,489,cs),
(386,543,o),
(332,568,o),
(275,568,cs),
(180,568,o),
(109,504,o),
(109,439,cs),
(109,386,o),
(158,325,o),
(191,276,c),
(273,325,l)
);
}
);
width = 534;
}
);
metricLeft = O;
metricRight = O;
unicode = 38;
},
{
glyphname = degree;
lastChange = "2022-02-27 19:30:21 +0000";
layers = (
{
layerId = m01;
shapes = (
{
closed = 1;
nodes = (
(211,433,o),
(277,532,o),
(277,595,cs),
(277,634,o),
(254,655,o),
(209,655,cs),
(172,655,o),
(146,630,o),
(131,604,cs),
(120,583,o),
(103,543,o),
(103,496,cs),
(103,449,o),
(120,433,o),
(147,433,cs)
);
},
{
closed = 1;
nodes = (
(142,472,o),
(142,486,o),
(142,503,cs),
(142,530,o),
(154,559,o),
(168,588,c),
(180,608,o),
(190,615,o),
(207,615,cs),
(229,615,o),
(237,609,o),
(237,588,cs),
(237,550,o),
(185,472,o),
(154,472,cs)
);
}
);
width = 236;
},
{
layerId = m002;
shapes = (
{
closed = 1;
nodes = (
(260,398,o),
(331,508,o),
(331,577,cs),
(331,625,o),
(299,654,o),
(243,654,cs),
(194,654,o),
(162,621,o),
(146,593,cs),
(134,573,o),
(117,528,o),
(117,478,cs),
(117,410,o),
(153,398,o),
(181,398,cs)
);
},
{
closed = 1;
nodes = (
(194,476,o),
(192,492,o),
(193,504,cs),
(196,524,o),
(202,543,o),
(212,562,cs),
(220,577,o),
(230,580,o),
(240,580,cs),
(251,580,o),
(251,571,o),
(250,555,cs),
(248,523,o),
(216,476,o),
(198,476,cs)
);
}
);
width = 312;
}
);
metricLeft = O;
metricRight = O;
unicode = 176;
},
{
glyphname = bar;
lastChange = "2022-02-27 19:30:21 +0000";
layers = (
{
layerId = m01;
shapes = (
{
closed = 1;
nodes = (
(187,690,o),
(176,700,o),
(163,700,cs),
(151,700,o),
(136,690,o),
(133,672,cs),
(-34,-273,ls),
(-37,-288,o),
(-28,-300,o),
(-10,-300,cs),
(12,-300,o),
(15,-285,o),
(17,-275,cs),
(183,668,ls)
);
}
);
width = 141;
},
{
layerId = m002;
shapes = (
{
closed = 1;
nodes = (
(250,681,o),
(227,702,o),
(199,702,cs),
(177,702,o),
(151,685,o),
(146,657,cs),
(-15,-250,ls),
(-21,-278,o),
(1,-302,o),
(33,-302,cs),
(67,-302,o),
(79,-281,o),
(84,-260,c),
(244,645,ls)
);
}
);
width = 220;
}
);
metricLeft = N;
metricRight = N;
unicode = 124;
},
{
glyphname = brokenbar;
lastChange = "2022-02-27 19:30:21 +0000";
layers = (
{
layerId = m01;
shapes = (
{
closed = 1;
nodes = (
(92,152,o),
(81,162,o),
(69,162,cs),
(56,162,o),
(41,152,o),
(38,135,cs),
(-34,-273,ls),
(-37,-288,o),
(-28,-300,o),
(-10,-300,cs),
(12,-300,o),
(15,-285,o),
(17,-275,cs),
(89,135,ls)
);
},
{
closed = 1;
nodes = (
(187,690,o),
(176,700,o),
(163,700,cs),
(151,700,o),
(136,690,o),
(133,672,cs),
(61,266,ls),
(58,249,o),
(69,238,o),
(82,239,cs),
(95,239,o),
(109,249,o),
(112,266,cs),
(183,668,ls)
);
}
);
width = 141;
},
{
layerId = m002;
shapes = (
{
closed = 1;
nodes = (
(154,141,o),
(132,163,o),
(105,163,cs),
(82,163,o),
(55,146,o),
(50,119,cs),
(-15,-248,ls),
(-20,-276,o),
(1,-300,o),
(33,-300,cs),
(67,-300,o),
(80,-279,o),
(84,-258,cs),
(149,111,ls)
);
},
{
closed = 1;
nodes = (
(249,679,o),
(226,700,o),
(198,700,cs),
(176,700,o),
(150,683,o),
(145,655,cs),
(80,290,ls),
(74,259,o),
(98,236,o),
(126,238,cs),
(149,239,o),
(174,256,o),
(179,282,cs),
(243,643,ls)
);
}
);
width = 219;
}
);
metricLeft = N;
metricRight = N;
unicode = 166;
},
{
glyphname = dollar;
lastChange = "2022-02-27 19:30:21 +0000";
layers = (
{
layerId = m01;
shapes = (
{
closed = 1;
nodes = (
(245,0,o),
(419,17,o),
(419,153,cs),
(419,236,o),
(355,262,o),
(269,312,cs),
(203,350,o),
(138,381,o),
(138,425,cs),
(138,482,o),
(247,519,o),
(324,519,cs),
(467,519,ls),
(482,519,o),
(490,532,o),
(490,545,cs),
(490,557,o),
(482,569,o),
(463,569,cs),
(325,569,ls),
(193,569,o),
(88,503,o),
(88,420,cs),
(88,349,o),
(165,315,o),
(243,269,cs),
(319,225,o),
(369,206,o),
(369,152,cs),
(369,57,o),
(212,50,o),
(147,50,cs),
(44,50,ls),
(28,50,o),
(17,37,o),
(17,24,cs),
(17,12,o),
(25,0,o),
(44,0,cs),
(147,0,ls)
);
},
{
closed = 1;
nodes = (
(346,639,o),
(336,650,o),
(324,650,cs),
(313,650,o),
(300,641,o),
(297,622,cs),
(178,-52,ls),
(175,-71,o),
(185,-80,o),
(196,-80,cs),
(207,-80,o),
(220,-71,o),
(223,-54,cs),
(342,618,ls)
);
}
);
width = 456;
},
{
layerId = m002;
shapes = (
{
closed = 1;
nodes = (
(279,-4,o),
(465,13,o),
(465,161,cs),
(465,253,o),
(392,282,o),
(312,329,cs),
(250,365,o),
(201,388,o),
(201,417,cs),
(201,455,o),
(283,477,o),
(351,477,cs),
(485,477,ls),
(512,477,o),
(532,498,o),
(532,523,cs),
(532,548,o),
(512,568,o),
(481,568,cs),
(352,568,ls),
(217,568,o),
(104,504,o),
(104,412,cs),
(104,331,o),
(189,294,o),
(262,251,cs),
(335,209,o),
(368,197,o),
(368,160,cs),
(368,92,o),
(244,87,o),
(184,87,cs),
(88,87,ls),
(60,87,o),
(37,66,o),
(37,41,cs),
(37,16,o),
(57,-4,o),
(88,-4,cs),
(184,-4,ls)
);
},
{
closed = 1;
nodes = (
(400,629,o),
(377,650,o),
(351,650,cs),
(329,650,o),
(304,635,o),
(299,606,cs),
(188,-28,ls),
(182,-61,o),
(205,-80,o),
(230,-80,cs),
(252,-80,o),
(277,-65,o),
(282,-38,cs),
(394,594,ls)
);
}
);
width = 521;
}
);
metricLeft = O;
metricRight = O;
unicode = 36;
},
{
glyphname = plus;
lastChange = "2022-03-01 20:42:03 +0000";
layers = (
{
layerId = m01;
shapes = (
{
closed = 1;
nodes = (
(234,323,o),
(222,334,o),
(210,334,cs),
(200,334,o),
(190,327,o),
(187,311,cs),
(148,87,ls),
(145,68,o),
(157,57,o),
(169,57,cs),
(179,57,o),
(189,64,o),
(192,80,cs),
(231,304,ls)
);
},
{
closed = 1;
nodes = (
(321,175,o),
(330,187,o),
(330,198,cs),
(330,209,o),
(321,220,o),
(303,220,cs),
(76,220,ls),
(58,220,o),
(49,209,o),
(49,198,cs),
(49,187,o),
(58,175,o),
(76,175,cs),
(303,175,ls)
);
}
);
width = 370;
},
{
layerId = m002;
shapes = (
{
closed = 1;
nodes = (
(288,329,o),
(265,350,o),
(238,350,cs),
(218,350,o),
(196,337,o),
(191,310,cs),
(154,95,ls),
(149,62,o),
(172,41,o),
(199,41,cs),
(219,41,o),
(241,54,o),
(246,81,cs),
(283,296,ls)
);
},
{
closed = 1;
nodes = (
(358,154,o),
(378,174,o),
(378,198,cs),
(378,221,o),
(358,241,o),
(327,241,cs),
(110,241,ls),
(79,241,o),
(59,221,o),
(59,198,cs),
(59,174,o),
(79,154,o),
(110,154,cs),
(327,154,ls)
);
}
);
width = 429;
}
);
metricLeft = n;
metricRight = n;
unicode = 43;
},
{
glyphname = multiply;
lastChange = "2022-03-01 20:42:03 +0000";
layers = (
{
layerId = m01;
shapes = (
{
closed = 1;
nodes = (
(354,302,o),
(352,317,o),
(343,325,cs),
(334,334,o),
(318,337,o),
(304,325,cs),
(38,101,ls),
(26,91,o),
(28,76,o),
(36,67,cs),
(45,58,o),
(60,54,o),
(76,67,cs),
(340,290,ls)
);
},
{
closed = 1;
nodes = (
(103,336,o),
(88,335,o),
(79,327,cs),
(70,318,o),
(66,303,o),
(76,291,cs),
(265,69,ls),
(276,56,o),
(291,58,o),
(300,66,cs),
(310,74,o),
(314,89,o),
(303,102,cs),
(116,321,ls)
);
}
);
width = 371;
},
{
layerId = m002;
shapes = (
{
closed = 1;
nodes = (
(403,292,o),
(402,319,o),
(382,336,cs),
(365,351,o),
(334,355,o),
(311,337,cs),
(56,122,ls),
(34,102,o),
(34,78,o),
(50,59,cs),
(68,40,o),
(100,36,o),
(126,56,cs),
(380,270,l)
);
},
{
closed = 1;
nodes = (
(143,355,o),
(108,353,o),
(91,335,cs),
(76,317,o),
(72,294,o),
(90,273,cs),
(271,59,l),
(291,38,o),
(324,40,o),
(341,55,cs),
(360,72,o),
(365,97,o),
(345,120,cs),
(166,331,l)
);
}
);
width = 429;
}
);
metricLeft = n;
metricRight = n;
unicode = 215;
},
{
glyphname = divide;
lastChange = "2022-03-01 20:42:03 +0000";
layers = (
{
layerId = m01;
shapes = (
{
closed = 1;
nodes = (
(338,175,o),
(340,220,o),
(303,220,cs),
(76,220,ls),
(39,220,o),
(41,175,o),
(76,175,cs),
(303,175,ls)
);
},
{
closed = 1;
nodes = (
(187,57,o),
(203,73,o),
(203,90,cs),
(203,108,o),
(186,122,o),
(169,122,cs),
(150,122,o),
(138,106,o),
(138,90,cs),
(138,73,o),
(151,57,o),
(169,57,cs)
);
},
{
closed = 1;
nodes = (
(225,273,o),
(241,289,o),
(241,306,cs),
(241,323,o),
(225,338,o),
(208,338,cs),
(190,338,o),
(176,322,o),
(176,306,cs),
(176,290,o),
(190,273,o),
(208,273,cs)
);
}
);
width = 370;
},
{
layerId = m002;
shapes = (
{
closed = 1;
nodes = (
(392,154,o),
(395,241,o),
(326,241,cs),
(109,241,ls),
(40,241,o),
(43,154,o),
(109,154,cs),
(326,154,ls)
);
},
{
closed = 1;
nodes = (
(225,16,o),
(252,40,o),
(252,69,cs),
(252,100,o),
(224,122,o),
(195,122,cs),
(164,122,o),
(140,98,o),
(140,69,cs),
(140,40,o),
(165,16,o),
(195,16,cs)
);
},
{
closed = 1;
nodes = (
(271,273,o),
(298,297,o),
(298,327,cs),
(298,356,o),
(271,379,o),
(241,379,cs),
(211,379,o),
(186,355,o),
(186,327,cs),
(186,298,o),
(211,273,o),
(241,273,cs)
);
}
);
width = 427;
}
);
metricLeft = n;
metricRight = n;
unicode = 247;
},
{
glyphname = equal;
lastChange = "2022-03-01 20:42:03 +0000";
layers = (
{
layerId = m01;
shapes = (
{
closed = 1;
nodes = (
(334,248,o),
(343,260,o),
(343,271,cs),
(343,282,o),
(334,293,o),
(316,293,cs),
(89,293,ls),
(71,293,o),
(62,282,o),
(62,271,cs),
(62,260,o),
(71,248,o),
(89,248,cs),
(316,248,ls)
);
},
{
closed = 1;
nodes = (
(308,97,o),
(317,108,o),
(317,120,cs),
(317,131,o),
(308,142,o),
(290,142,cs),
(63,142,ls),
(45,142,o),
(36,131,o),
(36,120,cs),
(36,109,o),
(45,97,o),
(63,97,cs),
(290,97,ls)
);
}
);
width = 371;
},
{
layerId = m002;
shapes = (
{
closed = 1;
nodes = (
(374,248,o),
(395,266,o),
(395,290,cs),
(395,314,o),
(374,333,o),
(344,333,cs),
(126,333,ls),
(96,333,o),
(75,314,o),
(75,290,cs),
(75,266,o),
(96,248,o),
(126,248,cs),
(344,248,ls)
);
},
{
closed = 1;
nodes = (
(348,97,o),
(369,116,o),
(369,141,cs),
(369,165,o),
(348,182,o),
(318,182,cs),
(100,182,ls),
(70,182,o),
(49,165,o),
(49,141,cs),
(49,117,o),
(70,97,o),
(100,97,cs),
(318,97,ls)
);
}
);
width = 430;
}
);
metricLeft = n;
metricRight = n;
unicode = 61;
},
{
glyphname = notequal;
lastChange = "2022-03-01 20:42:03 +0000";
layers = (
{
layerId = m01;
shapes = (
{
closed = 1;
nodes = (
(281,337,o),
(269,350,o),
(255,350,cs),
(245,350,o),
(235,345,o),
(229,333,cs),
(108,72,ls),
(100,54,o),
(108,42,o),
(119,38,cs),
(129,35,o),
(142,38,o),
(148,51,cs),
(269,312,ls)
);
},
{
closed = 1;
nodes = (
(308,97,o),
(317,108,o),
(317,120,cs),
(317,131,o),
(308,142,o),
(290,142,cs),
(63,142,ls),
(45,142,o),
(36,131,o),
(36,120,cs),
(36,109,o),
(45,97,o),
(63,97,cs),
(290,97,ls)
);
},
{
closed = 1;
nodes = (
(334,248,o),
(343,260,o),
(343,271,cs),
(343,282,o),
(334,293,o),
(316,293,cs),
(89,293,ls),
(71,293,o),
(62,282,o),
(62,271,cs),
(62,260,o),
(71,248,o),
(89,248,cs),
(316,248,ls)
);
}
);
width = 371;
},
{
layerId = m002;
shapes = (
{
closed = 1;
nodes = (
(356,376,o),
(328,401,o),
(299,401,cs),
(282,401,o),
(260,391,o),
(251,372,cs),
(106,60,ls),
(92,30,o),
(107,8,o),
(132,-1,cs),
(152,-7,o),
(180,-1,o),
(191,22,cs),
(336,333,ls)
);
},
{
closed = 1;
nodes = (
(348,97,o),
(369,116,o),
(369,141,cs),
(369,165,o),
(348,182,o),
(318,182,cs),
(100,182,ls),
(70,182,o),
(49,165,o),
(49,141,cs),
(49,117,o),
(70,97,o),
(100,97,cs),
(318,97,ls)
);
},
{
closed = 1;
nodes = (
(374,248,o),
(395,266,o),
(395,290,cs),
(395,314,o),
(374,333,o),
(344,333,cs),
(126,333,ls),
(96,333,o),
(75,314,o),
(75,290,cs),
(75,266,o),
(96,248,o),
(126,248,cs),
(344,248,ls)
);
}
);
width = 430;
}
);
metricLeft = n;
metricRight = n;
unicode = 8800;
},
{
glyphname = greater;
lastChange = "2022-03-01 20:42:03 +0000";
layers = (
{
layerId = m01;
shapes = (
{
closed = 1;
nodes = (
(264,216,l),
(49,103,ls),
(29,93,o),
(26,81,o),
(30,70,cs),
(34,60,o),
(45,50,o),
(64,60,cs),
(290,179,l)
);
},
{
closed = 1;
nodes = (
(278,171,o),
(289,176,o),
(296,186,cs),
(304,197,o),
(304,207,o),
(289,217,cs),
(112,330,ls),
(96,340,o),
(83,339,o),
(75,329,cs),
(67,318,o),
(70,304,o),
(85,294,cs),
(263,181,ls)
);
}
);
width = 341;
},
{
layerId = m002;
shapes = (
{
closed = 1;
nodes = (
(297,245,l),
(72,127,ls),
(42,112,o),
(34,92,o),
(40,70,cs),
(47,46,o),
(77,30,o),
(108,45,cs),
(349,173,l)
);
},
{
closed = 1;
nodes = (
(297,147,o),
(328,154,o),
(342,176,cs),
(355,198,o),
(352,218,o),
(327,235,cs),
(156,344,ls),
(131,359,o),
(102,355,o),
(88,337,cs),
(72,315,o),
(77,291,o),
(102,272,c),
(273,164,l)
);
}
);
width = 403;
}
);
metricLeft = n;
metricRight = n;
unicode = 62;
},
{
glyphname = less;
lastChange = "2022-03-01 20:42:03 +0000";
layers = (
{
layerId = m01;
shapes = (
{
closed = 1;
nodes = (
(301,290,ls),
(321,300,o),
(324,312,o),
(320,323,cs),
(316,333,o),
(305,343,o),
(286,333,cs),
(60,214,l),
(86,177,l)
);
},
{
closed = 1;
nodes = (
(254,53,o),
(267,54,o),
(275,64,cs),
(283,75,o),
(280,89,o),
(265,99,cs),
(87,212,ls),
(72,222,o),
(61,217,o),
(54,207,cs),
(46,196,o),
(46,186,o),
(61,176,cs),
(238,63,ls)
);
}
);
width = 341;
},
{
layerId = m002;
shapes = (
{
closed = 1;
nodes = (
(339,266,ls),
(369,281,o),
(377,301,o),
(371,323,cs),
(364,347,o),
(334,363,o),
(303,348,cs),
(62,220,l),
(114,148,l)
);
},
{
closed = 1;
nodes = (
(280,34,o),
(309,38,o),
(323,56,cs),
(339,78,o),
(334,102,o),
(309,121,c),
(138,229,l),
(114,246,o),
(83,239,o),
(69,217,cs),
(56,195,o),
(59,175,o),
(84,158,cs),
(255,49,ls)
);
}
);
width = 404;
}
);
metricLeft = n;
metricRight = n;
unicode = 60;
},
{
glyphname = greaterequal;
lastChange = "2022-03-01 20:42:03 +0000";
layers = (
{
layerId = m01;
shapes = (
{
closed = 1;
nodes = (
(289,198,o),
(300,202,o),
(307,212,cs),
(315,223,o),
(315,233,o),
(300,243,cs),
(117,360,ls),
(101,370,o),
(88,369,o),
(80,359,cs),
(72,348,o),
(75,334,o),
(90,324,cs),
(274,207,ls)
);
},
{
closed = 1;
nodes = (
(287,97,o),
(296,108,o),
(296,120,cs),
(296,131,o),
(287,142,o),
(269,142,cs),
(65,142,ls),
(47,142,o),
(38,131,o),
(38,120,cs),
(38,109,o),
(47,97,o),
(65,97,cs),
(269,97,ls)
);
},
{
closed = 1;
nodes = (
(292,248,l),
(86,248,ls),
(64,248,o),
(56,239,o),
(54,227,cs),
(53,216,o),
(58,202,o),
(80,202,cs),
(293,202,l)
);
}
);
width = 350;
},
{
layerId = m002;
shapes = (
{
closed = 1;
nodes = (
(316,197,o),
(343,200,o),
(356,219,cs),
(371,241,o),
(369,261,o),
(344,279,c),
(166,393,ls),
(138,411,o),
(110,403,o),
(98,386,cs),
(82,364,o),
(89,344,o),
(114,325,c),
(293,212,ls)
);
},
{
closed = 1;
nodes = (
(319,57,o),
(339,75,o),
(339,99,cs),
(339,123,o),
(319,142,o),
(288,142,cs),
(92,142,ls),
(62,142,o),
(41,122,o),
(41,98,cs),
(41,75,o),
(62,57,o),
(92,57,cs),
(288,57,ls)
);
},
{
closed = 1;
nodes = (
(322,287,l),
(123,287,ls),
(89,287,o),
(70,271,o),
(67,247,cs),
(65,223,o),
(82,202,o),
(117,202,cs),
(324,202,l)
);
}
);
width = 408;
}
);
metricLeft = n;
metricRight = n;
unicode = 8805;
},
{
glyphname = lessequal;
lastChange = "2022-03-01 20:42:03 +0000";
layers = (
{
layerId = m01;
shapes = (
{
closed = 1;
nodes = (
(336,332,o),
(338,348,o),
(330,359,cs),
(322,369,o),
(310,369,o),
(293,360,cs),
(67,243,ls),
(52,235,o),
(52,223,o),
(60,212,cs),
(67,202,o),
(78,199,o),
(93,207,cs),
(320,324,ls)
);
},
{
closed = 1;
nodes = (
(286,97,o),
(295,109,o),
(295,120,cs),
(295,131,o),
(286,142,o),
(268,142,cs),
(64,142,ls),
(46,142,o),
(37,131,o),
(37,120,cs),
(37,108,o),
(46,97,o),
(64,97,cs),
(268,97,ls)
);
},
{
closed = 1;
nodes = (
(287,202,ls),
(303,202,o),
(313,213,o),
(313,225,cs),
(314,236,o),
(304,248,o),
(281,248,cs),
(75,248,l),
(74,202,l)
);
}
);
width = 349;
},
{
layerId = m002;
shapes = (
{
closed = 1;
nodes = (
(387,337,o),
(395,362,o),
(378,386,cs),
(366,403,o),
(340,408,o),
(311,393,cs),
(94,281,ls),
(66,266,o),
(62,242,o),
(78,221,cs),
(91,201,o),
(116,197,o),
(141,210,cs),
(359,322,ls)
);
},
{
closed = 1;
nodes = (
(318,57,o),
(339,75,o),
(339,98,cs),
(339,122,o),
(318,142,o),
(288,142,cs),
(92,142,ls),
(62,142,o),
(41,122,o),
(41,98,cs),
(41,74,o),
(62,57,o),
(92,57,cs),
(288,57,ls)
);
},
{
closed = 1;
nodes = (
(316,202,ls),
(344,202,o),
(366,222,o),
(366,245,cs),
(368,272,o),
(342,287,o),
(310,287,cs),
(117,287,l),
(115,202,l)
);
}
);
width = 409;
}
);
metricLeft = n;
metricRight = n;
unicode = 8804;
},
{
glyphname = plusminus;
lastChange = "2022-03-01 20:42:03 +0000";
layers = (
{
layerId = m01;
shapes = (
{
closed = 1;
nodes = (
(228,364,o),
(216,375,o),
(204,375,cs),
(194,375,o),
(184,368,o),
(181,352,cs),
(153,196,ls),
(150,177,o),
(162,166,o),
(174,166,cs),
(184,166,o),
(194,173,o),
(197,189,cs),
(225,345,ls)
);
},
{
closed = 1;
nodes = (
(278,97,o),
(287,108,o),
(287,120,cs),
(287,131,o),
(278,142,o),
(260,142,cs),
(63,142,ls),
(45,142,o),
(36,131,o),
(36,120,cs),
(36,109,o),
(45,97,o),
(63,97,cs),
(260,97,ls)
);
},
{
closed = 1;
nodes = (
(304,248,o),
(313,260,o),
(313,271,cs),
(313,282,o),
(304,293,o),
(286,293,cs),
(89,293,ls),
(71,293,o),
(62,282,o),
(62,271,cs),
(62,260,o),
(71,248,o),
(89,248,cs),
(286,248,ls)
);
}
);
width = 341;
},
{
layerId = m002;
shapes = (
{
closed = 1;
nodes = (
(287,390,o),
(262,411,o),
(236,411,cs),
(215,411,o),
(194,398,o),
(189,371,cs),
(162,222,ls),
(156,188,o),
(181,167,o),
(207,167,cs),
(228,167,o),
(249,181,o),
(254,207,cs),
(281,357,ls)
);
},
{
closed = 1;
nodes = (
(314,57,o),
(335,74,o),
(335,99,cs),
(335,122,o),
(314,142,o),
(284,142,cs),
(94,142,ls),
(64,142,o),
(44,122,o),
(44,99,cs),
(44,75,o),
(64,57,o),
(94,57,cs),
(284,57,ls)
);
},
{
closed = 1;
nodes = (
(345,248,o),
(365,266,o),
(365,290,cs),
(365,313,o),
(345,333,o),
(315,333,cs),
(125,333,ls),
(95,333,o),
(75,313,o),
(75,290,cs),
(75,266,o),
(95,248,o),
(125,248,cs),
(315,248,ls)
);
}
);
width = 403;
}
);
metricLeft = n;
metricRight = n;
unicode = 177;
},
{
glyphname = approxequal;
lastChange = "2022-03-01 20:42:03 +0000";
layers = (
{
layerId = m01;
shapes = (
{
closed = 1;
nodes = (
(276,227,o),
(296,237,o),
(317,246,cs),
(335,254,o),
(343,260,o),
(343,271,cs),
(343,282,o),
(331,302,o),
(314,294,cs),
(295,285,o),
(282,272,o),
(252,272,cs),
(224,272,o),
(181,310,o),
(150,310,cs),
(124,310,o),
(107,301,o),
(89,294,cs),
(71,287,o),
(62,282,o),
(62,271,cs),
(62,259,o),
(72,238,o),
(90,246,cs),
(105,253,o),
(119,265,o),
(142,265,cs),
(173,265,o),
(216,227,o),
(244,227,cs)
);
},
{
closed = 1;
nodes = (
(250,76,o),
(270,86,o),
(291,95,cs),
(309,103,o),
(317,109,o),
(317,120,cs),
(317,131,o),
(305,151,o),
(288,143,cs),
(269,134,o),
(256,121,o),
(226,121,cs),
(198,121,o),
(155,159,o),
(124,159,cs),
(98,159,o),
(81,150,o),
(63,143,cs),
(45,136,o),
(36,131,o),
(36,120,cs),
(36,108,o),
(46,87,o),
(64,95,cs),
(79,102,o),
(93,114,o),
(116,114,cs),
(147,114,o),
(190,76,o),
(218,76,cs)
);
}
);
width = 371;
},
{
layerId = m002;
shapes = (
{
closed = 1;
nodes = (
(312,229,o),
(337,241,o),
(355,249,cs),
(383,262,o),
(395,273,o),
(395,293,cs),
(395,321,o),
(363,351,o),
(331,335,cs),
(307,323,o),
(302,316,o),
(283,316,cs),
(266,316,o),
(224,352,o),
(185,352,cs),
(154,352,o),
(132,342,o),
(116,335,cs),
(89,324,o),
(75,313,o),
(75,293,cs),
(75,261,o),
(107,234,o),
(138,249,cs),
(156,258,o),
(164,265,o),
(177,265,cs),
(197,265,o),
(238,229,o),
(275,229,cs)
);
},
{
closed = 1;
nodes = (
(278,35,o),
(303,47,o),
(321,55,cs),
(349,68,o),
(361,79,o),
(361,99,cs),
(361,127,o),
(329,157,o),
(297,141,cs),
(273,129,o),
(268,122,o),
(249,122,cs),
(232,122,o),
(190,158,o),
(151,158,cs),
(120,158,o),
(98,148,o),
(82,141,cs),
(55,130,o),
(41,119,o),
(41,99,cs),
(41,67,o),
(73,40,o),
(104,55,cs),
(122,64,o),
(130,71,o),
(143,71,cs),
(163,71,o),
(204,35,o),
(241,35,cs)
);
}
);
width = 429;
}
);
metricLeft = n;
metricRight = n;
unicode = 8776;
},
{
glyphname = asciicircum;
lastChange = "2022-02-27 19:32:48 +0000";
layers = (
{
layerId = m01;
shapes = (
{
closed = 1;
nodes = (
(297,619,o),
(295,634,o),
(286,642,cs),
(277,651,o),
(261,654,o),
(247,642,cs),
(114,531,ls),
(102,521,o),
(104,506,o),
(112,497,cs),
(121,488,o),
(136,484,o),
(152,497,cs),
(283,607,ls)
);
},
{
closed = 1;
nodes = (
(248,609,l),
(341,499,ls),
(352,486,o),
(367,488,o),
(376,496,cs),
(386,504,o),
(389,520,o),
(379,532,cs),
(287,641,l)
);
}
);
width = 371;
},
{
layerId = m002;
shapes = (
{
closed = 1;
nodes = (
(361,590,o),
(359,617,o),
(341,635,cs),
(324,653,o),
(290,657,o),
(267,638,cs),
(134,527,ls),
(110,507,o),
(114,481,o),
(127,464,cs),
(145,442,o),
(180,439,o),
(204,459,cs),
(335,569,ls)
);
},
{
closed = 1;
nodes = (
(266,573,l),
(358,464,ls),
(377,441,o),
(412,443,o),
(430,460,cs),
(449,477,o),
(453,502,o),
(434,525,cs),
(341,635,l)
);
}
);
width = 450;
}
);
metricLeft = N;
metricRight = N;
unicode = 94;
},
{
glyphname = infinity;
lastChange = "2022-02-27 19:32:48 +0000";
layers = (
{
layerId = m01;
shapes = (
{
closed = 1;
nodes = (
(309,196,ls),
(342,146,o),
(391,90,o),
(449,80,cs),
(513,69,o),
(609,109,o),
(627,211,cs),
(644,307,o),
(572,349,o),
(515,359,cs),
(463,368,o),
(386,356,o),
(305,279,c),
(298,213,l)
);
},
{
closed = 1;
nodes = (
(249,214,o),
(138,123,o),
(113,127,cs),
(94,130,o),
(94,191,o),
(100,227,cs),
(107,267,o),
(131,322,o),
(187,312,cs),
(228,305,o),
(256,267,o),
(274,241,c),
(307,279,l),
(285,309,o),
(256,352,o),
(201,361,cs),
(115,377,o),
(62,298,o),
(49,226,cs),
(39,168,o),
(51,90,o),
(105,81,cs),
(161,71,o),
(237,140,o),
(306,210,c),
(308,280,l)
);
},
{
closed = 1;
nodes = (
(406,307,o),
(461,319,o),
(500,312,cs),
(548,303,o),
(587,263,o),
(578,214,cs),
(568,158,o),
(501,123,o),
(458,130,cs),
(417,137,o),
(377,186,o),
(349,227,cs),
(339,241,l)
);
}
);
width = 663;
},
{
layerId = m002;
shapes = (
{
closed = 1;
nodes = (
(297,179,ls),
(330,127,o),
(382,71,o),
(443,61,cs),
(512,49,o),
(612,92,o),
(632,205,cs),
(651,314,o),
(574,362,o),
(514,373,cs),
(459,383,o),
(377,369,o),
(292,284,c),
(281,204,l)
);
},
{
closed = 1;
nodes = (
(233,221,o),
(155,151,o),
(140,154,cs),
(125,156,o),
(130,195,o),
(136,227,cs),
(142,261,o),
(164,284,o),
(201,278,cs),
(243,271,o),
(263,220,o),
(280,198,c),
(343,272,l),
(327,296,o),
(295,361,o),
(223,374,cs),
(126,391,o),
(67,301,o),
(53,225,cs),
(42,164,o),
(57,72,o),
(123,60,cs),
(189,49,o),
(265,126,o),
(335,197,c),
(279,272,l)
);
},
{
closed = 1;
nodes = (
(424,277,o),
(462,284,o),
(490,279,cs),
(530,272,o),
(553,247,o),
(547,215,cs),
(540,175,o),
(502,150,o),
(469,156,cs),
(426,163,o),
(389,212,o),
(379,227,cs),
(375,233,l)
);
}
);
width = 668;
}
);
metricLeft = o;
metricRight = o;
unicode = 8734;
},
{
glyphname = percent;
lastChange = "2022-02-27 19:32:48 +0000";
layers = (
{
layerId = m01;
shapes = (
{
closed = 1;
nodes = (
(421,637,o),
(406,650,o),
(391,650,cs),
(380,650,o),
(369,644,o),
(362,627,cs),
(105,31,ls),
(97,12,o),
(111,0,o),
(127,0,cs),
(138,0,o),
(149,6,o),
(155,20,cs),
(412,616,ls)
);
},
{
closed = 1;
nodes = (
(356,-4,o),
(422,95,o),
(422,158,cs),
(422,197,o),
(399,218,o),
(354,218,cs),
(317,218,o),
(291,193,o),
(276,167,cs),
(265,146,o),
(248,106,o),
(248,59,cs),
(248,12,o),
(265,-4,o),
(292,-4,cs)
);
},
{
closed = 1;
nodes = (
(287,35,o),
(287,49,o),
(287,66,cs),
(287,93,o),
(299,122,o),
(313,151,c),
(325,171,o),
(335,178,o),
(352,178,cs),
(374,178,o),
(382,172,o),
(382,151,cs),
(382,113,o),
(330,35,o),
(299,35,cs)
);
},
{
closed = 1;
nodes = (
(213,432,o),
(279,531,o),
(279,594,cs),
(279,633,o),
(256,654,o),
(211,654,cs),
(174,654,o),
(148,629,o),
(133,603,cs),
(122,582,o),
(105,542,o),
(105,495,cs),
(105,448,o),
(122,432,o),
(149,432,cs)
);
},
{
closed = 1;
nodes = (
(144,471,o),
(144,485,o),
(144,502,cs),
(144,529,o),
(156,558,o),
(170,587,c),
(182,607,o),
(192,614,o),
(209,614,cs),
(231,614,o),
(239,608,o),
(239,587,cs),
(239,549,o),
(187,471,o),
(156,471,cs)
);
}
);
width = 472;
},
{
background = {
shapes = (
{
closed = 1;
nodes = (
(519,0,o),
(590,110,o),
(590,179,cs),
(590,227,o),
(558,256,o),
(502,256,cs),
(453,256,o),
(421,223,o),
(405,195,cs),
(393,175,o),
(376,130,o),
(376,80,cs),
(376,12,o),
(412,0,o),
(440,0,cs)
);
},
{
closed = 1;
nodes = (
(452,78,o),
(454,94,o),
(455,106,cs),
(458,126,o),
(466,145,o),
(476,164,cs),
(484,179,o),
(489,182,o),
(499,182,cs),
(510,182,o),
(511,173,o),
(509,157,cs),
(505,130,o),
(472,78,o),
(457,78,cs)
);
},
{
closed = 1;
nodes = (
(260,394,o),
(331,504,o),
(331,573,cs),
(331,621,o),
(299,650,o),
(243,650,cs),
(194,650,o),
(162,617,o),
(146,589,cs),
(134,569,o),
(117,524,o),
(117,474,cs),
(117,406,o),
(153,394,o),
(181,394,cs)
);
},
{
closed = 1;
nodes = (
(193,472,o),
(195,488,o),
(196,500,cs),
(199,520,o),
(207,539,o),
(217,558,cs),
(225,573,o),
(230,576,o),
(240,576,cs),
(251,576,o),
(252,567,o),
(250,551,cs),
(246,524,o),
(213,472,o),
(198,472,cs)
);
}
);
};
layerId = m002;
shapes = (
{
closed = 1;
nodes = (
(533,624,o),
(502,650,o),
(472,650,cs),
(452,650,o),
(430,639,o),
(419,614,cs),
(179,60,ls),
(164,25,o),
(193,0,o),
(225,0,cs),
(244,0,o),
(266,10,o),
(276,32,cs),
(517,588,ls)
);
},
{
closed = 1;
nodes = (
(519,-4,o),
(590,106,o),
(590,175,cs),
(590,223,o),
(558,252,o),
(502,252,cs),
(453,252,o),
(421,219,o),
(405,191,cs),
(393,171,o),
(376,126,o),
(376,76,cs),
(376,8,o),
(412,-4,o),
(440,-4,cs)
);
},
{
closed = 1;
nodes = (
(453,74,o),
(451,90,o),
(452,102,cs),
(455,122,o),
(461,141,o),
(471,160,cs),
(479,175,o),
(489,178,o),
(499,178,cs),
(510,178,o),
(510,169,o),
(509,153,cs),
(507,121,o),
(475,74,o),
(457,74,cs)
);
},
{
closed = 1;
nodes = (
(260,398,o),
(331,508,o),
(331,577,cs),
(331,625,o),
(299,654,o),
(243,654,cs),
(194,654,o),
(162,621,o),
(146,593,cs),
(134,573,o),
(117,528,o),
(117,478,cs),
(117,410,o),
(153,398,o),
(181,398,cs)
);
},
{
closed = 1;
nodes = (
(194,476,o),
(192,492,o),
(193,504,cs),
(196,524,o),
(202,543,o),
(212,562,cs),
(220,577,o),
(230,580,o),
(240,580,cs),
(251,580,o),
(251,571,o),
(250,555,cs),
(248,523,o),
(216,476,o),
(198,476,cs)
);
}
);
width = 651;
}
);
metricLeft = N;
metricRight = N;
unicode = 37;
},
{
glyphname = grave;
lastChange = "2022-02-27 19:34:29 +0000";
layers = (
{
layerId = m01;
shapes = (
{
closed = 1;
nodes = (
(181,696,o),
(168,701,o),
(157,701,cs),
(141,700,o),
(126,686,o),
(139,664,cs),
(193,572,ls),
(202,557,o),
(215,554,o),
(224,559,cs),
(232,563,o),
(235,573,o),
(229,587,cs),
(187,683,ls)
);
}
);
width = 207;
},
{
layerId = m002;
shapes = (
{
closed = 1;
nodes = (
(237,690,o),
(213,700,o),
(193,700,cs),
(160,698,o),
(130,669,o),
(155,630,cs),
(212,542,ls),
(230,515,o),
(255,508,o),
(274,519,cs),
(293,530,o),
(296,547,o),
(285,573,cs),
(246,669,ls)
);
}
);
width = 285;
}
);
metricLeft = N;
metricRight = N;
unicode = 96;
},
{
glyphname = tilde;
lastChange = "2022-03-01 20:42:03 +0000";
layers = (
{
layerId = m01;
shapes = (
{
closed = 1;
nodes = (
(264,158,o),
(284,168,o),
(305,177,cs),
(323,185,o),
(331,191,o),
(331,202,cs),
(331,213,o),
(319,233,o),
(302,225,cs),
(283,216,o),
(270,203,o),
(240,203,cs),
(212,203,o),
(169,241,o),
(138,241,cs),
(112,241,o),
(95,232,o),
(77,225,cs),
(59,218,o),
(50,213,o),
(50,202,cs),
(50,190,o),
(60,169,o),
(78,177,cs),
(93,184,o),
(107,196,o),
(130,196,cs),
(161,196,o),
(204,158,o),
(232,158,cs)
);
}
